<?xml version="1.0" encoding="utf-8"?>
<!-- Generator: Adobe Illustrator 28.3.0, SVG Export Plug-In . SVG Version: 6.00 Build 0)  -->
<svg version="1.0" id="Capa_1" xmlns="http://www.w3.org/2000/svg" xmlns:xlink="http://www.w3.org/1999/xlink" x="0px" y="0px"
	 viewBox="0 0 354 314" style="enable-background:new 0 0 354 314;" xml:space="preserve">
<style type="text/css">
	.st0{fill:#FFDA44;}
	.st1{fill:#D80027;}
</style>
<g>
	<path class="st0" d="M41.96,207.09C62.3,261.92,115.09,301,177,301s114.7-39.08,135.04-93.91L177,194.57L41.96,207.09z"/>
	<path d="M177,13c-61.91,0-114.7,39.08-135.04,93.91L177,119.43l135.04-12.52C291.7,52.08,238.91,13,177,13z"/>
	<path class="st1" d="M42.02,106.97c-5.79,15.59-8.95,32.46-8.95,50.06s3.17,34.47,8.95,50.06h269.96
		c5.79-15.59,8.95-32.46,8.95-50.06s-3.17-34.47-8.95-50.06H42.02z"/>
</g>
</svg>
