<?xml version="1.0" encoding="utf-8"?>
<!-- Generator: Adobe Illustrator 28.3.0, SVG Export Plug-In . SVG Version: 6.00 Build 0)  -->
<svg version="1.0" id="Capa_1" xmlns="http://www.w3.org/2000/svg" xmlns:xlink="http://www.w3.org/1999/xlink" x="0px" y="0px"
	 viewBox="0 0 1254 410" style="enable-background:new 0 0 1254 410;" xml:space="preserve">
<style type="text/css">
	.st0{fill:#4D4D4D;}
	.st1{fill:#808080;}
	.st2{fill:#E4C9B6;}
</style>
<g>
	<g>
		<g>
			<path class="st0" d="M486.87,231.92c-2-1.2-3-3.2-3-6c0-3,0.95-6.35,2.85-10.05c1.9-3.7,3.45-6.35,4.65-7.95
				c3-4,7.4-8.25,13.2-12.75c5.8-4.5,11.5-8.35,17.1-11.55c8.6-5,18.1-10,28.5-15c10.4-5,20.5-10.5,30.3-16.5c9.8-6,17.9-13,24.3-21
				c4-4.8,7.25-10.35,9.75-16.65c2.5-6.3,3.75-13.15,3.75-20.55c0-6.8-1.65-12.3-4.95-16.5c-3.3-4.2-7.55-7.3-12.75-9.3
				c-5.2-2-10.7-3-16.5-3c-8.4,0-16.8,2.2-25.2,6.6c-6.4,3.4-11.55,7.85-15.45,13.35c-3.9,5.5-6.45,11.75-7.65,18.75
				c-0.2,0.6-0.3,1.25-0.3,1.95c0,0.7,0,1.45,0,2.25c0,6,1.3,10.8,3.9,14.4c0,0.2,0.05,0.3,0.15,0.3c0.1,0,0.15,0.1,0.15,0.3
				c0,0.2-0.4,0.3-1.2,0.3c-1.6,0-3-0.3-4.2-0.9c-3.2-1-5.95-3.6-8.25-7.8c-2.3-4.2-3.25-8.2-2.85-12c1-8.8,4.65-16.25,10.95-22.35
				c6.3-6.1,13.35-10.75,21.15-13.95c11.4-4.6,22.8-6.9,34.2-6.9c8.8,0,17.2,1.15,25.2,3.45c8,2.3,14.5,6.05,19.5,11.25
				c5,5.2,7.5,12.2,7.5,21c0,9-2.1,17.2-6.3,24.6c-4.2,7.4-9.7,14-16.5,19.8c-8.2,7-17.9,13.3-29.1,18.9
				c-11.2,5.6-22.55,10.95-34.05,16.05c-11.5,5.1-21.95,10.45-31.35,16.05c-1.6,0.8-3.85,2.3-6.75,4.5c-2.9,2.2-5.55,4.55-7.95,7.05
				c-2.4,2.5-3.6,4.95-3.6,7.35c0,1.4,0.6,2.65,1.8,3.75c1.2,1.1,3.3,2.05,6.3,2.85c5.6,1.4,10.65,2.6,15.15,3.6
				c4.5,1,9.15,1.8,13.95,2.4c4.8,0.6,10.4,0.9,16.8,0.9c3.6,0,7.9-0.4,12.9-1.2c5-0.8,10.1-2.2,15.3-4.2c5.2-2,9.8-4.6,13.8-7.8
				c4-3.2,6.8-7.2,8.4-12c0.6-1.8,0.9-3.7,0.9-5.7c0-1.8-0.35-3.6-1.05-5.4c-0.7-1.8-1.95-3.4-3.75-4.8c-0.4-0.4-0.6-0.9-0.6-1.5
				c0-0.8,0.6-1.2,1.8-1.2c1.2,0,2.8,0.8,4.8,2.4c6.8,5.4,9.6,12.6,8.4,21.6c-1,8.2-3.9,14.55-8.7,19.05
				c-4.8,4.5-10.75,7.65-17.85,9.45c-7.1,1.8-14.45,2.7-22.05,2.7c-6.4,0-12.7-0.45-18.9-1.35c-6.2-0.9-11.6-1.85-16.2-2.85
				c-4.6-1-9.7-2.2-15.3-3.6c-5.6-1.4-11-2.1-16.2-2.1c-4.4,0-8.3,0.7-11.7,2.1c-1.2,0.4-2.55,1.1-4.05,2.1
				S487.47,230.72,486.87,231.92z"/>
		</g>
		<g>
			<path class="st0" d="M657.26,231.62c-7.2-1.6-12.9-4.25-17.1-7.95c-4.2-3.7-6.3-8.35-6.3-13.95c0-2,0.3-4,0.9-6
				c0.6-2.2,2-4.65,4.2-7.35c2.2-2.7,5.5-3.95,9.9-3.75c-0.6,1.4-1.05,3-1.35,4.8c-0.3,1.8-0.65,3.5-1.05,5.1
				c-0.2,0.6-0.3,1.2-0.3,1.8c0,0.6,0,1.1,0,1.5c0,5.2,1.8,9.55,5.4,13.05c3.6,3.5,8.25,6.05,13.95,7.65
				c5.7,1.6,11.45,2.4,17.25,2.4c8,0,15.9-1.4,23.7-4.2c7.8-2.8,14.95-6.8,21.45-12c6.5-5.2,11.7-11.45,15.6-18.75
				c3.9-7.3,5.85-15.45,5.85-24.45c0-8-1.95-14.2-5.85-18.6c-3.9-4.4-8.9-7.5-15-9.3c-6.1-1.8-12.35-2.7-18.75-2.7
				c-3.2,0-7.1,0.1-11.7,0.3c-4.6,0.2-8.2,0.3-10.8,0.3c-2.6,0-3.9-0.8-3.9-2.4c0-1,0.7-2.05,2.1-3.15c1.4-1.1,3.5-1.65,6.3-1.65
				c5,0,10.8-0.25,17.4-0.75c6.6-0.5,12.7-1.75,18.3-3.75c5.2-1.8,10.3-4.65,15.3-8.55c5-3.9,9.1-8.5,12.3-13.8
				c3.2-5.3,4.8-10.95,4.8-16.95c0-6.4-2.4-11.4-7.2-15s-11.5-5.5-20.1-5.7c-14.4,0-26.5,4.6-36.3,13.8c-6.4,6-9.6,12.4-9.6,19.2
				c0,1,0.15,1.95,0.45,2.85c0.3,0.9,0.55,1.85,0.75,2.85c-4.2,0.2-7.3-0.7-9.3-2.7c-2-2-3-4.6-3-7.8c0-3.2,0.9-6.4,2.7-9.6
				c3.4-6,8.55-10.8,15.45-14.4c6.9-3.6,14.25-6.2,22.05-7.8c7.8-1.6,14.9-2.4,21.3-2.4c8.6,0,16.9,1.5,24.9,4.5
				c8,3,13.3,8.3,15.9,15.9c1,2.6,1.5,5.3,1.5,8.1c0,2.4-0.5,5.3-1.5,8.7c-1.6,6-4.95,11.35-10.05,16.05
				c-5.1,4.7-10.75,8.65-16.95,11.85c-6.2,3.2-11.8,5.6-16.8,7.2c14,1.4,23.7,5.4,29.1,12s8.1,13.9,8.1,21.9c0,4-0.55,7.9-1.65,11.7
				c-1.1,3.8-2.45,7.4-4.05,10.8c-5,9.8-11.85,17.95-20.55,24.45c-8.7,6.5-18.4,11.4-29.1,14.7c-10.7,3.3-21.65,4.95-32.85,4.95
				c-4.4,0-8.75-0.25-13.05-0.75C665.71,233.37,661.46,232.62,657.26,231.62z"/>
		</g>
	</g>
	<g>
		<g>
			<path class="st1" d="M505.08,349.62c-0.8-0.48-1.2-1.28-1.2-2.4c0-1.2,0.38-2.54,1.14-4.02c0.76-1.48,1.38-2.54,1.86-3.18
				c1.2-1.6,2.96-3.3,5.28-5.1c2.32-1.8,4.6-3.34,6.84-4.62c3.44-2,7.24-4,11.4-6c4.16-2,8.2-4.2,12.12-6.6
				c3.92-2.4,7.16-5.2,9.72-8.4c1.6-1.92,2.9-4.14,3.9-6.66c1-2.52,1.5-5.26,1.5-8.22c0-2.72-0.66-4.92-1.98-6.6
				c-1.32-1.68-3.02-2.92-5.1-3.72c-2.08-0.8-4.28-1.2-6.6-1.2c-3.36,0-6.72,0.88-10.08,2.64c-2.56,1.36-4.62,3.14-6.18,5.34
				c-1.56,2.2-2.58,4.7-3.06,7.5c-0.08,0.24-0.12,0.5-0.12,0.78c0,0.28,0,0.58,0,0.9c0,2.4,0.52,4.32,1.56,5.76
				c0,0.08,0.02,0.12,0.06,0.12c0.04,0,0.06,0.04,0.06,0.12c0,0.08-0.16,0.12-0.48,0.12c-0.64,0-1.2-0.12-1.68-0.36
				c-1.28-0.4-2.38-1.44-3.3-3.12c-0.92-1.68-1.3-3.28-1.14-4.8c0.4-3.52,1.86-6.5,4.38-8.94c2.52-2.44,5.34-4.3,8.46-5.58
				c4.56-1.84,9.12-2.76,13.68-2.76c3.52,0,6.88,0.46,10.08,1.38c3.2,0.92,5.8,2.42,7.8,4.5c2,2.08,3,4.88,3,8.4
				c0,3.6-0.84,6.88-2.52,9.84c-1.68,2.96-3.88,5.6-6.6,7.92c-3.28,2.8-7.16,5.32-11.64,7.56c-4.48,2.24-9.02,4.38-13.62,6.42
				c-4.6,2.04-8.78,4.18-12.54,6.42c-0.64,0.32-1.54,0.92-2.7,1.8c-1.16,0.88-2.22,1.82-3.18,2.82c-0.96,1-1.44,1.98-1.44,2.94
				c0,0.56,0.24,1.06,0.72,1.5c0.48,0.44,1.32,0.82,2.52,1.14c2.24,0.56,4.26,1.04,6.06,1.44c1.8,0.4,3.66,0.72,5.58,0.96
				c1.92,0.24,4.16,0.36,6.72,0.36c1.44,0,3.16-0.16,5.16-0.48c2-0.32,4.04-0.88,6.12-1.68c2.08-0.8,3.92-1.84,5.52-3.12
				c1.6-1.28,2.72-2.88,3.36-4.8c0.24-0.72,0.36-1.48,0.36-2.28c0-0.72-0.14-1.44-0.42-2.16c-0.28-0.72-0.78-1.36-1.5-1.92
				c-0.16-0.16-0.24-0.36-0.24-0.6c0-0.32,0.24-0.48,0.72-0.48s1.12,0.32,1.92,0.96c2.72,2.16,3.84,5.04,3.36,8.64
				c-0.4,3.28-1.56,5.82-3.48,7.62s-4.3,3.06-7.14,3.78c-2.84,0.72-5.78,1.08-8.82,1.08c-2.56,0-5.08-0.18-7.56-0.54
				c-2.48-0.36-4.64-0.74-6.48-1.14c-1.84-0.4-3.88-0.88-6.12-1.44c-2.24-0.56-4.4-0.84-6.48-0.84c-1.76,0-3.32,0.28-4.68,0.84
				c-0.48,0.16-1.02,0.44-1.62,0.84S505.32,349.14,505.08,349.62z"/>
		</g>
		<g>
			<path class="st1" d="M593.87,349.5c-4.56,0-8.38-0.78-11.46-2.34c-3.08-1.56-5.46-3.58-7.14-6.06c-1.68-2.48-2.72-5.16-3.12-8.04
				c-0.08-0.64-0.14-1.3-0.18-1.98c-0.04-0.68-0.06-1.34-0.06-1.98c0-1.84,0.14-3.66,0.42-5.46c0.28-1.8,0.66-3.58,1.14-5.34
				c1.36-4.8,3.56-9.54,6.6-14.22c3.04-4.68,6.66-8.9,10.86-12.66c4.2-3.76,8.78-6.76,13.74-9c4.96-2.24,10.04-3.36,15.24-3.36
				c4.64,0,8.46,0.76,11.46,2.28c3,1.52,5.34,3.54,7.02,6.06c1.68,2.52,2.72,5.26,3.12,8.22c0.24,1.44,0.36,2.92,0.36,4.44
				c0,1.68-0.14,3.38-0.42,5.1c-0.28,1.72-0.66,3.42-1.14,5.1c-1.36,4.8-3.56,9.52-6.6,14.16c-3.04,4.64-6.66,8.86-10.86,12.66
				c-4.2,3.8-8.78,6.82-13.74,9.06C604.15,348.38,599.07,349.5,593.87,349.5z M595.19,346.86c5.2,0,9.92-1.3,14.16-3.9
				c4.24-2.6,7.96-5.92,11.16-9.96c3.2-4.04,5.84-8.14,7.92-12.3c1.44-2.88,2.68-6.26,3.72-10.14c1.04-3.88,1.56-7.66,1.56-11.34
				c0-0.88-0.04-1.78-0.12-2.7c-0.08-0.92-0.2-1.78-0.36-2.58c-0.56-3.28-1.84-6.16-3.84-8.64c-2-2.48-5.36-3.72-10.08-3.72
				c-5.04,0-9.72,1.32-14.04,3.96c-4.32,2.64-8.14,5.96-11.46,9.96c-3.32,4-6.1,8.12-8.34,12.36c-1.52,2.8-2.8,6.1-3.84,9.9
				c-1.04,3.8-1.56,7.58-1.56,11.34c0,0.88,0.04,1.76,0.12,2.64c0.08,0.88,0.2,1.76,0.36,2.64c0.64,3.28,2.08,6.18,4.32,8.7
				C587.11,345.6,590.55,346.86,595.19,346.86z"/>
		</g>
		<g>
			<path class="st1" d="M638.15,349.62c-0.8-0.48-1.2-1.28-1.2-2.4c0-1.2,0.38-2.54,1.14-4.02c0.76-1.48,1.38-2.54,1.86-3.18
				c1.2-1.6,2.96-3.3,5.28-5.1c2.32-1.8,4.6-3.34,6.84-4.62c3.44-2,7.24-4,11.4-6c4.16-2,8.2-4.2,12.12-6.6
				c3.92-2.4,7.16-5.2,9.72-8.4c1.6-1.92,2.9-4.14,3.9-6.66c1-2.52,1.5-5.26,1.5-8.22c0-2.72-0.66-4.92-1.98-6.6
				c-1.32-1.68-3.02-2.92-5.1-3.72c-2.08-0.8-4.28-1.2-6.6-1.2c-3.36,0-6.72,0.88-10.08,2.64c-2.56,1.36-4.62,3.14-6.18,5.34
				c-1.56,2.2-2.58,4.7-3.06,7.5c-0.08,0.24-0.12,0.5-0.12,0.78c0,0.28,0,0.58,0,0.9c0,2.4,0.52,4.32,1.56,5.76
				c0,0.08,0.02,0.12,0.06,0.12c0.04,0,0.06,0.04,0.06,0.12c0,0.08-0.16,0.12-0.48,0.12c-0.64,0-1.2-0.12-1.68-0.36
				c-1.28-0.4-2.38-1.44-3.3-3.12c-0.92-1.68-1.3-3.28-1.14-4.8c0.4-3.52,1.86-6.5,4.38-8.94c2.52-2.44,5.34-4.3,8.46-5.58
				c4.56-1.84,9.12-2.76,13.68-2.76c3.52,0,6.88,0.46,10.08,1.38c3.2,0.92,5.8,2.42,7.8,4.5c2,2.08,3,4.88,3,8.4
				c0,3.6-0.84,6.88-2.52,9.84c-1.68,2.96-3.88,5.6-6.6,7.92c-3.28,2.8-7.16,5.32-11.64,7.56c-4.48,2.24-9.02,4.38-13.62,6.42
				c-4.6,2.04-8.78,4.18-12.54,6.42c-0.64,0.32-1.54,0.92-2.7,1.8c-1.16,0.88-2.22,1.82-3.18,2.82c-0.96,1-1.44,1.98-1.44,2.94
				c0,0.56,0.24,1.06,0.72,1.5c0.48,0.44,1.32,0.82,2.52,1.14c2.24,0.56,4.26,1.04,6.06,1.44c1.8,0.4,3.66,0.72,5.58,0.96
				c1.92,0.24,4.16,0.36,6.72,0.36c1.44,0,3.16-0.16,5.16-0.48c2-0.32,4.04-0.88,6.12-1.68c2.08-0.8,3.92-1.84,5.52-3.12
				c1.6-1.28,2.72-2.88,3.36-4.8c0.24-0.72,0.36-1.48,0.36-2.28c0-0.72-0.14-1.44-0.42-2.16c-0.28-0.72-0.78-1.36-1.5-1.92
				c-0.16-0.16-0.24-0.36-0.24-0.6c0-0.32,0.24-0.48,0.72-0.48c0.48,0,1.12,0.32,1.92,0.96c2.72,2.16,3.84,5.04,3.36,8.64
				c-0.4,3.28-1.56,5.82-3.48,7.62c-1.92,1.8-4.3,3.06-7.14,3.78c-2.84,0.72-5.78,1.08-8.82,1.08c-2.56,0-5.08-0.18-7.56-0.54
				c-2.48-0.36-4.64-0.74-6.48-1.14c-1.84-0.4-3.88-0.88-6.12-1.44c-2.24-0.56-4.4-0.84-6.48-0.84c-1.76,0-3.32,0.28-4.68,0.84
				c-0.48,0.16-1.02,0.44-1.62,0.84C638.81,348.7,638.39,349.14,638.15,349.62z"/>
		</g>
		<g>
			<path class="st1" d="M710.63,348.3c-0.4,0-0.6-0.28-0.6-0.84c0-0.4,0.1-0.78,0.3-1.14c0.2-0.36,0.5-0.54,0.9-0.54h6.72
				c2.08,0,3.84-0.66,5.28-1.98c1.44-1.32,2.68-3.18,3.72-5.58l5.52-12.12h-24.84c-0.8,0-1.58,0.02-2.34,0.06
				c-0.76,0.04-1.42,0.06-1.98,0.06c-1.36,0-2.04-0.24-2.04-0.72c0-0.4,0.46-1.08,1.38-2.04c0.92-0.96,2.46-2.32,4.62-4.08
				l40.56-34.8c0.56-0.48,1.1-0.94,1.62-1.38c0.52-0.44,1.5-0.82,2.94-1.14c1.44-0.32,3.76-0.48,6.96-0.48l-18.12,40.32h10.2
				c-0.72,1.28-1.78,2.3-3.18,3.06c-1.4,0.76-2.66,1.14-3.78,1.14h-4.8l-5.64,12.48c-0.48,1.12-0.86,2.1-1.14,2.94
				c-0.28,0.84-0.42,1.54-0.42,2.1c0,1.44,1.2,2.16,3.6,2.16h7.08c0.4,0,0.6,0.24,0.6,0.72c0,0.32-0.12,0.7-0.36,1.14
				c-0.24,0.44-0.52,0.66-0.84,0.66H710.63z M709.19,321.9h25.2l15.72-34.8L709.19,321.9z"/>
		</g>
	</g>
	<g>
		<g>
			<path class="st1" d="M65.92,206.76c-0.88,0-2.12-0.1-3.72-0.3c-1.6-0.2-3.04-0.7-4.32-1.5c-1.28-0.8-1.92-2-1.92-3.6
				c0-0.88,0.24-1.68,0.72-2.4c0.4-0.4,0.74-0.62,1.02-0.66c0.28-0.04,0.38,0.14,0.3,0.54c-0.32,1.2,0.06,2.34,1.14,3.42
				s2.18,1.78,3.3,2.1c1.28,0.32,2.64,0.48,4.08,0.48c3.28,0,6.28-0.82,9-2.46c2.72-1.64,5.18-3.72,7.38-6.24
				c2.2-2.52,4.18-5.06,5.94-7.62c4.08-6,7.76-12.18,11.04-18.54c3.28-6.36,6.6-12.7,9.96-19.02c3.36-6.32,7.12-12.4,11.28-18.24
				c1.36-1.92,3.04-4.1,5.04-6.54c2-2.44,4.2-4.78,6.6-7.02c2.4-2.24,4.88-4,7.44-5.28c-1.04,0-1.92-0.04-2.64-0.12
				c-0.72-0.08-1.92-0.16-3.6-0.24c-3.12-0.24-6.72-0.36-10.8-0.36c-2.24,0-4.42,0.02-6.54,0.06c-2.12,0.04-4.1,0.14-5.94,0.3
				c-6.56,0.4-13.1,1.64-19.62,3.72c-6.52,2.08-12.1,5.24-16.74,9.48c-2.72,2.48-4.96,5.28-6.72,8.4c-1.76,3.12-2.64,6.2-2.64,9.24
				c0,3.44,0.94,5.9,2.82,7.38c1.88,1.48,4.1,2.22,6.66,2.22c2,0,4-0.36,6-1.08c3.92-1.36,7.14-3.78,9.66-7.26s3.62-7.38,3.3-11.7
				c-0.08-0.72-0.24-1.44-0.48-2.16c-0.24-0.72-0.56-1.2-0.96-1.44c-0.32-0.24-0.46-0.48-0.42-0.72c0.04-0.24,0.26-0.36,0.66-0.36
				c1.76,0.16,2.98,1.14,3.66,2.94c0.68,1.8,1.02,3.5,1.02,5.1c0,2.48-0.64,4.86-1.92,7.14c-1.28,2.28-2.94,4.28-4.98,6
				c-2.04,1.72-4.22,3.02-6.54,3.9c-2.48,0.96-5.12,1.44-7.92,1.44c-3.68,0-6.9-1.04-9.66-3.12c-2.76-2.08-4.14-5.48-4.14-10.2
				c0-3.52,0.86-6.84,2.58-9.96c1.72-3.12,3.82-5.92,6.3-8.4c5.36-5.28,11.58-8.88,18.66-10.8s14.3-2.88,21.66-2.88
				c5.76,0,11.52,0.3,17.28,0.9c5.76,0.6,11.48,0.9,17.16,0.9h3.12c0.4,0.08,0.78,0.22,1.14,0.42c0.36,0.2,0.46,0.5,0.3,0.9
				c0,0.48-0.28,0.72-0.84,0.72c-1.12,0-2,0.16-2.64,0.48c-1.68,0.56-3.12,1.58-4.32,3.06c-1.2,1.48-2.36,3.26-3.48,5.34
				c-1.52,2.72-2.42,5.9-2.7,9.54c-0.28,3.64-0.46,6.98-0.54,10.02c-0.08,4.24-0.22,8.64-0.42,13.2c-0.2,4.56-0.9,9.04-2.1,13.44
				c-0.88,3.44-2.18,6.68-3.9,9.72c-1.72,3.04-3.94,5.8-6.66,8.28c2.08-0.8,4.16-2.32,6.24-4.56c2.08-2.24,4.06-4.68,5.94-7.32
				c1.88-2.64,3.42-4.88,4.62-6.72c3.44-5.28,7.06-11.08,10.86-17.4c3.8-6.32,7.78-12.58,11.94-18.78c4.16-6.2,8.48-11.7,12.96-16.5
				c3.92-4.24,7.78-7.32,11.58-9.24c3.8-1.92,7.26-2.88,10.38-2.88c2.72,0,5.08,0.66,7.08,1.98c2,1.32,3.4,3.18,4.2,5.58
				c0,0.08,0.02,0.14,0.06,0.18c0.04,0.04,0.06,0.1,0.06,0.18c0,0.56-0.28,0.88-0.84,0.96c-0.56,0.08-0.92,0-1.08-0.24
				c-0.72-3.28-2.8-4.92-6.24-4.92c-2.24,0-5,0.88-8.28,2.64c-3.28,1.76-7,4.64-11.16,8.64c-4.32,4.16-8.6,9.08-12.84,14.76
				c-4.24,5.68-8.38,11.52-12.42,17.52c-4.04,6-8.06,11.64-12.06,16.92c-1.44,1.92-3.26,4.24-5.46,6.96
				c-2.2,2.72-4.62,5.42-7.26,8.1c-2.64,2.68-5.32,4.88-8.04,6.6c-2.72,1.72-5.32,2.5-7.8,2.34c-0.48,0-0.74-0.16-0.78-0.48
				c-0.04-0.32,0.14-0.6,0.54-0.84c2.72-1.92,4.92-4.48,6.6-7.68c1.68-3.2,3.04-6.68,4.08-10.44c1.36-5.2,2.26-10.48,2.7-15.84
				c0.44-5.36,1.02-10.72,1.74-16.08c0.4-2.48,0.9-5.1,1.5-7.86s1.54-5.26,2.82-7.5c1.04-1.84,2.48-3.84,4.32-6
				c1.84-2.16,3.88-3.72,6.12-4.68c-1.36-0.32-2.9,0.16-4.62,1.44c-1.72,1.28-3.42,2.94-5.1,4.98c-1.68,2.04-3.18,4.02-4.5,5.94
				c-1.32,1.92-2.26,3.32-2.82,4.2c-3.84,6.08-7.34,12.44-10.5,19.08c-3.16,6.64-6.38,13.2-9.66,19.68
				c-3.28,6.48-7.08,12.6-11.4,18.36c-2.32,3.12-4.96,6.1-7.92,8.94c-2.96,2.84-6.12,5.06-9.48,6.66c-2,1.04-4.06,1.76-6.18,2.16
				C70.1,206.56,68,206.76,65.92,206.76z M163.24,197.52c-3.04,0-5.46-0.96-7.26-2.88c-1.8-1.92-2.7-4.76-2.7-8.52
				c0.08-3.76,0.74-7.64,1.98-11.64c1.24-4,2.84-7.98,4.8-11.94c1.96-3.96,3.98-7.74,6.06-11.34c4.72-8.08,9.46-15.24,14.22-21.48
				c4.76-6.24,8.62-11.48,11.58-15.72c0.24-0.4,0.68-0.58,1.32-0.54c0.64,0.04,0.8,0.26,0.48,0.66c-3.2,4.16-6.42,9.26-9.66,15.3
				c-3.24,6.04-6.58,12.54-10.02,19.5c-0.56,1.2-1.42,3.14-2.58,5.82c-1.16,2.68-2.4,5.74-3.72,9.18
				c-1.32,3.44-2.58,6.86-3.78,10.26c-1.2,3.4-2.12,6.42-2.76,9.06c-0.24,1.04-0.44,2.02-0.6,2.94c-0.16,0.92-0.24,1.82-0.24,2.7
				c0,1.92,0.42,3.46,1.26,4.62c0.84,1.16,2.14,1.74,3.9,1.74c1.84,0,3.8-0.86,5.88-2.58c2.08-1.72,4.12-3.82,6.12-6.3
				c1.76-2.08,3.38-4.28,4.86-6.6c1.48-2.32,2.7-4.4,3.66-6.24c0.4-0.48,0.68-0.72,0.84-0.72c0.24,0,0.36,0.2,0.36,0.6
				c0,0.48-0.16,1.04-0.48,1.68c-0.96,1.84-2.24,3.98-3.84,6.42c-1.6,2.44-3.4,4.78-5.4,7.02c-2.24,2.48-4.6,4.6-7.08,6.36
				C167.96,196.64,165.56,197.52,163.24,197.52z"/>
		</g>
		<g>
			<path class="st1" d="M189.76,192.12c-2.24,0-3.88-0.74-4.92-2.22c-1.04-1.48-1.56-3.3-1.56-5.46c0-0.64,0.06-1.3,0.18-1.98
				c0.12-0.68,0.26-1.38,0.42-2.1c0.88-3.2,2.26-6.78,4.14-10.74c1.88-3.96,3.7-7.5,5.46-10.62c1.04-1.76,2-3.02,2.88-3.78
				c0.88-0.76,1.84-1.32,2.88-1.68c1.04-0.36,2.28-0.78,3.72-1.26c0.4-0.16,0.8-0.28,1.2-0.36c0.4-0.08,0.84-0.16,1.32-0.24
				c-1.6,1.6-3.22,3.52-4.86,5.76c-1.64,2.24-3.42,5.32-5.34,9.24c-1.04,2.08-2.06,4.4-3.06,6.96c-1,2.56-1.86,4.96-2.58,7.2
				c-0.72,2.24-1.12,4-1.2,5.28c-0.08,1.52,0.12,2.6,0.6,3.24c0.48,0.64,1.12,0.96,1.92,0.96c1.36,0,2.66-0.48,3.9-1.44
				c1.24-0.96,2.34-1.96,3.3-3c1.76-2,3.42-4.2,4.98-6.6s3.1-4.96,4.62-7.68c0.24-0.32,0.44-0.48,0.6-0.48
				c0.32,0,0.48,0.24,0.48,0.72c0,0.4-0.08,0.72-0.24,0.96c-1.44,2.64-2.96,5.28-4.56,7.92c-1.6,2.64-3.56,5.12-5.88,7.44
				c-1.04,1.04-2.26,1.96-3.66,2.76C193.1,191.72,191.52,192.12,189.76,192.12z M204.43,144.9c-0.92,0-1.68-0.31-2.27-0.94
				c-0.59-0.63-0.88-1.37-0.88-2.21c0-1.17,0.46-2.2,1.39-3.09c0.92-0.88,1.93-1.36,3.02-1.45c0.92,0,1.68,0.29,2.27,0.88
				c0.59,0.59,0.88,1.34,0.88,2.27c0,1.09-0.44,2.12-1.32,3.09C206.64,144.42,205.61,144.9,204.43,144.9z"/>
		</g>
		<g>
			<path class="st1" d="M218.56,192.36c-4.64,0-7.92-1.2-9.84-3.6c-0.96-1.04-1.64-2.28-2.04-3.72c-0.4-1.44-0.6-2.92-0.6-4.44
				c0-1.92,0.24-3.86,0.72-5.82c0.48-1.96,1.08-3.78,1.8-5.46c1.12-2.64,2.6-5.3,4.44-7.98c1.84-2.68,4.06-4.94,6.66-6.78
				c2.6-1.84,5.46-2.76,8.58-2.76c2.08,0,3.72,0.52,4.92,1.56c1.2,1.04,1.8,2.64,1.8,4.8c0,2.48-0.76,4.98-2.28,7.5
				c-1.52,2.52-3.44,4.62-5.76,6.3c-2.32,1.68-4.72,2.52-7.2,2.52c-2.24,0-4.2-0.8-5.88-2.4c-0.48,1.28-0.88,2.7-1.2,4.26
				c-0.32,1.56-0.48,3.14-0.48,4.74c0,2.48,0.5,4.64,1.5,6.48c1,1.84,2.82,2.76,5.46,2.76c1.92,0,3.78-0.5,5.58-1.5
				c1.8-1,3.42-2.22,4.86-3.66c1.6-1.68,3.12-3.48,4.56-5.4s2.84-4.16,4.2-6.72c0.16-0.24,0.28-0.36,0.36-0.36
				c0.32,0,0.48,0.36,0.48,1.08c0,0.48-0.16,1-0.48,1.56c-1.2,2.16-2.6,4.34-4.2,6.54c-1.6,2.2-3.24,4.1-4.92,5.7
				c-1.52,1.44-3.16,2.6-4.92,3.48C222.92,191.92,220.88,192.36,218.56,192.36z M214.48,170.28c0.56,0.8,1.22,1.38,1.98,1.74
				c0.76,0.36,1.54,0.54,2.34,0.54c1.92,0,3.92-0.74,6-2.22c2.08-1.48,3.76-3.22,5.04-5.22c0.56-0.88,1.06-2.04,1.5-3.48
				c0.44-1.44,0.66-2.8,0.66-4.08c0-1.12-0.22-2.1-0.66-2.94c-0.44-0.84-1.3-1.26-2.58-1.26c-1.44,0-3.14,0.88-5.1,2.64
				c-1.96,1.76-3.82,4.04-5.58,6.84c-0.56,0.96-1.18,2.08-1.86,3.36C215.54,167.48,214.96,168.84,214.48,170.28z M227.53,145.84
				h-0.2c-0.54,0-0.82-0.31-0.82-0.92c0-0.27,0.14-0.51,0.41-0.71c1.56-1.02,3.37-2.4,5.41-4.13s3.91-3.25,5.61-4.54
				c0.34-0.2,0.61-0.31,0.82-0.31c0.54,0,1.05,0.25,1.53,0.76c0.48,0.51,0.71,1.04,0.71,1.58c0,0.48-0.2,0.82-0.61,1.02
				L227.53,145.84z"/>
		</g>
		<g>
			<path class="st1" d="M261.76,189.24c-1.36,1.12-2.7,1.94-4.02,2.46c-1.32,0.52-2.54,0.78-3.66,0.78c-2,0-3.66-0.7-4.98-2.1
				s-1.98-3.26-1.98-5.58c0-1.36,0.32-3,0.96-4.92c1.04-2.88,2.6-5.64,4.68-8.28c2.08-2.64,4.08-5.32,6-8.04
				c1.2-1.6,1.8-3.16,1.8-4.68c0-0.8-0.22-1.48-0.66-2.04c-0.44-0.56-1.22-0.88-2.34-0.96c-0.64-0.16-1.36-0.24-2.16-0.24
				c-0.8,0-1.6,0-2.4,0h-3.36c-0.48,0-0.92,0-1.32,0c-0.4,0-0.76-0.04-1.08-0.12c-0.32,2-0.98,4.24-1.98,6.72
				c-1,2.48-2.14,4.96-3.42,7.44c-1.28,2.48-2.52,4.72-3.72,6.72c-0.32,0.48-0.6,0.72-0.84,0.72c-0.24,0-0.36-0.24-0.36-0.72
				c0-0.56,0.12-1,0.36-1.32c1.68-3.28,3.3-6.5,4.86-9.66c1.56-3.16,2.62-6.46,3.18-9.9c-1.84-1.04-3.08-2.84-3.72-5.4
				c-0.08-0.4-0.14-0.78-0.18-1.14c-0.04-0.36-0.06-0.7-0.06-1.02c0-1.44,0.3-2.66,0.9-3.66c0.6-1,1.3-1.5,2.1-1.5
				c1.12,0,2.04,1.08,2.76,3.24c0.16,0.56,0.28,1.18,0.36,1.86c0.08,0.68,0.12,1.34,0.12,1.98c0,0.72-0.02,1.38-0.06,1.98
				c-0.04,0.6-0.1,1.1-0.18,1.5c0.56,0.16,1.3,0.28,2.22,0.36c0.92,0.08,1.94,0.12,3.06,0.12c1.68,0,3.44-0.06,5.28-0.18
				c1.84-0.12,3.4-0.18,4.68-0.18c1.52,0,2.56,0.32,3.12,0.96c0.56,0.64,0.84,1.44,0.84,2.4c0,1.2-0.3,2.5-0.9,3.9
				c-0.6,1.4-1.18,2.58-1.74,3.54c-1.04,1.92-2.02,3.62-2.94,5.1c-0.92,1.48-1.94,3.06-3.06,4.74c-1.68,2.56-2.9,4.9-3.66,7.02
				c-0.76,2.12-1.14,3.9-1.14,5.34c0,2.48,0.92,3.72,2.76,3.72c1.52,0,3.48-1.08,5.88-3.24c1.52-1.36,2.94-2.98,4.26-4.86
				c1.32-1.88,2.52-3.8,3.6-5.76c1.08-1.96,1.98-3.58,2.7-4.86c0.16-0.24,0.32-0.36,0.48-0.36c0.32,0,0.48,0.32,0.48,0.96
				c0,0.48-0.12,0.92-0.36,1.32c-1.36,2.48-2.92,5.2-4.68,8.16C266.48,184.52,264.32,187.08,261.76,189.24z"/>
		</g>
		<g>
			<path class="st1" d="M282.28,192.72c-4.16,0-7.12-1.26-8.88-3.78c-1.76-2.52-2.64-5.5-2.64-8.94c0-3.76,0.8-7.56,2.4-11.4
				c1.2-2.88,2.76-5.58,4.68-8.1s4.22-4.58,6.9-6.18c2.68-1.6,5.62-2.4,8.82-2.4c2.4,0,4.26,0.56,5.58,1.68
				c1.32,1.12,1.98,2.68,1.98,4.68c0,0.64-0.06,1.32-0.18,2.04c-0.12,0.72-0.38,1.52-0.78,2.4c-0.56,1.44-1.28,2.72-2.16,3.84
				c-0.88,1.12-1.88,2-3,2.64c-0.56,0.32-1.2,0.48-1.92,0.48c-0.56,0-1.08-0.16-1.56-0.48c-0.48-0.32-0.72-0.84-0.72-1.56
				c0-1.28,0.7-2.66,2.1-4.14c1.4-1.48,3.22-2.26,5.46-2.34c0.4-1.04,0.6-1.96,0.6-2.76c0-1.28-0.4-2.38-1.2-3.3
				c-0.8-0.92-2.04-1.38-3.72-1.38c-2.08,0-4.12,0.78-6.12,2.34c-2,1.56-3.78,3.6-5.34,6.12s-2.82,5.18-3.78,7.98
				c-0.48,1.28-0.92,2.9-1.32,4.86c-0.4,1.96-0.6,3.9-0.6,5.82c0,2.48,0.54,4.7,1.62,6.66c1.08,1.96,3.14,2.94,6.18,2.94
				c2.16,0,4.2-0.62,6.12-1.86c1.92-1.24,3.66-2.78,5.22-4.62c1.56-1.84,2.96-3.74,4.2-5.7c1.24-1.96,2.26-3.7,3.06-5.22
				c0.08-0.32,0.28-0.48,0.6-0.48c0.4,0,0.6,0.32,0.6,0.96c0,0.32-0.12,0.68-0.36,1.08c-1.68,2.96-3.48,5.82-5.4,8.58
				c-1.92,2.76-4.2,5.04-6.84,6.84C289.24,191.82,286.04,192.72,282.28,192.72z"/>
		</g>
		<g>
			<path class="st1" d="M313.12,193.8c-3.04,0-5.66-0.98-7.86-2.94c-2.2-1.96-3.3-4.98-3.3-9.06c0-2.56,0.46-5.22,1.38-7.98
				c0.92-2.76,1.94-5.22,3.06-7.38c2.08-3.92,4.7-7.34,7.86-10.26c3.16-2.92,6.94-4.38,11.34-4.38c4.24,0,7.2,1.16,8.88,3.48
				c1.68,2.32,2.52,5.16,2.52,8.52c0,1.36-0.12,2.76-0.36,4.2c-0.64,3.92-1.96,7.72-3.96,11.4c0.56,0.8,1.3,1.46,2.22,1.98
				c0.92,0.52,1.94,0.78,3.06,0.78c1.92,0,3.56-0.52,4.92-1.56c1.36-1.04,2.54-2.34,3.54-3.9c1-1.56,1.86-3.02,2.58-4.38
				c0.48-0.88,0.92-1.32,1.32-1.32c0.24,0,0.36,0.16,0.36,0.48c0,0.32-0.24,1.04-0.72,2.16c-1.36,2.72-2.96,5.08-4.8,7.08
				c-1.84,2-4.24,3-7.2,3c-2.72,0-4.8-0.96-6.24-2.88c-2.24,3.68-4.96,6.76-8.16,9.24C320.36,192.56,316.88,193.8,313.12,193.8z
				 M313.36,192.36c3.92,0,7.8-1.92,11.64-5.76c1.12-1.12,2.14-2.3,3.06-3.54c0.92-1.24,1.74-2.5,2.46-3.78
				c-1.04-1.2-1.78-2.5-2.22-3.9c-0.44-1.4-0.66-2.74-0.66-4.02c0-2,0.36-3.78,1.08-5.34c0.72-1.56,1.72-2.34,3-2.34
				c0.64,0,1.26,0.32,1.86,0.96c0.6,0.64,0.98,1.64,1.14,3c0.24-1.12,0.36-2.32,0.36-3.6c0-3.04-0.56-5.46-1.68-7.26
				c-1.12-1.8-3-2.7-5.64-2.7c-1.6,0-3.24,0.62-4.92,1.86c-1.68,1.24-3.26,2.74-4.74,4.5c-1.48,1.76-2.78,3.56-3.9,5.4
				c-1.12,1.84-1.96,3.36-2.52,4.56c-1.36,2.96-2.34,5.6-2.94,7.92c-0.6,2.32-0.9,4.36-0.9,6.12c0,2.56,0.54,4.52,1.62,5.88
				S311.84,192.36,313.36,192.36z"/>
		</g>
		<g>
			<path class="st1" d="M354.88,192.12c-2.88,0-4.88-0.84-6-2.52c-1.12-1.68-1.68-3.8-1.68-6.36c0-2.64,0.42-5.52,1.26-8.64
				c0.84-3.12,1.84-6.16,3-9.12c1.16-2.96,2.28-5.56,3.36-7.8c1.08-2.24,1.82-3.8,2.22-4.68c1.44-3.04,3.22-6.48,5.34-10.32
				c2.12-3.84,4.52-7.76,7.2-11.76c2.68-4,5.52-7.8,8.52-11.4s6.12-6.72,9.36-9.36c3.24-2.64,6.46-4.44,9.66-5.4
				c0.88-0.24,1.68-0.36,2.4-0.36c1.36,0,2.5,0.38,3.42,1.14c0.92,0.76,1.38,2.06,1.38,3.9c0,1.28-0.32,2.88-0.96,4.8
				c-1.04,2.8-2.8,5.9-5.28,9.3c-2.48,3.4-5.4,6.92-8.76,10.56c-3.36,3.64-6.9,7.22-10.62,10.74c-3.72,3.52-7.34,6.8-10.86,9.84
				c-3.52,3.04-6.64,5.64-9.36,7.8c-0.72,1.52-1.38,3-1.98,4.44s-1.14,2.84-1.62,4.2c-0.24,0.72-0.6,1.8-1.08,3.24
				s-0.92,3.04-1.32,4.8c-0.4,1.76-0.6,3.44-0.6,5.04c0,1.6,0.32,2.98,0.96,4.14c0.64,1.16,1.8,1.74,3.48,1.74
				c1.36,0,2.62-0.44,3.78-1.32c1.16-0.88,2.22-1.84,3.18-2.88c3.36-3.84,6.36-8.28,9-13.32c0.32-0.56,0.56-0.84,0.72-0.84
				c0.16,0,0.24,0.24,0.24,0.72c0,0.72-0.16,1.48-0.48,2.28c-1.52,2.8-2.9,5.16-4.14,7.08c-1.24,1.92-3.02,4.04-5.34,6.36
				c-1.04,1.04-2.26,1.96-3.66,2.76C358.22,191.72,356.64,192.12,354.88,192.12z M359.8,159.72c2.48-2.16,5.36-4.74,8.64-7.74
				c3.28-3,6.64-6.22,10.08-9.66c3.44-3.44,6.7-6.88,9.78-10.32c3.08-3.44,5.76-6.68,8.04-9.72c2.28-3.04,3.82-5.68,4.62-7.92
				c0.72-2.08,1.08-3.68,1.08-4.8c0-2.08-0.92-3.12-2.76-3.12c-1.04,0-2.28,0.38-3.72,1.14c-1.44,0.76-2.76,1.74-3.96,2.94
				c-2,1.92-4.34,4.66-7.02,8.22c-2.68,3.56-5.5,7.62-8.46,12.18c-2.96,4.56-5.86,9.32-8.7,14.28
				C364.58,150.16,362.04,155,359.8,159.72z"/>
		</g>
		<g>
			<path class="st1" d="M383.68,192.36c-4.64,0-7.92-1.2-9.84-3.6c-0.96-1.04-1.64-2.28-2.04-3.72c-0.4-1.44-0.6-2.92-0.6-4.44
				c0-1.92,0.24-3.86,0.72-5.82c0.48-1.96,1.08-3.78,1.8-5.46c1.12-2.64,2.6-5.3,4.44-7.98c1.84-2.68,4.06-4.94,6.66-6.78
				c2.6-1.84,5.46-2.76,8.58-2.76c2.08,0,3.72,0.52,4.92,1.56c1.2,1.04,1.8,2.64,1.8,4.8c0,2.48-0.76,4.98-2.28,7.5
				c-1.52,2.52-3.44,4.62-5.76,6.3c-2.32,1.68-4.72,2.52-7.2,2.52c-2.24,0-4.2-0.8-5.88-2.4c-0.48,1.28-0.88,2.7-1.2,4.26
				c-0.32,1.56-0.48,3.14-0.48,4.74c0,2.48,0.5,4.64,1.5,6.48c1,1.84,2.82,2.76,5.46,2.76c1.92,0,3.78-0.5,5.58-1.5
				c1.8-1,3.42-2.22,4.86-3.66c1.6-1.68,3.12-3.48,4.56-5.4s2.84-4.16,4.2-6.72c0.16-0.24,0.28-0.36,0.36-0.36
				c0.32,0,0.48,0.36,0.48,1.08c0,0.48-0.16,1-0.48,1.56c-1.2,2.16-2.6,4.34-4.2,6.54c-1.6,2.2-3.24,4.1-4.92,5.7
				c-1.52,1.44-3.16,2.6-4.92,3.48C388.04,191.92,386,192.36,383.68,192.36z M379.6,170.28c0.56,0.8,1.22,1.38,1.98,1.74
				c0.76,0.36,1.54,0.54,2.34,0.54c1.92,0,3.92-0.74,6-2.22c2.08-1.48,3.76-3.22,5.04-5.22c0.56-0.88,1.06-2.04,1.5-3.48
				c0.44-1.44,0.66-2.8,0.66-4.08c0-1.12-0.22-2.1-0.66-2.94c-0.44-0.84-1.3-1.26-2.58-1.26c-1.44,0-3.14,0.88-5.1,2.64
				c-1.96,1.76-3.82,4.04-5.58,6.84c-0.56,0.96-1.18,2.08-1.86,3.36C380.66,167.48,380.08,168.84,379.6,170.28z"/>
		</g>
		<g>
			<path class="st1" d="M406.84,192.36c-1.68,0-3.22-0.34-4.62-1.02c-1.4-0.68-2.54-1.86-3.42-3.54c-0.64-1.44-0.96-3-0.96-4.68
				c0-1.76,0.32-3.4,0.96-4.92c0.64-1.36,1.36-2.56,2.16-3.6c0.8-1.04,1.68-1.64,2.64-1.8c0.72-1.6,1.72-3.46,3-5.58
				c1.28-2.12,2.74-4.26,4.38-6.42c1.64-2.16,3.3-4.08,4.98-5.76c2.16-2.16,4.48-3.88,6.96-5.16c2.48-1.28,4.96-1.92,7.44-1.92
				c1.92,0,3.68,0.4,5.28,1.2c1.36,0.64,2.04,1.56,2.04,2.76c0,0.56-0.18,1.04-0.54,1.44c-0.36,0.4-0.74,0.6-1.14,0.6
				c-0.48,0-0.96-0.28-1.44-0.84c-0.88-1.12-2.36-1.96-4.44-2.52c-0.32-0.08-0.64-0.14-0.96-0.18c-0.32-0.04-0.64-0.06-0.96-0.06
				c-2.16,0-3.76,0.72-4.8,2.16c-1.04,1.44-1.56,3.2-1.56,5.28c0,2,0.44,4.3,1.32,6.9c0.88,2.6,1.32,5.5,1.32,8.7
				c0,2.56-0.52,5.16-1.56,7.8c-0.56,1.28-1.22,2.52-1.98,3.72c-0.76,1.2-1.7,2.28-2.82,3.24l-1.68,1.2
				c0.24,0.08,0.48,0.14,0.72,0.18c0.24,0.04,0.48,0.06,0.72,0.06c1.36,0,2.88-0.42,4.56-1.26c1.68-0.84,3.16-1.9,4.44-3.18
				c1.92-1.84,3.58-3.8,4.98-5.88c1.4-2.08,2.7-4.24,3.9-6.48c0.08-0.32,0.28-0.48,0.6-0.48c0.4,0,0.6,0.32,0.6,0.96
				c0,0.32-0.12,0.68-0.36,1.08c-1.2,2.24-2.66,4.58-4.38,7.02c-1.72,2.44-3.5,4.5-5.34,6.18c-1.44,1.28-2.98,2.22-4.62,2.82
				c-1.64,0.6-3.02,0.9-4.14,0.9c-0.8,0-1.44-0.08-1.92-0.24c-0.48-0.16-0.92-0.4-1.32-0.72c-1.12,0.56-2.38,1.04-3.78,1.44
				C409.7,192.16,408.28,192.36,406.84,192.36z M411.4,189.24c1.6-1.12,2.86-2.56,3.78-4.32c0.92-1.76,1.62-3.64,2.1-5.64
				c0.64-2.4,1.02-4.74,1.14-7.02c0.12-2.28,0.18-4.3,0.18-6.06v-3.72c0-1.68,0.22-3.42,0.66-5.22c0.44-1.8,1.06-3.14,1.86-4.02
				c-1.04,0.24-2.32,1.14-3.84,2.7c-1.52,1.56-3.04,3.38-4.56,5.46c-1.52,2.08-2.9,4.16-4.14,6.24c-1.24,2.08-2.18,3.8-2.82,5.16
				c1.52-0.08,2.56,0.34,3.12,1.26c0.56,0.92,0.72,1.58,0.48,1.98c-0.64-0.16-1.08-0.24-1.32-0.24c-1.2,0-2.32,0.44-3.36,1.32
				c-1.04,0.8-1.92,1.98-2.64,3.54c-0.72,1.56-1.08,3.06-1.08,4.5c0,1.92,0.56,3.32,1.68,4.2c1.12,0.88,2.44,1.32,3.96,1.32
				C408.36,190.68,409.96,190.2,411.4,189.24z"/>
		</g>
	</g>
	<g>
		<rect x="34.46" y="79.67" class="st2" width="419.08" height="2"/>
	</g>
	<g>
		<rect x="34.46" y="219.62" class="st2" width="419.08" height="2"/>
	</g>
	<g>
		<g>
			<path class="st1" d="M891.19,200.64c-6.24,0-11.42-1-15.54-3c-4.12-2-7.3-4.66-9.54-7.98c-2.24-3.32-3.68-6.94-4.32-10.86
				c-0.24-1.84-0.36-3.68-0.36-5.52c0-4.72,0.68-9.44,2.04-14.16c1.6-5.52,3.92-10.88,6.96-16.08c3.04-5.2,6.64-10.04,10.8-14.52
				c4.16-4.48,8.74-8.4,13.74-11.76c5-3.36,10.26-5.92,15.78-7.68c5.28-1.6,10.2-2.4,14.76-2.4c1.44,0,2.82,0.08,4.14,0.24
				c1.32,0.16,2.58,0.4,3.78,0.72c3.04,0.88,5.48,2.26,7.32,4.14c1.84,1.88,2.76,4.22,2.76,7.02c0,0.8-0.12,1.68-0.36,2.64
				c2.32,2.32,4,5.12,5.04,8.4c1.04,3.28,1.56,6.8,1.56,10.56c0,2.48-0.22,5-0.66,7.56c-0.44,2.56-1.06,5.12-1.86,7.68
				c-1.84,5.84-4.58,11.44-8.22,16.8c-3.64,5.36-7.94,10.16-12.9,14.4c-4.96,4.24-10.4,7.6-16.32,10.08
				C903.87,199.4,897.67,200.64,891.19,200.64z M891.31,198.96l0.36-0.12c6.08-0.08,11.8-1.52,17.16-4.32
				c5.36-2.8,10.22-6.48,14.58-11.04c4.36-4.56,8.1-9.58,11.22-15.06c3.12-5.48,5.48-10.9,7.08-16.26
				c1.36-4.56,2.04-9.12,2.04-13.68c0-2.32-0.22-4.6-0.66-6.84c-0.44-2.24-1.14-4.28-2.1-6.12c-0.8,0.96-1.64,1.6-2.52,1.92
				c-0.56,0.24-0.96,0.36-1.2,0.36c-0.32,0-0.46-0.12-0.42-0.36c0.04-0.24,0.22-0.48,0.54-0.72c0.96-0.8,1.68-1.96,2.16-3.48
				c-1.52-2.08-3.48-3.72-5.88-4.92c-2.4-1.2-5.36-1.8-8.88-1.8c-3.44,0-7.14,0.8-11.1,2.4c-3.96,1.6-7.82,3.92-11.58,6.96
				c-2.32,1.92-4.38,4.24-6.18,6.96c-1.8,2.72-3.18,5.46-4.14,8.22c-0.96,2.76-1.44,5.18-1.44,7.26c0,2.4,0.64,3.96,1.92,4.68
				c0.64,0.32,0.96,0.68,0.96,1.08c0,0.24-0.16,0.4-0.48,0.48c-0.32,0.08-0.68,0.04-1.08-0.12c-1.44-0.56-2.5-1.54-3.18-2.94
				c-0.68-1.4-1.02-3.06-1.02-4.98c0-3.28,0.92-6.96,2.76-11.04c1.84-4.08,4.32-7.48,7.44-10.2c4.08-3.52,8.52-6.18,13.32-7.98
				c4.8-1.8,9.44-2.7,13.92-2.7c3.28,0,6.16,0.4,8.64,1.2c2.48,0.8,4.68,1.84,6.6,3.12c-0.08-2.24-0.9-4.08-2.46-5.52
				c-1.56-1.44-3.5-2.52-5.82-3.24c-2.32-0.64-4.8-0.96-7.44-0.96c-1.76,0-3.68,0.16-5.76,0.48c-2.08,0.32-4.28,0.84-6.6,1.56
				c-3.12,0.96-6.32,2.58-9.6,4.86c-3.28,2.28-6.48,5-9.6,8.16c-3.12,3.16-6.04,6.54-8.76,10.14c-2.72,3.6-5.04,7.24-6.96,10.92
				c-2.08,3.84-3.86,8.38-5.34,13.62c-1.48,5.24-2.22,10.46-2.22,15.66c0,1.2,0.04,2.42,0.12,3.66c0.08,1.24,0.24,2.42,0.48,3.54
				c0.56,3.04,1.66,5.88,3.3,8.52c1.64,2.64,3.92,4.74,6.84,6.3C883.25,198.18,886.91,198.96,891.31,198.96z"/>
		</g>
		<g>
			<path class="st1" d="M961.15,193.32c-4.16,0-7.12-1.26-8.88-3.78c-1.76-2.52-2.64-5.5-2.64-8.94c0-3.76,0.8-7.56,2.4-11.4
				c1.2-2.88,2.76-5.58,4.68-8.1s4.22-4.58,6.9-6.18c2.68-1.6,5.62-2.4,8.82-2.4c2.4,0,4.26,0.56,5.58,1.68
				c1.32,1.12,1.98,2.68,1.98,4.68c0,0.64-0.06,1.32-0.18,2.04c-0.12,0.72-0.38,1.52-0.78,2.4c-0.56,1.44-1.28,2.72-2.16,3.84
				c-0.88,1.12-1.88,2-3,2.64c-0.56,0.32-1.2,0.48-1.92,0.48c-0.56,0-1.08-0.16-1.56-0.48c-0.48-0.32-0.72-0.84-0.72-1.56
				c0-1.28,0.7-2.66,2.1-4.14c1.4-1.48,3.22-2.26,5.46-2.34c0.4-1.04,0.6-1.96,0.6-2.76c0-1.28-0.4-2.38-1.2-3.3
				c-0.8-0.92-2.04-1.38-3.72-1.38c-2.08,0-4.12,0.78-6.12,2.34c-2,1.56-3.78,3.6-5.34,6.12c-1.56,2.52-2.82,5.18-3.78,7.98
				c-0.48,1.28-0.92,2.9-1.32,4.86c-0.4,1.96-0.6,3.9-0.6,5.82c0,2.48,0.54,4.7,1.62,6.66c1.08,1.96,3.14,2.94,6.18,2.94
				c2.16,0,4.2-0.62,6.12-1.86c1.92-1.24,3.66-2.78,5.22-4.62c1.56-1.84,2.96-3.74,4.2-5.7c1.24-1.96,2.26-3.7,3.06-5.22
				c0.08-0.32,0.28-0.48,0.6-0.48c0.4,0,0.6,0.32,0.6,0.96c0,0.32-0.12,0.68-0.36,1.08c-1.68,2.96-3.48,5.82-5.4,8.58
				c-1.92,2.76-4.2,5.04-6.84,6.84C968.11,192.42,964.91,193.32,961.15,193.32z"/>
		</g>
		<g>
			<path class="st1" d="M987.07,192.84c-2,0-3.78-0.58-5.34-1.74c-1.56-1.16-2.34-3.06-2.34-5.7c0-2.8,0.68-5.88,2.04-9.24
				c1.36-3.36,2.64-6.36,3.84-9c0.64-1.28,1.5-3.02,2.58-5.22c1.08-2.2,2.26-4.38,3.54-6.54h-5.64c-0.24,0-0.36-0.2-0.36-0.6
				c0-0.32,0.12-0.66,0.36-1.02c0.24-0.36,0.52-0.54,0.84-0.54c2.24,0,3.92-0.2,5.04-0.6c1.12-0.4,2.08-0.96,2.88-1.68
				c1.28-1.12,2.54-2.56,3.78-4.32c1.24-1.76,2.46-3.28,3.66-4.56c0.88-1.12,1.98-1.96,3.3-2.52c1.32-0.56,2.18-0.76,2.58-0.6
				c-0.4,0.56-1.04,1.52-1.92,2.88c-0.88,1.36-1.8,2.84-2.76,4.44c-0.96,1.6-1.84,3.08-2.64,4.44c-0.8,1.36-1.32,2.28-1.56,2.76
				h7.92c0.24,0,0.36,0.08,0.36,0.24c0,0.32-0.18,0.68-0.54,1.08c-0.36,0.4-0.7,0.6-1.02,0.6h-7.8c-1.44,2.48-3.14,5.7-5.1,9.66
				c-1.96,3.96-3.7,7.78-5.22,11.46c-0.32,0.72-0.86,2.16-1.62,4.32c-0.76,2.16-1.14,4.16-1.14,6c0,1.2,0.26,2.2,0.78,3
				c0.52,0.8,1.42,1.2,2.7,1.2c1.36,0,2.84-0.5,4.44-1.5c1.6-1,2.84-2.02,3.72-3.06c1.84-2,3.52-4.2,5.04-6.6
				c1.52-2.4,3.04-4.96,4.56-7.68c0.24-0.32,0.48-0.48,0.72-0.48c0.32,0,0.48,0.24,0.48,0.72c0,0.4-0.08,0.72-0.24,0.96
				c-1.44,2.64-2.98,5.28-4.62,7.92c-1.64,2.64-3.62,5.12-5.94,7.44c-1.04,1.04-2.44,1.98-4.2,2.82
				C990.47,192.42,988.75,192.84,987.07,192.84z"/>
		</g>
		<g>
			<path class="st1" d="M1009.03,192.72c-2.48,0-4.26-0.72-5.34-2.16s-1.62-3.2-1.62-5.28c0-2.64,0.54-5.52,1.62-8.64
				c1.08-3.12,2.34-6.1,3.78-8.94c1.44-2.84,2.6-5.06,3.48-6.66c1.76-2.96,3.54-4.8,5.34-5.52c1.8-0.72,4.02-1.08,6.66-1.08
				c-0.8,0.24-1.84,1.18-3.12,2.82c-1.28,1.64-2.62,3.66-4.02,6.06c-1.4,2.4-2.72,4.98-3.96,7.74c-1.24,2.76-2.24,5.44-3,8.04
				c-0.76,2.6-1.14,4.82-1.14,6.66c0,1.36,0.26,2.48,0.78,3.36c0.52,0.88,1.34,1.32,2.46,1.32c0.96,0,2.08-0.38,3.36-1.14
				c1.28-0.76,2.44-1.7,3.48-2.82c3.52-3.92,6.38-8.22,8.58-12.9c2.2-4.68,4.66-9.34,7.38-13.98c1.76-2.96,3.54-4.8,5.34-5.52
				c1.8-0.72,4.02-1.08,6.66-1.08c-0.8,0.24-1.88,1.22-3.24,2.94c-1.36,1.72-2.78,3.86-4.26,6.42c-1.48,2.56-2.86,5.3-4.14,8.22
				c-1.28,2.92-2.34,5.74-3.18,8.46c-0.84,2.72-1.26,5.04-1.26,6.96c0,1.28,0.26,2.34,0.78,3.18c0.52,0.84,1.3,1.26,2.34,1.26
				c0.96,0,2.08-0.4,3.36-1.2c1.28-0.8,2.44-1.72,3.48-2.76c1.84-2,3.52-4.2,5.04-6.6c1.52-2.4,3.04-4.96,4.56-7.68
				c0.24-0.32,0.44-0.48,0.6-0.48c0.32,0,0.48,0.24,0.48,0.72c0,0.4-0.08,0.72-0.24,0.96c-1.44,2.64-2.96,5.28-4.56,7.92
				c-1.6,2.64-3.56,5.12-5.88,7.44c-1.28,1.28-2.78,2.34-4.5,3.18c-1.72,0.84-3.42,1.1-5.1,0.78c-2.24-0.4-3.84-1.3-4.8-2.7
				c-0.96-1.4-1.44-3.1-1.44-5.1c0-1.6,0.24-3.28,0.72-5.04c-0.96,1.52-1.98,3.04-3.06,4.56c-1.08,1.52-2.3,2.96-3.66,4.32
				c-1.12,1.12-2.46,2.06-4.02,2.82C1012.21,192.34,1010.63,192.72,1009.03,192.72z"/>
		</g>
		<g>
			<path class="st1" d="M1052.35,193.56c-2.56,0-4.38-0.76-5.46-2.28c-1.08-1.52-1.62-3.36-1.62-5.52c0-1.6,0.24-3.16,0.72-4.68
				c0.48-1.76,1.32-4.16,2.52-7.2c1.2-3.04,2.54-6.34,4.02-9.9c1.48-3.56,2.98-6.98,4.5-10.26c0.64-1.44,1.38-3.06,2.22-4.86
				c0.84-1.8,1.68-3.58,2.52-5.34c0.84-1.76,1.54-3.2,2.1-4.32c1.44-2.8,3.16-6.12,5.16-9.96c2-3.84,4.3-7.66,6.9-11.46
				c2.6-3.8,5.5-7.06,8.7-9.78c3.2-2.72,6.68-4.36,10.44-4.92c0.32-0.08,0.72-0.12,1.2-0.12c1.84,0,3.22,0.56,4.14,1.68
				c0.92,1.12,1.38,2.48,1.38,4.08c0,1.44-0.28,2.76-0.84,3.96c-1.28,2.88-3.3,5.92-6.06,9.12c-2.76,3.2-5.72,6.3-8.88,9.3
				c-3.16,3-5.98,5.7-8.46,8.1c-2.08,2-3.92,3.74-5.52,5.22c-1.6,1.48-3.08,2.94-4.44,4.38c-1.36,1.44-2.84,3.04-4.44,4.8
				c-0.88,2-1.74,4.02-2.58,6.06c-0.84,2.04-1.3,3.22-1.38,3.54c2.24-3.04,4.7-5.7,7.38-7.98c2.68-2.28,5.14-3.42,7.38-3.42
				c2.64,0,4.46,0.68,5.46,2.04c1,1.36,1.5,3.08,1.5,5.16c0,1.92-0.32,3.96-0.96,6.12c-0.64,2.16-1.38,4.22-2.22,6.18
				c-0.84,1.96-1.66,3.62-2.46,4.98c-0.8,1.28-1.7,2.62-2.7,4.02c-1,1.4-2.1,2.74-3.3,4.02c0.32,1.04,0.84,1.8,1.56,2.28
				s1.56,0.72,2.52,0.72c1.12,0,2.28-0.26,3.48-0.78c1.2-0.52,2.24-1.14,3.12-1.86c1.84-1.52,3.52-3.32,5.04-5.4
				c1.52-2.08,2.92-4.24,4.2-6.48c0.08-0.16,0.16-0.24,0.24-0.24c0.16,0,0.24,0.36,0.24,1.08c0,0.32,0,0.62,0,0.9
				c0,0.28-0.08,0.54-0.24,0.78c-1.36,2.4-2.76,4.54-4.2,6.42c-1.44,1.88-3.2,3.54-5.28,4.98c-2.16,1.52-4.48,2.28-6.96,2.28
				c-1.12,0-2.16-0.24-3.12-0.72s-1.64-1.28-2.04-2.4c-2.24,2.16-4.66,3.98-7.26,5.46C1057.97,192.82,1055.23,193.56,1052.35,193.56
				z M1057.51,189.6c1.76-1.2,3.44-2.84,5.04-4.92c1.6-2.08,3.02-4.16,4.26-6.24c1.24-2.08,2.18-3.72,2.82-4.92
				c0.48-0.88,1.14-2.26,1.98-4.14c0.84-1.88,1.62-3.9,2.34-6.06c0.72-2.16,1.08-4.04,1.08-5.64c0-1.12-0.22-2.02-0.66-2.7
				c-0.44-0.68-1.22-1.02-2.34-1.02c-1.04,0-2.26,0.58-3.66,1.74c-1.4,1.16-2.78,2.62-4.14,4.38c-1.68,2.08-3.52,4.58-5.52,7.5
				c-2,2.92-3.82,5.94-5.46,9.06c-1.64,3.12-2.86,5.96-3.66,8.52c-0.24,0.96-0.36,1.8-0.36,2.52c0,1.28,0.34,2.2,1.02,2.76
				c0.68,0.56,1.5,0.84,2.46,0.84C1054.31,191.28,1055.91,190.73,1057.51,189.6z M1065.07,149.4c1.84-2.08,3.56-3.94,5.16-5.58
				c1.6-1.64,3.56-3.66,5.88-6.06c2.24-2.24,4.82-4.88,7.74-7.92c2.92-3.04,5.68-6.12,8.28-9.24c2.6-3.12,4.5-5.88,5.7-8.28
				c0.96-1.92,1.44-3.48,1.44-4.68c0-2.32-1.36-3.28-4.08-2.88c-2.64,0.32-5.18,1.64-7.62,3.96c-2.44,2.32-4.76,5.22-6.96,8.7
				c-2.2,3.48-4.26,7.18-6.18,11.1c-1.92,3.92-3.66,7.72-5.22,11.4C1067.65,143.6,1066.27,146.76,1065.07,149.4z"/>
		</g>
		<g>
			<path class="st1" d="M1112.11,189.84c-1.36,1.12-2.7,1.94-4.02,2.46c-1.32,0.52-2.54,0.78-3.66,0.78c-2,0-3.66-0.7-4.98-2.1
				s-1.98-3.26-1.98-5.58c0-1.36,0.32-3,0.96-4.92c1.04-2.88,2.6-5.64,4.68-8.28c2.08-2.64,4.08-5.32,6-8.04
				c1.2-1.6,1.8-3.16,1.8-4.68c0-0.8-0.22-1.48-0.66-2.04c-0.44-0.56-1.22-0.88-2.34-0.96c-0.64-0.16-1.36-0.24-2.16-0.24
				c-0.8,0-1.6,0-2.4,0h-3.36c-0.48,0-0.92,0-1.32,0c-0.4,0-0.76-0.04-1.08-0.12c-0.32,2-0.98,4.24-1.98,6.72
				c-1,2.48-2.14,4.96-3.42,7.44c-1.28,2.48-2.52,4.72-3.72,6.72c-0.32,0.48-0.6,0.72-0.84,0.72c-0.24,0-0.36-0.24-0.36-0.72
				c0-0.56,0.12-1,0.36-1.32c1.68-3.28,3.3-6.5,4.86-9.66c1.56-3.16,2.62-6.46,3.18-9.9c-1.84-1.04-3.08-2.84-3.72-5.4
				c-0.08-0.4-0.14-0.78-0.18-1.14c-0.04-0.36-0.06-0.7-0.06-1.02c0-1.44,0.3-2.66,0.9-3.66c0.6-1,1.3-1.5,2.1-1.5
				c1.12,0,2.04,1.08,2.76,3.24c0.16,0.56,0.28,1.18,0.36,1.86c0.08,0.68,0.12,1.34,0.12,1.98c0,0.72-0.02,1.38-0.06,1.98
				c-0.04,0.6-0.1,1.1-0.18,1.5c0.56,0.16,1.3,0.28,2.22,0.36c0.92,0.08,1.94,0.12,3.06,0.12c1.68,0,3.44-0.06,5.28-0.18
				c1.84-0.12,3.4-0.18,4.68-0.18c1.52,0,2.56,0.32,3.12,0.96c0.56,0.64,0.84,1.44,0.84,2.4c0,1.2-0.3,2.5-0.9,3.9
				c-0.6,1.4-1.18,2.58-1.74,3.54c-1.04,1.92-2.02,3.62-2.94,5.1c-0.92,1.48-1.94,3.06-3.06,4.74c-1.68,2.56-2.9,4.9-3.66,7.02
				c-0.76,2.12-1.14,3.9-1.14,5.34c0,2.48,0.92,3.72,2.76,3.72c1.52,0,3.48-1.08,5.88-3.24c1.52-1.36,2.94-2.98,4.26-4.86
				c1.32-1.88,2.52-3.8,3.6-5.76c1.08-1.96,1.98-3.58,2.7-4.86c0.16-0.24,0.32-0.36,0.48-0.36c0.32,0,0.48,0.32,0.48,0.96
				c0,0.48-0.12,0.92-0.36,1.32c-1.36,2.48-2.92,5.2-4.68,8.16C1116.83,185.12,1114.67,187.68,1112.11,189.84z"/>
		</g>
		<g>
			<path class="st1" d="M1135.87,193.08c-4.56,0-8.1-1.24-10.62-3.72c-2.52-2.48-3.78-5.8-3.78-9.96c0-1.44,0.16-2.98,0.48-4.62
				c0.32-1.64,0.84-3.34,1.56-5.1c1.12-2.64,2.56-5.24,4.32-7.8c1.76-2.56,3.88-4.72,6.36-6.48c2.48-1.76,5.24-2.76,8.28-3
				c1.12-0.08,2.16,0,3.12,0.24c0.96,0.24,1.8,0.72,2.52,1.44c0.64,0.56,1.1,1.26,1.38,2.1c0.28,0.84,0.42,1.7,0.42,2.58
				c0,2.48-0.76,4.98-2.28,7.5c-1.52,2.52-3.44,4.62-5.76,6.3c-2.32,1.68-4.72,2.52-7.2,2.52c-2.24,0-4.2-0.8-5.88-2.4
				c-0.72,2.48-1.08,4.96-1.08,7.44c0,3.04,0.7,5.62,2.1,7.74c1.4,2.12,3.82,3.18,7.26,3.18c3.44,0,6.42-0.92,8.94-2.76
				c2.52-1.84,4.72-4.14,6.6-6.9c1.88-2.76,3.54-5.42,4.98-7.98c0.16-0.24,0.32-0.36,0.48-0.36c0.32,0,0.48,0.32,0.48,0.96
				c0,0.4-0.12,0.84-0.36,1.32c-1.52,2.72-3.26,5.44-5.22,8.16c-1.96,2.72-4.32,5-7.08,6.84
				C1143.13,192.16,1139.79,193.08,1135.87,193.08z M1129.39,170.88c0.56,0.8,1.22,1.38,1.98,1.74c0.76,0.36,1.54,0.54,2.34,0.54
				c1.92,0,3.92-0.74,6-2.22c2.08-1.48,3.76-3.22,5.04-5.22c0.56-0.88,1.06-2.04,1.5-3.48c0.44-1.44,0.66-2.8,0.66-4.08
				c0-1.12-0.22-2.1-0.66-2.94c-0.44-0.84-1.3-1.26-2.58-1.26c-1.44,0-3.14,0.88-5.1,2.64c-1.96,1.76-3.82,4.04-5.58,6.84
				c-0.56,0.96-1.18,2.08-1.86,3.36C1130.45,168.08,1129.87,169.44,1129.39,170.88z"/>
		</g>
	</g>
	<g>
		<rect x="800.46" y="79.67" class="st2" width="419.08" height="2"/>
	</g>
	<g>
		<rect x="800.46" y="219.62" class="st2" width="419.08" height="2"/>
	</g>
</g>
</svg>
