<?xml version="1.0" encoding="utf-8"?>
<!-- Generator: Adobe Illustrator 28.3.0, SVG Export Plug-In . SVG Version: 6.00 Build 0)  -->
<svg version="1.1" id="Capa_1" xmlns="http://www.w3.org/2000/svg" xmlns:xlink="http://www.w3.org/1999/xlink" x="0px" y="0px"
	 viewBox="0 0 1254 410" style="enable-background:new 0 0 1254 410;" xml:space="preserve">
<style type="text/css">
	.st0{fill:#4D4D4D;}
	.st1{fill:#808080;}
	.st2{fill:#E4C9B6;}
</style>
<g>
	<g>
		<g>
			<path class="st0" d="M487,231.9c-2-1.2-3-3.2-3-6c0-3,0.9-6.3,2.9-10c1.9-3.7,3.5-6.3,4.6-8c3-4,7.4-8.2,13.2-12.8
				c5.8-4.5,11.5-8.3,17.1-11.5c8.6-5,18.1-10,28.5-15c10.4-5,20.5-10.5,30.3-16.5c9.8-6,17.9-13,24.3-21c4-4.8,7.2-10.4,9.8-16.6
				c2.5-6.3,3.8-13.1,3.8-20.6c0-6.8-1.7-12.3-5-16.5c-3.3-4.2-7.6-7.3-12.8-9.3c-5.2-2-10.7-3-16.5-3c-8.4,0-16.8,2.2-25.2,6.6
				c-6.4,3.4-11.5,7.9-15.4,13.4c-3.9,5.5-6.5,11.8-7.7,18.8c-0.2,0.6-0.3,1.3-0.3,1.9c0,0.7,0,1.5,0,2.2c0,6,1.3,10.8,3.9,14.4
				c0,0.2,0,0.3,0.1,0.3c0.1,0,0.2,0.1,0.2,0.3c0,0.2-0.4,0.3-1.2,0.3c-1.6,0-3-0.3-4.2-0.9c-3.2-1-6-3.6-8.2-7.8
				c-2.3-4.2-3.3-8.2-2.8-12c1-8.8,4.6-16.2,10.9-22.4c6.3-6.1,13.4-10.7,21.1-13.9c11.4-4.6,22.8-6.9,34.2-6.9
				c8.8,0,17.2,1.2,25.2,3.5c8,2.3,14.5,6.1,19.5,11.2c5,5.2,7.5,12.2,7.5,21c0,9-2.1,17.2-6.3,24.6c-4.2,7.4-9.7,14-16.5,19.8
				c-8.2,7-17.9,13.3-29.1,18.9c-11.2,5.6-22.6,11-34,16.1c-11.5,5.1-22,10.5-31.4,16.1c-1.6,0.8-3.9,2.3-6.8,4.5
				c-2.9,2.2-5.5,4.6-7.9,7c-2.4,2.5-3.6,5-3.6,7.3c0,1.4,0.6,2.7,1.8,3.8c1.2,1.1,3.3,2.1,6.3,2.9c5.6,1.4,10.6,2.6,15.1,3.6
				c4.5,1,9.1,1.8,13.9,2.4c4.8,0.6,10.4,0.9,16.8,0.9c3.6,0,7.9-0.4,12.9-1.2c5-0.8,10.1-2.2,15.3-4.2c5.2-2,9.8-4.6,13.8-7.8
				c4-3.2,6.8-7.2,8.4-12c0.6-1.8,0.9-3.7,0.9-5.7c0-1.8-0.4-3.6-1-5.4c-0.7-1.8-2-3.4-3.8-4.8c-0.4-0.4-0.6-0.9-0.6-1.5
				c0-0.8,0.6-1.2,1.8-1.2c1.2,0,2.8,0.8,4.8,2.4c6.8,5.4,9.6,12.6,8.4,21.6c-1,8.2-3.9,14.5-8.7,19c-4.8,4.5-10.8,7.7-17.9,9.5
				c-7.1,1.8-14.5,2.7-22.1,2.7c-6.4,0-12.7-0.5-18.9-1.4c-6.2-0.9-11.6-1.9-16.2-2.8c-4.6-1-9.7-2.2-15.3-3.6
				c-5.6-1.4-11-2.1-16.2-2.1c-4.4,0-8.3,0.7-11.7,2.1c-1.2,0.4-2.6,1.1-4.1,2.1S487.6,230.7,487,231.9z"/>
		</g>
		<g>
			<path class="st0" d="M657.4,231.6c-7.2-1.6-12.9-4.2-17.1-8c-4.2-3.7-6.3-8.3-6.3-14c0-2,0.3-4,0.9-6c0.6-2.2,2-4.6,4.2-7.3
				c2.2-2.7,5.5-3.9,9.9-3.8c-0.6,1.4-1,3-1.3,4.8s-0.7,3.5-1.1,5.1c-0.2,0.6-0.3,1.2-0.3,1.8c0,0.6,0,1.1,0,1.5
				c0,5.2,1.8,9.6,5.4,13c3.6,3.5,8.2,6.1,13.9,7.7c5.7,1.6,11.4,2.4,17.2,2.4c8,0,15.9-1.4,23.7-4.2c7.8-2.8,14.9-6.8,21.5-12
				c6.5-5.2,11.7-11.4,15.6-18.8c3.9-7.3,5.8-15.4,5.8-24.4c0-8-1.9-14.2-5.8-18.6c-3.9-4.4-8.9-7.5-15-9.3
				c-6.1-1.8-12.4-2.7-18.8-2.7c-3.2,0-7.1,0.1-11.7,0.3c-4.6,0.2-8.2,0.3-10.8,0.3c-2.6,0-3.9-0.8-3.9-2.4c0-1,0.7-2,2.1-3.1
				c1.4-1.1,3.5-1.6,6.3-1.6c5,0,10.8-0.2,17.4-0.8c6.6-0.5,12.7-1.7,18.3-3.8c5.2-1.8,10.3-4.7,15.3-8.6c5-3.9,9.1-8.5,12.3-13.8
				c3.2-5.3,4.8-11,4.8-17c0-6.4-2.4-11.4-7.2-15c-4.8-3.6-11.5-5.5-20.1-5.7c-14.4,0-26.5,4.6-36.3,13.8c-6.4,6-9.6,12.4-9.6,19.2
				c0,1,0.2,1.9,0.4,2.8c0.3,0.9,0.5,1.9,0.8,2.9c-4.2,0.2-7.3-0.7-9.3-2.7c-2-2-3-4.6-3-7.8c0-3.2,0.9-6.4,2.7-9.6
				c3.4-6,8.6-10.8,15.4-14.4c6.9-3.6,14.2-6.2,22.1-7.8c7.8-1.6,14.9-2.4,21.3-2.4c8.6,0,16.9,1.5,24.9,4.5c8,3,13.3,8.3,15.9,15.9
				c1,2.6,1.5,5.3,1.5,8.1c0,2.4-0.5,5.3-1.5,8.7c-1.6,6-4.9,11.4-10,16.1c-5.1,4.7-10.8,8.7-17,11.8c-6.2,3.2-11.8,5.6-16.8,7.2
				c14,1.4,23.7,5.4,29.1,12s8.1,13.9,8.1,21.9c0,4-0.6,7.9-1.7,11.7c-1.1,3.8-2.5,7.4-4,10.8c-5,9.8-11.9,18-20.6,24.4
				c-8.7,6.5-18.4,11.4-29.1,14.7c-10.7,3.3-21.7,5-32.8,5c-4.4,0-8.8-0.3-13.1-0.8C665.8,233.4,661.6,232.6,657.4,231.6z"/>
		</g>
	</g>
	<g>
		<g>
			<path class="st1" d="M505.8,349.6c-0.8-0.5-1.2-1.3-1.2-2.4c0-1.2,0.4-2.5,1.1-4c0.8-1.5,1.4-2.5,1.9-3.2c1.2-1.6,3-3.3,5.3-5.1
				c2.3-1.8,4.6-3.3,6.8-4.6c3.4-2,7.2-4,11.4-6c4.2-2,8.2-4.2,12.1-6.6c3.9-2.4,7.2-5.2,9.7-8.4c1.6-1.9,2.9-4.1,3.9-6.7
				c1-2.5,1.5-5.3,1.5-8.2c0-2.7-0.7-4.9-2-6.6c-1.3-1.7-3-2.9-5.1-3.7c-2.1-0.8-4.3-1.2-6.6-1.2c-3.4,0-6.7,0.9-10.1,2.6
				c-2.6,1.4-4.6,3.1-6.2,5.3c-1.6,2.2-2.6,4.7-3.1,7.5c-0.1,0.2-0.1,0.5-0.1,0.8c0,0.3,0,0.6,0,0.9c0,2.4,0.5,4.3,1.6,5.8
				c0,0.1,0,0.1,0.1,0.1c0,0,0.1,0,0.1,0.1c0,0.1-0.2,0.1-0.5,0.1c-0.6,0-1.2-0.1-1.7-0.4c-1.3-0.4-2.4-1.4-3.3-3.1
				c-0.9-1.7-1.3-3.3-1.1-4.8c0.4-3.5,1.9-6.5,4.4-8.9c2.5-2.4,5.3-4.3,8.5-5.6c4.6-1.8,9.1-2.8,13.7-2.8c3.5,0,6.9,0.5,10.1,1.4
				c3.2,0.9,5.8,2.4,7.8,4.5c2,2.1,3,4.9,3,8.4c0,3.6-0.8,6.9-2.5,9.8c-1.7,3-3.9,5.6-6.6,7.9c-3.3,2.8-7.2,5.3-11.6,7.6
				c-4.5,2.2-9,4.4-13.6,6.4c-4.6,2-8.8,4.2-12.5,6.4c-0.6,0.3-1.5,0.9-2.7,1.8c-1.2,0.9-2.2,1.8-3.2,2.8s-1.4,2-1.4,2.9
				c0,0.6,0.2,1.1,0.7,1.5c0.5,0.4,1.3,0.8,2.5,1.1c2.2,0.6,4.3,1,6.1,1.4c1.8,0.4,3.7,0.7,5.6,1c1.9,0.2,4.2,0.4,6.7,0.4
				c1.4,0,3.2-0.2,5.2-0.5c2-0.3,4-0.9,6.1-1.7c2.1-0.8,3.9-1.8,5.5-3.1c1.6-1.3,2.7-2.9,3.4-4.8c0.2-0.7,0.4-1.5,0.4-2.3
				c0-0.7-0.1-1.4-0.4-2.2c-0.3-0.7-0.8-1.4-1.5-1.9c-0.2-0.2-0.2-0.4-0.2-0.6c0-0.3,0.2-0.5,0.7-0.5s1.1,0.3,1.9,1
				c2.7,2.2,3.8,5,3.4,8.6c-0.4,3.3-1.6,5.8-3.5,7.6c-1.9,1.8-4.3,3.1-7.1,3.8c-2.8,0.7-5.8,1.1-8.8,1.1c-2.6,0-5.1-0.2-7.6-0.5
				c-2.5-0.4-4.6-0.7-6.5-1.1c-1.8-0.4-3.9-0.9-6.1-1.4c-2.2-0.6-4.4-0.8-6.5-0.8c-1.8,0-3.3,0.3-4.7,0.8c-0.5,0.2-1,0.4-1.6,0.8
				C506.5,348.7,506,349.1,505.8,349.6z"/>
		</g>
		<g>
			<path class="st1" d="M594.6,349.5c-4.6,0-8.4-0.8-11.5-2.3c-3.1-1.6-5.5-3.6-7.1-6.1c-1.7-2.5-2.7-5.2-3.1-8
				c-0.1-0.6-0.1-1.3-0.2-2c0-0.7-0.1-1.3-0.1-2c0-1.8,0.1-3.7,0.4-5.5c0.3-1.8,0.7-3.6,1.1-5.3c1.4-4.8,3.6-9.5,6.6-14.2
				c3-4.7,6.7-8.9,10.9-12.7c4.2-3.8,8.8-6.8,13.7-9c5-2.2,10-3.4,15.2-3.4c4.6,0,8.5,0.8,11.5,2.3c3,1.5,5.3,3.5,7,6.1
				c1.7,2.5,2.7,5.3,3.1,8.2c0.2,1.4,0.4,2.9,0.4,4.4c0,1.7-0.1,3.4-0.4,5.1c-0.3,1.7-0.7,3.4-1.1,5.1c-1.4,4.8-3.6,9.5-6.6,14.2
				c-3,4.6-6.7,8.9-10.9,12.7c-4.2,3.8-8.8,6.8-13.7,9.1C604.9,348.4,599.8,349.5,594.6,349.5z M595.9,346.9c5.2,0,9.9-1.3,14.2-3.9
				c4.2-2.6,8-5.9,11.2-10c3.2-4,5.8-8.1,7.9-12.3c1.4-2.9,2.7-6.3,3.7-10.1c1-3.9,1.6-7.7,1.6-11.3c0-0.9,0-1.8-0.1-2.7
				c-0.1-0.9-0.2-1.8-0.4-2.6c-0.6-3.3-1.8-6.2-3.8-8.6c-2-2.5-5.4-3.7-10.1-3.7c-5,0-9.7,1.3-14,4c-4.3,2.6-8.1,6-11.5,10
				c-3.3,4-6.1,8.1-8.3,12.4c-1.5,2.8-2.8,6.1-3.8,9.9c-1,3.8-1.6,7.6-1.6,11.3c0,0.9,0,1.8,0.1,2.6c0.1,0.9,0.2,1.8,0.4,2.6
				c0.6,3.3,2.1,6.2,4.3,8.7C587.8,345.6,591.3,346.9,595.9,346.9z"/>
		</g>
		<g>
			<path class="st1" d="M638.9,349.6c-0.8-0.5-1.2-1.3-1.2-2.4c0-1.2,0.4-2.5,1.1-4c0.8-1.5,1.4-2.5,1.9-3.2c1.2-1.6,3-3.3,5.3-5.1
				c2.3-1.8,4.6-3.3,6.8-4.6c3.4-2,7.2-4,11.4-6c4.2-2,8.2-4.2,12.1-6.6c3.9-2.4,7.2-5.2,9.7-8.4c1.6-1.9,2.9-4.1,3.9-6.7
				c1-2.5,1.5-5.3,1.5-8.2c0-2.7-0.7-4.9-2-6.6c-1.3-1.7-3-2.9-5.1-3.7c-2.1-0.8-4.3-1.2-6.6-1.2c-3.4,0-6.7,0.9-10.1,2.6
				c-2.6,1.4-4.6,3.1-6.2,5.3c-1.6,2.2-2.6,4.7-3.1,7.5c-0.1,0.2-0.1,0.5-0.1,0.8c0,0.3,0,0.6,0,0.9c0,2.4,0.5,4.3,1.6,5.8
				c0,0.1,0,0.1,0.1,0.1c0,0,0.1,0,0.1,0.1c0,0.1-0.2,0.1-0.5,0.1c-0.6,0-1.2-0.1-1.7-0.4c-1.3-0.4-2.4-1.4-3.3-3.1
				c-0.9-1.7-1.3-3.3-1.1-4.8c0.4-3.5,1.9-6.5,4.4-8.9c2.5-2.4,5.3-4.3,8.5-5.6c4.6-1.8,9.1-2.8,13.7-2.8c3.5,0,6.9,0.5,10.1,1.4
				c3.2,0.9,5.8,2.4,7.8,4.5c2,2.1,3,4.9,3,8.4c0,3.6-0.8,6.9-2.5,9.8c-1.7,3-3.9,5.6-6.6,7.9c-3.3,2.8-7.2,5.3-11.6,7.6
				c-4.5,2.2-9,4.4-13.6,6.4c-4.6,2-8.8,4.2-12.5,6.4c-0.6,0.3-1.5,0.9-2.7,1.8c-1.2,0.9-2.2,1.8-3.2,2.8c-1,1-1.4,2-1.4,2.9
				c0,0.6,0.2,1.1,0.7,1.5c0.5,0.4,1.3,0.8,2.5,1.1c2.2,0.6,4.3,1,6.1,1.4c1.8,0.4,3.7,0.7,5.6,1c1.9,0.2,4.2,0.4,6.7,0.4
				c1.4,0,3.2-0.2,5.2-0.5c2-0.3,4-0.9,6.1-1.7c2.1-0.8,3.9-1.8,5.5-3.1c1.6-1.3,2.7-2.9,3.4-4.8c0.2-0.7,0.4-1.5,0.4-2.3
				c0-0.7-0.1-1.4-0.4-2.2c-0.3-0.7-0.8-1.4-1.5-1.9c-0.2-0.2-0.2-0.4-0.2-0.6c0-0.3,0.2-0.5,0.7-0.5c0.5,0,1.1,0.3,1.9,1
				c2.7,2.2,3.8,5,3.4,8.6c-0.4,3.3-1.6,5.8-3.5,7.6c-1.9,1.8-4.3,3.1-7.1,3.8c-2.8,0.7-5.8,1.1-8.8,1.1c-2.6,0-5.1-0.2-7.6-0.5
				c-2.5-0.4-4.6-0.7-6.5-1.1c-1.8-0.4-3.9-0.9-6.1-1.4c-2.2-0.6-4.4-0.8-6.5-0.8c-1.8,0-3.3,0.3-4.7,0.8c-0.5,0.2-1,0.4-1.6,0.8
				C639.5,348.7,639.1,349.1,638.9,349.6z"/>
		</g>
		<g>
			<path class="st1" d="M711.4,348.3c-0.4,0-0.6-0.3-0.6-0.8c0-0.4,0.1-0.8,0.3-1.1c0.2-0.4,0.5-0.5,0.9-0.5h6.7
				c2.1,0,3.8-0.7,5.3-2c1.4-1.3,2.7-3.2,3.7-5.6l5.5-12.1h-24.8c-0.8,0-1.6,0-2.3,0.1c-0.8,0-1.4,0.1-2,0.1c-1.4,0-2-0.2-2-0.7
				c0-0.4,0.5-1.1,1.4-2c0.9-1,2.5-2.3,4.6-4.1l40.6-34.8c0.6-0.5,1.1-0.9,1.6-1.4c0.5-0.4,1.5-0.8,2.9-1.1c1.4-0.3,3.8-0.5,7-0.5
				L742,321.9h10.2c-0.7,1.3-1.8,2.3-3.2,3.1c-1.4,0.8-2.7,1.1-3.8,1.1h-4.8l-5.6,12.5c-0.5,1.1-0.9,2.1-1.1,2.9
				c-0.3,0.8-0.4,1.5-0.4,2.1c0,1.4,1.2,2.2,3.6,2.2h7.1c0.4,0,0.6,0.2,0.6,0.7c0,0.3-0.1,0.7-0.4,1.1c-0.2,0.4-0.5,0.7-0.8,0.7
				H711.4z M709.9,321.9h25.2l15.7-34.8L709.9,321.9z"/>
		</g>
	</g>
	<g>
		<g>
			<path class="st1" d="M56.5,206.8c-0.9,0-2.1-0.1-3.7-0.3c-1.6-0.2-3-0.7-4.3-1.5c-1.3-0.8-1.9-2-1.9-3.6c0-0.9,0.2-1.7,0.7-2.4
				c0.4-0.4,0.7-0.6,1-0.7c0.3,0,0.4,0.1,0.3,0.5c-0.3,1.2,0.1,2.3,1.1,3.4s2.2,1.8,3.3,2.1c1.3,0.3,2.6,0.5,4.1,0.5
				c3.3,0,6.3-0.8,9-2.5c2.7-1.6,5.2-3.7,7.4-6.2c2.2-2.5,4.2-5.1,5.9-7.6c4.1-6,7.8-12.2,11-18.5c3.3-6.4,6.6-12.7,10-19
				c3.4-6.3,7.1-12.4,11.3-18.2c1.4-1.9,3-4.1,5-6.5c2-2.4,4.2-4.8,6.6-7c2.4-2.2,4.9-4,7.4-5.3c-1,0-1.9,0-2.6-0.1
				c-0.7-0.1-1.9-0.2-3.6-0.2c-3.1-0.2-6.7-0.4-10.8-0.4c-2.2,0-4.4,0-6.5,0.1c-2.1,0-4.1,0.1-5.9,0.3c-6.6,0.4-13.1,1.6-19.6,3.7
				c-6.5,2.1-12.1,5.2-16.7,9.5c-2.7,2.5-5,5.3-6.7,8.4c-1.8,3.1-2.6,6.2-2.6,9.2c0,3.4,0.9,5.9,2.8,7.4c1.9,1.5,4.1,2.2,6.7,2.2
				c2,0,4-0.4,6-1.1c3.9-1.4,7.1-3.8,9.7-7.3s3.6-7.4,3.3-11.7c-0.1-0.7-0.2-1.4-0.5-2.2c-0.2-0.7-0.6-1.2-1-1.4
				c-0.3-0.2-0.5-0.5-0.4-0.7c0-0.2,0.3-0.4,0.7-0.4c1.8,0.2,3,1.1,3.7,2.9c0.7,1.8,1,3.5,1,5.1c0,2.5-0.6,4.9-1.9,7.1
				c-1.3,2.3-2.9,4.3-5,6c-2,1.7-4.2,3-6.5,3.9c-2.5,1-5.1,1.4-7.9,1.4c-3.7,0-6.9-1-9.7-3.1c-2.8-2.1-4.1-5.5-4.1-10.2
				c0-3.5,0.9-6.8,2.6-10c1.7-3.1,3.8-5.9,6.3-8.4c5.4-5.3,11.6-8.9,18.7-10.8s14.3-2.9,21.7-2.9c5.8,0,11.5,0.3,17.3,0.9
				c5.8,0.6,11.5,0.9,17.2,0.9h3.1c0.4,0.1,0.8,0.2,1.1,0.4c0.4,0.2,0.5,0.5,0.3,0.9c0,0.5-0.3,0.7-0.8,0.7c-1.1,0-2,0.2-2.6,0.5
				c-1.7,0.6-3.1,1.6-4.3,3.1c-1.2,1.5-2.4,3.3-3.5,5.3c-1.5,2.7-2.4,5.9-2.7,9.5c-0.3,3.6-0.5,7-0.5,10c-0.1,4.2-0.2,8.6-0.4,13.2
				c-0.2,4.6-0.9,9-2.1,13.4c-0.9,3.4-2.2,6.7-3.9,9.7c-1.7,3-3.9,5.8-6.7,8.3c2.1-0.8,4.2-2.3,6.2-4.6c2.1-2.2,4.1-4.7,5.9-7.3
				c1.9-2.6,3.4-4.9,4.6-6.7c3.4-5.3,7.1-11.1,10.9-17.4c3.8-6.3,7.8-12.6,11.9-18.8c4.2-6.2,8.5-11.7,13-16.5
				c3.9-4.2,7.8-7.3,11.6-9.2c3.8-1.9,7.3-2.9,10.4-2.9c2.7,0,5.1,0.7,7.1,2c2,1.3,3.4,3.2,4.2,5.6c0,0.1,0,0.1,0.1,0.2
				c0,0,0.1,0.1,0.1,0.2c0,0.6-0.3,0.9-0.8,1c-0.6,0.1-0.9,0-1.1-0.2c-0.7-3.3-2.8-4.9-6.2-4.9c-2.2,0-5,0.9-8.3,2.6
				c-3.3,1.8-7,4.6-11.2,8.6c-4.3,4.2-8.6,9.1-12.8,14.8c-4.2,5.7-8.4,11.5-12.4,17.5c-4,6-8.1,11.6-12.1,16.9
				c-1.4,1.9-3.3,4.2-5.5,7c-2.2,2.7-4.6,5.4-7.3,8.1c-2.6,2.7-5.3,4.9-8,6.6c-2.7,1.7-5.3,2.5-7.8,2.3c-0.5,0-0.7-0.2-0.8-0.5
				c0-0.3,0.1-0.6,0.5-0.8c2.7-1.9,4.9-4.5,6.6-7.7c1.7-3.2,3-6.7,4.1-10.4c1.4-5.2,2.3-10.5,2.7-15.8c0.4-5.4,1-10.7,1.7-16.1
				c0.4-2.5,0.9-5.1,1.5-7.9s1.5-5.3,2.8-7.5c1-1.8,2.5-3.8,4.3-6c1.8-2.2,3.9-3.7,6.1-4.7c-1.4-0.3-2.9,0.2-4.6,1.4
				c-1.7,1.3-3.4,2.9-5.1,5c-1.7,2-3.2,4-4.5,5.9c-1.3,1.9-2.3,3.3-2.8,4.2c-3.8,6.1-7.3,12.4-10.5,19.1c-3.2,6.6-6.4,13.2-9.7,19.7
				c-3.3,6.5-7.1,12.6-11.4,18.4c-2.3,3.1-5,6.1-7.9,8.9c-3,2.8-6.1,5.1-9.5,6.7c-2,1-4.1,1.8-6.2,2.2
				C60.6,206.6,58.5,206.8,56.5,206.8z M153.8,197.5c-3,0-5.5-1-7.3-2.9c-1.8-1.9-2.7-4.8-2.7-8.5c0.1-3.8,0.7-7.6,2-11.6
				c1.2-4,2.8-8,4.8-11.9c2-4,4-7.7,6.1-11.3c4.7-8.1,9.5-15.2,14.2-21.5c4.8-6.2,8.6-11.5,11.6-15.7c0.2-0.4,0.7-0.6,1.3-0.5
				c0.6,0,0.8,0.3,0.5,0.7c-3.2,4.2-6.4,9.3-9.7,15.3c-3.2,6-6.6,12.5-10,19.5c-0.6,1.2-1.4,3.1-2.6,5.8c-1.2,2.7-2.4,5.7-3.7,9.2
				c-1.3,3.4-2.6,6.9-3.8,10.3c-1.2,3.4-2.1,6.4-2.8,9.1c-0.2,1-0.4,2-0.6,2.9c-0.2,0.9-0.2,1.8-0.2,2.7c0,1.9,0.4,3.5,1.3,4.6
				c0.8,1.2,2.1,1.7,3.9,1.7c1.8,0,3.8-0.9,5.9-2.6c2.1-1.7,4.1-3.8,6.1-6.3c1.8-2.1,3.4-4.3,4.9-6.6c1.5-2.3,2.7-4.4,3.7-6.2
				c0.4-0.5,0.7-0.7,0.8-0.7c0.2,0,0.4,0.2,0.4,0.6c0,0.5-0.2,1-0.5,1.7c-1,1.8-2.2,4-3.8,6.4c-1.6,2.4-3.4,4.8-5.4,7
				c-2.2,2.5-4.6,4.6-7.1,6.4C158.5,196.6,156.1,197.5,153.8,197.5z"/>
		</g>
		<g>
			<path class="st1" d="M180.3,192.1c-2.2,0-3.9-0.7-4.9-2.2c-1-1.5-1.6-3.3-1.6-5.5c0-0.6,0.1-1.3,0.2-2c0.1-0.7,0.3-1.4,0.4-2.1
				c0.9-3.2,2.3-6.8,4.1-10.7c1.9-4,3.7-7.5,5.5-10.6c1-1.8,2-3,2.9-3.8c0.9-0.8,1.8-1.3,2.9-1.7c1-0.4,2.3-0.8,3.7-1.3
				c0.4-0.2,0.8-0.3,1.2-0.4c0.4-0.1,0.8-0.2,1.3-0.2c-1.6,1.6-3.2,3.5-4.9,5.8c-1.6,2.2-3.4,5.3-5.3,9.2c-1,2.1-2.1,4.4-3.1,7
				c-1,2.6-1.9,5-2.6,7.2c-0.7,2.2-1.1,4-1.2,5.3c-0.1,1.5,0.1,2.6,0.6,3.2c0.5,0.6,1.1,1,1.9,1c1.4,0,2.7-0.5,3.9-1.4
				c1.2-1,2.3-2,3.3-3c1.8-2,3.4-4.2,5-6.6s3.1-5,4.6-7.7c0.2-0.3,0.4-0.5,0.6-0.5c0.3,0,0.5,0.2,0.5,0.7c0,0.4-0.1,0.7-0.2,1
				c-1.4,2.6-3,5.3-4.6,7.9c-1.6,2.6-3.6,5.1-5.9,7.4c-1,1-2.3,2-3.7,2.8C183.6,191.7,182.1,192.1,180.3,192.1z M195,144.9
				c-0.9,0-1.7-0.3-2.3-0.9c-0.6-0.6-0.9-1.4-0.9-2.2c0-1.2,0.5-2.2,1.4-3.1c0.9-0.9,1.9-1.4,3-1.4c0.9,0,1.7,0.3,2.3,0.9
				c0.6,0.6,0.9,1.3,0.9,2.3c0,1.1-0.4,2.1-1.3,3.1C197.2,144.4,196.2,144.9,195,144.9z"/>
		</g>
		<g>
			<path class="st1" d="M203.7,192.1c-0.2,0-0.5,0-0.7,0.1c-0.2,0-0.4,0.1-0.7,0.1c-2,0-3.8-0.6-5.3-1.7s-2.3-3.1-2.3-5.7
				c0-2.8,0.7-5.9,2-9.2c1.4-3.4,2.6-6.4,3.8-9c0.6-1.3,1.5-3,2.6-5.2c1.1-2.2,2.3-4.4,3.5-6.5h-5.6c-0.2,0-0.4-0.2-0.4-0.6
				c0-0.3,0.1-0.7,0.4-1c0.2-0.4,0.5-0.5,0.8-0.5c2.2,0,3.9-0.2,5-0.6c1.1-0.4,2.1-1,2.9-1.7c1.3-1.1,2.5-2.6,3.8-4.3
				c1.2-1.8,2.5-3.3,3.7-4.6c0.9-1.1,2-2,3.3-2.5c1.3-0.6,2.2-0.8,2.6-0.6c-0.4,0.6-1,1.5-1.9,2.8c-0.8,1.3-1.7,2.8-2.7,4.3
				s-1.8,3-2.6,4.3c-0.8,1.3-1.4,2.3-1.7,2.8c1.6,0,3.5,0,5.7,0c2.2,0,4.2,0,6.1,0c1.8,0,2.9,0,3.1,0c1.5-2.3,2.9-4.4,4-6.4
				c1.2-1.9,2.4-3.8,3.7-5.8c1.3-1.9,3-3.9,5-5.9c1.4-1.4,2.9-2.5,4.4-3.2c1.5-0.7,2.7-1.1,3.7-1.1c0.6,0,1,0.1,1.3,0.4
				c-1.7,1.1-3.4,2.8-5.1,5c-1.7,2.2-3.3,4.6-4.9,7c-1.5,2.4-2.8,4.6-3.8,6.5c-1,1.9-1.7,3.1-1.9,3.6h6.2c0.2,0,0.4,0.1,0.4,0.4
				c0,0.2-0.2,0.6-0.5,1c-0.3,0.4-0.7,0.6-1.1,0.6h-6.1c-1.4,2.5-3.1,5.7-5.1,9.7c-2,4-3.7,7.8-5.2,11.5c-0.3,0.7-0.9,2.2-1.6,4.3
				c-0.8,2.2-1.1,4.2-1.1,6c0,1.2,0.3,2.2,0.8,3c0.5,0.8,1.4,1.2,2.7,1.2c1.4,0,2.8-0.5,4.4-1.5c1.6-1,2.8-2,3.7-3.1
				c1.8-2,3.5-4.2,5-6.6c1.5-2.4,3-5,4.6-7.7c0.2-0.3,0.5-0.5,0.7-0.5c0.3,0,0.5,0.2,0.5,0.7c0,0.4-0.1,0.7-0.2,1
				c-1.4,2.6-3,5.3-4.6,7.9c-1.6,2.6-3.6,5.1-5.9,7.4c-1,1-2.4,2-4.2,2.8c-1.8,0.8-3.5,1.3-5.2,1.3c-2,0-3.8-0.6-5.3-1.7
				s-2.3-3.1-2.3-5.7c0-2.8,0.7-5.9,2-9.2c1.4-3.4,2.6-6.4,3.8-9c0.6-1.3,1.5-3,2.6-5.2c1.1-2.2,2.3-4.4,3.5-6.5h-14.8
				c-1.4,2.5-3.1,5.7-5.1,9.7c-2,4-3.7,7.8-5.2,11.5c-0.3,0.7-0.9,2.2-1.6,4.3c-0.8,2.2-1.1,4.2-1.1,6c0,1.2,0.3,2.2,0.8,3
				c0.5,0.8,1.4,1.2,2.7,1.2c1.4,0,2.8-0.5,4.4-1.5c1.6-1,2.8-2,3.7-3.1c0.4-0.4,0.7-0.6,1-0.6s0.4,0.2,0.4,0.5
				c0,0.5-0.2,0.9-0.5,1.3c-1,1.3-2.4,2.4-4.1,3.4C206.8,191.4,205.2,192,203.7,192.1z"/>
		</g>
		<g>
			<path class="st1" d="M269.6,192.2c-2.2,0-4.2-0.8-5.8-2.5c-1.6-1.7-2.5-4.1-2.5-7.3c0-1.2,0.1-2.4,0.4-3.7
				c-0.8,1.5-1.9,3.1-3.2,4.9c-1.4,1.7-2.7,3.3-4.1,4.6c-1.3,1.3-2.8,2.3-4.5,3.1c-1.7,0.8-3.4,1.1-5.1,0.9c-2.2-0.2-3.8-1-4.7-2.4
				c-0.9-1.4-1.4-3-1.4-5c0-2.6,0.5-5.5,1.6-8.6c1.1-3.1,2.3-6.1,3.8-8.9c1.4-2.8,2.6-5.1,3.5-6.7c1.8-3,3.5-4.8,5.3-5.5
				c1.8-0.7,4-1.1,6.7-1.1c-0.8,0.2-1.8,1.2-3.1,2.8c-1.3,1.6-2.6,3.7-4,6.1c-1.4,2.4-2.7,5-4,7.7c-1.2,2.8-2.2,5.4-3,8
				c-0.8,2.6-1.1,4.8-1.1,6.7c0,1.4,0.3,2.5,0.8,3.4c0.5,0.9,1.3,1.3,2.5,1.3c1,0,2.1-0.4,3.4-1.1c1.3-0.8,2.4-1.7,3.5-2.8
				c3.5-3.9,6.4-8.2,8.6-12.9c2.2-4.7,4.7-9.3,7.4-14c1.8-3,3.5-4.8,5.3-5.5c1.8-0.7,4-1.1,6.7-1.1c-0.7,0.2-1.7,1.2-3.1,2.8
				c-1.3,1.6-2.7,3.7-4.2,6.2c-1.5,2.5-2.9,5.1-4.2,7.9c-1.3,2.8-2.4,5.5-3.2,8c-0.8,2.6-1.3,4.7-1.3,6.5c0,2.4,0.6,4,1.9,4.7
				c1.3,0.8,2.4,1.1,3.5,1.1c2.1,0,4.1-0.7,5.9-2c1.9-1.4,3.6-3.1,5.2-5.2c1.6-2.1,2.9-4.2,4.1-6.4c1.2-2.2,2.1-4.1,2.7-5.7
				c-0.3-1.3-0.5-3.6-0.5-6.8c0-2,0.1-4,0.4-6.1c0.2-2.1,0.6-3.9,1.2-5.4c0.8-2,2-3,3.7-3c0.6,0,1.2,0.3,1.7,1
				c0.5,0.6,0.8,1.7,0.8,3.2c0,2.2-0.3,4.5-1,6.9c-0.7,2.4-1.2,4-1.6,4.9c-0.3,0.8-0.7,1.8-1.2,2.9c-0.5,1.2-1,2.4-1.7,3.8
				c-0.1,2.5,0.3,4.5,1.3,6.1c0.9,1.6,2.1,2.3,3.4,2.3c1.5,0,2.9-0.5,4-1.4c1.2-0.9,2.2-2,3-3.4c0.8-1.3,1.5-2.5,2.1-3.7
				c0.2-0.5,0.6-0.7,1-0.7c0.3,0,0.5,0.2,0.5,0.6c0,0.2-0.1,0.6-0.4,1.1c-1,2.2-2.3,4.2-4.1,6.1c-1.8,1.9-3.9,2.9-6.5,2.9
				c-1.3,0-2.5-0.5-3.8-1.6c-1.2-1-2-2.7-2.2-4.9c-1.4,2.4-3,4.9-4.9,7.6c-1.9,2.6-4.1,4.9-6.5,6.7
				C275.9,191.3,272.9,192.2,269.6,192.2z"/>
		</g>
		<g>
			<path class="st1" d="M314.3,193.8c-3,0-5.7-1-7.9-2.9c-2.2-2-3.3-5-3.3-9.1c0-2.6,0.5-5.2,1.4-8c0.9-2.8,1.9-5.2,3.1-7.4
				c2.1-3.9,4.7-7.3,7.9-10.3c3.2-2.9,6.9-4.4,11.3-4.4c4.2,0,7.2,1.2,8.9,3.5c1.7,2.3,2.5,5.2,2.5,8.5c0,1.4-0.1,2.8-0.4,4.2
				c-0.6,3.9-2,7.7-4,11.4c0.6,0.8,1.3,1.5,2.2,2c0.9,0.5,1.9,0.8,3.1,0.8c1.9,0,3.6-0.5,4.9-1.6c1.4-1,2.5-2.3,3.5-3.9
				c1-1.6,1.9-3,2.6-4.4c0.5-0.9,0.9-1.3,1.3-1.3c0.2,0,0.4,0.2,0.4,0.5c0,0.3-0.2,1-0.7,2.2c-1.4,2.7-3,5.1-4.8,7.1
				c-1.8,2-4.2,3-7.2,3c-2.7,0-4.8-1-6.2-2.9c-2.2,3.7-5,6.8-8.2,9.2C321.6,192.6,318.1,193.8,314.3,193.8z M314.6,192.4
				c3.9,0,7.8-1.9,11.6-5.8c1.1-1.1,2.1-2.3,3.1-3.5c0.9-1.2,1.7-2.5,2.5-3.8c-1-1.2-1.8-2.5-2.2-3.9c-0.4-1.4-0.7-2.7-0.7-4
				c0-2,0.4-3.8,1.1-5.3c0.7-1.6,1.7-2.3,3-2.3c0.6,0,1.3,0.3,1.9,1c0.6,0.6,1,1.6,1.1,3c0.2-1.1,0.4-2.3,0.4-3.6
				c0-3-0.6-5.5-1.7-7.3c-1.1-1.8-3-2.7-5.6-2.7c-1.6,0-3.2,0.6-4.9,1.9c-1.7,1.2-3.3,2.7-4.7,4.5c-1.5,1.8-2.8,3.6-3.9,5.4
				c-1.1,1.8-2,3.4-2.5,4.6c-1.4,3-2.3,5.6-2.9,7.9c-0.6,2.3-0.9,4.4-0.9,6.1c0,2.6,0.5,4.5,1.6,5.9S313.1,192.4,314.6,192.4z"/>
		</g>
		<g>
			<path class="st1" d="M363.9,192.5c-4.6,0-8.1-1.3-10.6-3.9c-2.5-2.6-3.8-6-3.8-10.1c0-1.5,0.2-3.1,0.5-4.7
				c0.3-1.6,0.8-3.3,1.6-5.1c1.2-2.9,2.8-5.6,4.7-8.1s4.2-4.6,6.9-6.2c2.7-1.6,5.6-2.4,8.8-2.4c2.4,0,4.3,0.6,5.6,1.7
				c1.3,1.1,2,2.7,2,4.7c0,0.6-0.1,1.3-0.2,2c-0.1,0.7-0.4,1.5-0.8,2.4c-0.6,1.4-1.3,2.7-2.2,3.8c-0.9,1.1-1.9,2-3,2.6
				c-0.6,0.3-1.2,0.5-1.9,0.5c-0.6,0-1.1-0.2-1.6-0.5c-0.5-0.3-0.7-0.8-0.7-1.6c0-1.3,0.7-2.7,2.1-4.1c1.4-1.5,3.2-2.3,5.5-2.3
				c0.4-1,0.6-2,0.6-2.8c0-1.3-0.4-2.4-1.2-3.3c-0.8-0.9-2-1.4-3.7-1.4c-2.1,0-4.1,0.8-6.1,2.3c-2,1.6-3.8,3.6-5.3,6.1
				s-2.8,5.2-3.8,8c-1.1,3.2-1.7,6.3-1.7,9.2c0,3.1,0.7,5.8,2.2,7.9s3.8,3.2,7.2,3.2c3.5,0,6.5-0.9,9.1-2.8c2.5-1.9,4.7-4.2,6.7-7
				c1.9-2.8,3.6-5.4,5-8c0.2-0.2,0.3-0.4,0.5-0.4c0.3,0,0.5,0.3,0.5,1c0,0.4-0.1,0.8-0.4,1.3c-1.5,2.7-3.3,5.4-5.2,8.2
				c-2,2.7-4.3,5-7.1,6.8C371.2,191.6,367.8,192.5,363.9,192.5z"/>
		</g>
		<g>
			<path class="st1" d="M408.3,192.2c-2.7,0-4.6-0.8-5.7-2.4c-1.1-1.6-1.6-3.3-1.6-5.2c0-0.8,0.1-1.6,0.2-2.3
				c0.2-0.8,0.4-1.5,0.6-2.2c1.4-3.5,3.2-6.9,5.6-10.1c2.4-3.2,4.4-6.5,6-10c0.6-1,0.8-2,0.8-2.9c0-1-0.3-1.7-0.8-2.2
				c-0.6-0.5-1.2-0.7-1.8-0.7c-1.5,0-3.2,0.7-5,2c-1.8,1.3-3.5,3-5.2,5c-1.5,1.8-3.1,3.8-4.7,6.1c-1.6,2.3-3.1,4.7-4.6,7.3
				c-1.4,2.3-2.8,4.7-4.2,7.3c-1.4,2.5-2.6,4.7-3.5,6.4c-0.6,1.4-1.3,2.2-2,2.6c-0.7,0.4-1.4,0.6-2,0.6c-0.3,0-0.6,0-1-0.1
				c-0.3,0-0.6-0.1-0.8-0.1c0.7-2.7,2.1-6.5,4-11.2c2-4.8,4.3-10.4,7-17c1.5-3.5,3.3-7.6,5.4-12.2c2.1-4.6,4.4-9.3,7.1-14.2
				c2.6-4.8,5.6-9.4,8.8-13.8c3.2-4.4,6.7-8.2,10.4-11.5c3.7-3.3,7.7-5.6,11.8-6.8c0.5-0.1,1-0.2,1.4-0.2c0.5-0.1,1-0.1,1.4-0.1
				c1.2,0,2.2,0.3,3.1,0.8c1.1,0.7,1.7,2,1.7,3.8c0,1.3-0.4,2.8-1.1,4.7c-1.3,3.2-3.4,6.6-6.3,10.3c-2.9,3.7-6.3,7.4-10.3,11.3
				c-4.9,4.7-9.6,8.9-14,12.5c-4.5,3.6-8.1,6.4-10.8,8.5c-1.6,3.4-2.9,6.4-4,8.9c-1,2.5-1.7,4.3-2,5.5c1.3-1.9,2.7-4,4.4-6.3
				c1.6-2.3,3.1-4.1,4.4-5.3c1.8-1.8,3.7-3.4,5.5-4.7c1.8-1.3,3.6-2,5.4-2.2c2.7-0.2,4.7,0.1,5.9,1c1.2,0.9,1.8,2.3,1.8,4
				c0,1.8-0.5,3.7-1.4,5.9c-1,2.5-2.3,5-3.7,7.4c-1.4,2.5-2.8,4.9-4,7.2c-0.3,0.6-0.9,1.9-1.7,3.7c-0.8,1.8-1.4,3.5-1.6,5.1
				c0,0.1,0,0.2-0.1,0.4c0,0.2-0.1,0.3-0.1,0.5c0,0.9,0.2,1.5,0.7,2c0.5,0.4,1,0.7,1.7,0.7c1.4,0,2.6-0.4,3.8-1.3
				c1.2-0.9,2.2-1.8,3.1-2.9c1.8-2,3.5-4.2,5-6.6c1.5-2.4,3-5,4.6-7.7c0.2-0.3,0.5-0.5,0.7-0.5c0.3,0,0.5,0.2,0.5,0.7
				c0,0.4-0.1,0.7-0.2,1c-1.4,2.6-3,5.3-4.6,7.9c-1.6,2.6-3.6,5.1-5.9,7.4c-1,1-2.2,2-3.6,2.8C411.5,191.8,410,192.2,408.3,192.2z
				 M399.4,154c4.8-3.5,9.1-7.1,13-10.7c3.8-3.6,7.7-7.5,11.6-11.6c1.1-1.2,2.6-2.8,4.4-4.8c1.8-2,3.6-4.2,5.3-6.5
				c1.8-2.3,3.1-4.6,4-6.7c0.8-1.8,1.2-3.4,1.2-4.7c0-2.2-1-3.2-3-3.2c-1,0-2.2,0.3-3.5,1c-1.3,0.6-2.5,1.5-3.6,2.6
				c-3.8,3.6-7.6,8-11.2,13.1c-3.6,5.2-7,10.5-10.1,16C404.4,144,401.7,149.2,399.4,154z"/>
		</g>
	</g>
	<g>
		<rect x="34.1" y="79.7" class="st2" width="419.1" height="2"/>
	</g>
	<g>
		<rect x="34.1" y="219.6" class="st2" width="419.1" height="2"/>
	</g>
	<g>
		<rect x="800.5" y="79.7" class="st2" width="419.1" height="2"/>
	</g>
	<g>
		<rect x="800.5" y="219.6" class="st2" width="419.1" height="2"/>
	</g>
	<g>
		<g>
			<path class="st1" d="M885.8,200.6c-6.2,0-11.4-1-15.5-3c-4.1-2-7.3-4.7-9.5-8c-2.2-3.3-3.7-6.9-4.3-10.9
				c-0.2-1.8-0.4-3.7-0.4-5.5c0-4.7,0.7-9.4,2-14.2c1.6-5.5,3.9-10.9,7-16.1c3-5.2,6.6-10,10.8-14.5c4.2-4.5,8.7-8.4,13.7-11.8
				c5-3.4,10.3-5.9,15.8-7.7c5.3-1.6,10.2-2.4,14.8-2.4c1.4,0,2.8,0.1,4.1,0.2c1.3,0.2,2.6,0.4,3.8,0.7c3,0.9,5.5,2.3,7.3,4.1
				c1.8,1.9,2.8,4.2,2.8,7c0,0.8-0.1,1.7-0.4,2.6c2.3,2.3,4,5.1,5,8.4c1,3.3,1.6,6.8,1.6,10.6c0,2.5-0.2,5-0.7,7.6
				c-0.4,2.6-1.1,5.1-1.9,7.7c-1.8,5.8-4.6,11.4-8.2,16.8c-3.6,5.4-7.9,10.2-12.9,14.4c-5,4.2-10.4,7.6-16.3,10.1
				C898.5,199.4,892.3,200.6,885.8,200.6z M885.9,199l0.4-0.1c6.1-0.1,11.8-1.5,17.2-4.3s10.2-6.5,14.6-11
				c4.4-4.6,8.1-9.6,11.2-15.1c3.1-5.5,5.5-10.9,7.1-16.3c1.4-4.6,2-9.1,2-13.7c0-2.3-0.2-4.6-0.7-6.8c-0.4-2.2-1.1-4.3-2.1-6.1
				c-0.8,1-1.6,1.6-2.5,1.9c-0.6,0.2-1,0.4-1.2,0.4c-0.3,0-0.5-0.1-0.4-0.4c0-0.2,0.2-0.5,0.5-0.7c1-0.8,1.7-2,2.2-3.5
				c-1.5-2.1-3.5-3.7-5.9-4.9c-2.4-1.2-5.4-1.8-8.9-1.8c-3.4,0-7.1,0.8-11.1,2.4c-4,1.6-7.8,3.9-11.6,7c-2.3,1.9-4.4,4.2-6.2,7
				c-1.8,2.7-3.2,5.5-4.1,8.2c-1,2.8-1.4,5.2-1.4,7.3c0,2.4,0.6,4,1.9,4.7c0.6,0.3,1,0.7,1,1.1c0,0.2-0.2,0.4-0.5,0.5
				c-0.3,0.1-0.7,0-1.1-0.1c-1.4-0.6-2.5-1.5-3.2-2.9c-0.7-1.4-1-3.1-1-5c0-3.3,0.9-7,2.8-11c1.8-4.1,4.3-7.5,7.4-10.2
				c4.1-3.5,8.5-6.2,13.3-8c4.8-1.8,9.4-2.7,13.9-2.7c3.3,0,6.2,0.4,8.6,1.2c2.5,0.8,4.7,1.8,6.6,3.1c-0.1-2.2-0.9-4.1-2.5-5.5
				c-1.6-1.4-3.5-2.5-5.8-3.2c-2.3-0.6-4.8-1-7.4-1c-1.8,0-3.7,0.2-5.8,0.5c-2.1,0.3-4.3,0.8-6.6,1.6c-3.1,1-6.3,2.6-9.6,4.9
				c-3.3,2.3-6.5,5-9.6,8.2c-3.1,3.2-6,6.5-8.8,10.1c-2.7,3.6-5,7.2-7,10.9c-2.1,3.8-3.9,8.4-5.3,13.6c-1.5,5.2-2.2,10.5-2.2,15.7
				c0,1.2,0,2.4,0.1,3.7c0.1,1.2,0.2,2.4,0.5,3.5c0.6,3,1.7,5.9,3.3,8.5c1.6,2.6,3.9,4.7,6.8,6.3S881.5,199,885.9,199z"/>
		</g>
		<g>
			<path class="st1" d="M971.6,193.1c-2.9,0-5.1-0.8-6.6-2.5c-1.5-1.7-2.6-3.7-3.2-6.2c-0.6-2.4-0.9-4.8-0.9-7
				c0-2.1,0.2-4.2,0.7-6.4c0.4-2.2,1.3-4,2.5-5.5c0.7-0.9,1.6-1.6,2.6-2s1.4-0.4,1.3,0.1c-0.2,0.3-0.2,0.6-0.2,1
				c0.1,0.6,0.4,1.1,1.1,1.5s1.4,0.5,2.4,0.5c1,0,2-0.2,3.1-0.5c1.1-0.3,2.1-0.8,2.9-1.4c1-0.7,2-1.7,2.8-2.8
				c0.8-1.2,1.2-2.4,1.2-3.7c0-1.3-0.3-2.2-1-2.6c-0.7-0.5-1.5-0.7-2.3-0.7c-0.4,0-0.8,0-1.3,0.1c-0.5,0.1-0.9,0.2-1.3,0.4
				c-2.6,0.8-5.1,2.3-7.6,4.5c-2.5,2.2-4.9,4.7-7.1,7.6c-2.2,2.9-4.2,5.8-5.9,8.6c-1.1,1.9-2.3,4.1-3.6,6.7
				c-1.3,2.5-2.1,4.5-2.5,6.1c-0.4,1.4-1.1,2.4-2,2.8c-0.9,0.4-1.9,0.6-2.8,0.5c-1,0-1.7-0.1-2.3-0.1c0.4-1.1,0.9-2.6,1.6-4.6
				s1.4-3.9,2.1-5.8c0.7-2,1.3-3.5,1.8-4.6c2.1-5.1,4.3-10.6,6.8-16.4c2.4-5.8,5.1-11.7,7.9-17.5c2.8-5.8,6-11.3,9.4-16.4
				c3.4-5.1,7.1-9.5,11-13.3c4-3.7,8.3-6.4,12.9-8.1c0.4-0.1,0.8-0.2,1.3-0.2c0.5-0.1,1-0.1,1.4-0.1c1.3,0,2.4,0.3,3.2,0.8
				c1.1,0.7,1.7,2,1.7,3.7c0,1.4-0.4,3-1.1,4.8c-1.3,3.2-3.4,6.6-6.2,10.3c-2.9,3.7-6.3,7.4-10.2,11.3c-4.6,4.4-9.1,8.3-13.3,11.8
				s-7.8,6.3-10.6,8.3c-1.7,3.7-3.1,6.9-4.2,9.8c-1.1,2.8-1.9,4.8-2.3,5.9c1.8-2.6,3.7-5.1,5.9-7.6s4.4-4.6,6.6-6.3
				c4.8-3.6,9.3-5.4,13.6-5.4c2.4,0,4,0.7,4.9,2.2c0.2,0.3,0.4,0.7,0.5,1.2c0.1,0.5,0.1,0.9,0.1,1.3c0,1.5-0.4,3-1.2,4.5
				c-0.8,1.5-1.8,2.6-2.9,3.4c-1.3,1-2.8,1.7-4.5,2.3s-3.4,0.9-5,0.9c-1.7,0-3.1-0.4-4.3-1.1l-1-0.6c-0.2,1.2-0.3,2.6-0.5,4.1
				s-0.2,3.2-0.2,4.9c0,0.8,0,1.6,0.1,2.3c0,0.8,0.1,1.5,0.2,2.3c0.2,1.3,0.4,2.7,0.8,4.4c0.4,1.6,1,3.1,1.9,4.3
				c0.9,1.2,2,1.8,3.5,1.9c1.4,0,2.7-0.5,4-1.4s2.4-2,3.2-3c1.8-2,3.4-4,4.7-6.1s3-4.9,5-8.6c0.2-0.2,0.3-0.4,0.4-0.4
				c0.3,0,0.5,0.4,0.5,1.1c0,0.5-0.1,1-0.4,1.4c-1.3,2.4-2.7,4.9-4.3,7.6c-1.6,2.6-3.6,5.1-5.9,7.4c-1,1-2.3,2-3.8,2.8
				C974.9,192.7,973.3,193.1,971.6,193.1z M962.1,153.7c4.6-3.4,8.7-6.9,12.4-10.3c3.7-3.4,7.4-7.2,11.3-11.2
				c1.1-1.2,2.6-2.8,4.4-4.8c1.8-2,3.6-4.2,5.3-6.5c1.7-2.3,3-4.6,3.9-6.7c0.8-1.9,1.2-3.5,1.2-4.7c0-2.2-1-3.2-2.9-3.2
				c-1,0-2.2,0.3-3.5,1c-1.3,0.6-2.5,1.5-3.6,2.6c-3.8,3.5-7.4,7.8-10.9,12.8c-3.5,5-6.8,10.3-9.7,15.7
				C967,143.8,964.4,148.9,962.1,153.7z"/>
		</g>
		<g>
			<path class="st1" d="M993.8,192.8c-2,0-3.8-0.6-5.3-1.7c-1.6-1.2-2.3-3.1-2.3-5.7c0-2.8,0.7-5.9,2-9.2c1.4-3.4,2.6-6.4,3.8-9
				c0.6-1.3,1.5-3,2.6-5.2c1.1-2.2,2.3-4.4,3.5-6.5h-5.6c-0.2,0-0.4-0.2-0.4-0.6c0-0.3,0.1-0.7,0.4-1c0.2-0.4,0.5-0.5,0.8-0.5
				c2.2,0,3.9-0.2,5-0.6c1.1-0.4,2.1-1,2.9-1.7c1.3-1.1,2.5-2.6,3.8-4.3c1.2-1.8,2.5-3.3,3.7-4.6c0.9-1.1,2-2,3.3-2.5
				c1.3-0.6,2.2-0.8,2.6-0.6c-0.4,0.6-1,1.5-1.9,2.9c-0.9,1.4-1.8,2.8-2.8,4.4c-1,1.6-1.8,3.1-2.6,4.4c-0.8,1.4-1.3,2.3-1.6,2.8h7.9
				c0.2,0,0.4,0.1,0.4,0.2c0,0.3-0.2,0.7-0.5,1.1c-0.4,0.4-0.7,0.6-1,0.6h-7.8c-1.4,2.5-3.1,5.7-5.1,9.7c-2,4-3.7,7.8-5.2,11.5
				c-0.3,0.7-0.9,2.2-1.6,4.3c-0.8,2.2-1.1,4.2-1.1,6c0,1.2,0.3,2.2,0.8,3c0.5,0.8,1.4,1.2,2.7,1.2c1.4,0,2.8-0.5,4.4-1.5
				c1.6-1,2.8-2,3.7-3.1c1.8-2,3.5-4.2,5-6.6s3-5,4.6-7.7c0.2-0.3,0.5-0.5,0.7-0.5c0.3,0,0.5,0.2,0.5,0.7c0,0.4-0.1,0.7-0.2,1
				c-1.4,2.6-3,5.3-4.6,7.9c-1.6,2.6-3.6,5.1-5.9,7.4c-1,1-2.4,2-4.2,2.8S995.5,192.8,993.8,192.8z"/>
		</g>
		<g>
			<path class="st1" d="M1021.8,194.4c-3,0-5.7-1-7.9-2.9c-2.2-2-3.3-5-3.3-9.1c0-2.6,0.5-5.2,1.4-8c0.9-2.8,1.9-5.2,3.1-7.4
				c2.1-3.9,4.7-7.3,7.9-10.3c3.2-2.9,6.9-4.4,11.3-4.4c4.2,0,7.2,1.2,8.9,3.5c1.7,2.3,2.5,5.2,2.5,8.5c0,1.4-0.1,2.8-0.4,4.2
				c-0.6,3.9-2,7.7-4,11.4c0.6,0.8,1.3,1.5,2.2,2c0.9,0.5,1.9,0.8,3.1,0.8c1.9,0,3.6-0.5,4.9-1.6c1.4-1,2.5-2.3,3.5-3.9
				c1-1.6,1.9-3,2.6-4.4c0.5-0.9,0.9-1.3,1.3-1.3c0.2,0,0.4,0.2,0.4,0.5c0,0.3-0.2,1-0.7,2.2c-1.4,2.7-3,5.1-4.8,7.1
				c-1.8,2-4.2,3-7.2,3c-2.7,0-4.8-1-6.2-2.9c-2.2,3.7-5,6.8-8.2,9.2C1029,193.2,1025.5,194.4,1021.8,194.4z M1022,193
				c3.9,0,7.8-1.9,11.6-5.8c1.1-1.1,2.1-2.3,3.1-3.5c0.9-1.2,1.7-2.5,2.5-3.8c-1-1.2-1.8-2.5-2.2-3.9c-0.4-1.4-0.7-2.7-0.7-4
				c0-2,0.4-3.8,1.1-5.3c0.7-1.6,1.7-2.3,3-2.3c0.6,0,1.3,0.3,1.9,1c0.6,0.6,1,1.6,1.1,3c0.2-1.1,0.4-2.3,0.4-3.6
				c0-3-0.6-5.5-1.7-7.3c-1.1-1.8-3-2.7-5.6-2.7c-1.6,0-3.2,0.6-4.9,1.9c-1.7,1.2-3.3,2.7-4.7,4.5c-1.5,1.8-2.8,3.6-3.9,5.4
				c-1.1,1.8-2,3.4-2.5,4.6c-1.4,3-2.3,5.6-2.9,7.9c-0.6,2.3-0.9,4.4-0.9,6.1c0,2.6,0.5,4.5,1.6,5.9S1020.5,193,1022,193z"/>
		</g>
		<g>
			<path class="st1" d="M1061.2,193.6c-2.6,0-4.4-0.8-5.5-2.3c-1.1-1.5-1.6-3.4-1.6-5.5c0-1.6,0.2-3.2,0.7-4.7
				c0.5-1.8,1.3-4.2,2.5-7.2c1.2-3,2.5-6.3,4-9.9c1.5-3.6,3-7,4.5-10.3c0.6-1.4,1.4-3.1,2.2-4.9c0.8-1.8,1.7-3.6,2.5-5.3
				c0.8-1.8,1.5-3.2,2.1-4.3c1.4-2.8,3.2-6.1,5.2-10c2-3.8,4.3-7.7,6.9-11.5c2.6-3.8,5.5-7.1,8.7-9.8c3.2-2.7,6.7-4.4,10.4-4.9
				c0.3-0.1,0.7-0.1,1.2-0.1c1.8,0,3.2,0.6,4.1,1.7c0.9,1.1,1.4,2.5,1.4,4.1c0,1.4-0.3,2.8-0.8,4c-1.3,2.9-3.3,5.9-6.1,9.1
				c-2.8,3.2-5.7,6.3-8.9,9.3s-6,5.7-8.5,8.1c-2.1,2-3.9,3.7-5.5,5.2c-1.6,1.5-3.1,2.9-4.4,4.4c-1.4,1.4-2.8,3-4.4,4.8
				c-0.9,2-1.7,4-2.6,6.1s-1.3,3.2-1.4,3.5c2.2-3,4.7-5.7,7.4-8c2.7-2.3,5.1-3.4,7.4-3.4c2.6,0,4.5,0.7,5.5,2c1,1.4,1.5,3.1,1.5,5.2
				c0,1.9-0.3,4-1,6.1c-0.6,2.2-1.4,4.2-2.2,6.2c-0.8,2-1.7,3.6-2.5,5c-0.8,1.3-1.7,2.6-2.7,4c-1,1.4-2.1,2.7-3.3,4
				c0.3,1,0.8,1.8,1.6,2.3c0.7,0.5,1.6,0.7,2.5,0.7c1.1,0,2.3-0.3,3.5-0.8c1.2-0.5,2.2-1.1,3.1-1.9c1.8-1.5,3.5-3.3,5-5.4
				c1.5-2.1,2.9-4.2,4.2-6.5c0.1-0.2,0.2-0.2,0.2-0.2c0.2,0,0.2,0.4,0.2,1.1c0,0.3,0,0.6,0,0.9c0,0.3-0.1,0.5-0.2,0.8
				c-1.4,2.4-2.8,4.5-4.2,6.4c-1.4,1.9-3.2,3.5-5.3,5c-2.2,1.5-4.5,2.3-7,2.3c-1.1,0-2.2-0.2-3.1-0.7c-1-0.5-1.6-1.3-2-2.4
				c-2.2,2.2-4.7,4-7.3,5.5C1066.9,192.8,1064.1,193.6,1061.2,193.6z M1066.4,189.6c1.8-1.2,3.4-2.8,5-4.9c1.6-2.1,3-4.2,4.3-6.2
				c1.2-2.1,2.2-3.7,2.8-4.9c0.5-0.9,1.1-2.3,2-4.1c0.8-1.9,1.6-3.9,2.3-6.1c0.7-2.2,1.1-4,1.1-5.6c0-1.1-0.2-2-0.7-2.7
				c-0.4-0.7-1.2-1-2.3-1c-1,0-2.3,0.6-3.7,1.7c-1.4,1.2-2.8,2.6-4.1,4.4c-1.7,2.1-3.5,4.6-5.5,7.5c-2,2.9-3.8,5.9-5.5,9.1
				c-1.6,3.1-2.9,6-3.7,8.5c-0.2,1-0.4,1.8-0.4,2.5c0,1.3,0.3,2.2,1,2.8c0.7,0.6,1.5,0.8,2.5,0.8
				C1063.2,191.3,1064.8,190.7,1066.4,189.6z M1074,149.4c1.8-2.1,3.6-3.9,5.2-5.6c1.6-1.6,3.6-3.7,5.9-6.1c2.2-2.2,4.8-4.9,7.7-7.9
				c2.9-3,5.7-6.1,8.3-9.2c2.6-3.1,4.5-5.9,5.7-8.3c1-1.9,1.4-3.5,1.4-4.7c0-2.3-1.4-3.3-4.1-2.9c-2.6,0.3-5.2,1.6-7.6,4
				c-2.4,2.3-4.8,5.2-7,8.7c-2.2,3.5-4.3,7.2-6.2,11.1c-1.9,3.9-3.7,7.7-5.2,11.4C1076.5,143.6,1075.2,146.8,1074,149.4z"/>
		</g>
		<g>
			<path class="st1" d="M1109.2,193c-4.6,0-7.9-1.2-9.8-3.6c-1-1-1.6-2.3-2-3.7s-0.6-2.9-0.6-4.4c0-1.9,0.2-3.9,0.7-5.8
				c0.5-2,1.1-3.8,1.8-5.5c1.1-2.6,2.6-5.3,4.4-8c1.8-2.7,4.1-4.9,6.7-6.8c2.6-1.8,5.5-2.8,8.6-2.8c2.1,0,3.7,0.5,4.9,1.6
				c1.2,1,1.8,2.6,1.8,4.8c0,2.5-0.8,5-2.3,7.5c-1.5,2.5-3.4,4.6-5.8,6.3c-2.3,1.7-4.7,2.5-7.2,2.5c-2.2,0-4.2-0.8-5.9-2.4
				c-0.5,1.3-0.9,2.7-1.2,4.3s-0.5,3.1-0.5,4.7c0,2.5,0.5,4.6,1.5,6.5c1,1.8,2.8,2.8,5.5,2.8c1.9,0,3.8-0.5,5.6-1.5
				c1.8-1,3.4-2.2,4.9-3.7c1.6-1.7,3.1-3.5,4.6-5.4c1.4-1.9,2.8-4.2,4.2-6.7c0.2-0.2,0.3-0.4,0.4-0.4c0.3,0,0.5,0.4,0.5,1.1
				c0,0.5-0.2,1-0.5,1.6c-1.2,2.2-2.6,4.3-4.2,6.5c-1.6,2.2-3.2,4.1-4.9,5.7c-1.5,1.4-3.2,2.6-4.9,3.5S1111.6,193,1109.2,193z
				 M1105.2,170.9c0.6,0.8,1.2,1.4,2,1.7c0.8,0.4,1.5,0.5,2.3,0.5c1.9,0,3.9-0.7,6-2.2c2.1-1.5,3.8-3.2,5-5.2c0.6-0.9,1.1-2,1.5-3.5
				c0.4-1.4,0.7-2.8,0.7-4.1c0-1.1-0.2-2.1-0.7-2.9c-0.4-0.8-1.3-1.3-2.6-1.3c-1.4,0-3.1,0.9-5.1,2.6c-2,1.8-3.8,4-5.6,6.8
				c-0.6,1-1.2,2.1-1.9,3.4C1106.2,168.1,1105.6,169.4,1105.2,170.9z"/>
		</g>
		<g>
			<path class="st1" d="M1152.4,189.8c-1.4,1.1-2.7,1.9-4,2.5c-1.3,0.5-2.5,0.8-3.7,0.8c-2,0-3.7-0.7-5-2.1s-2-3.3-2-5.6
				c0-1.4,0.3-3,1-4.9c1-2.9,2.6-5.6,4.7-8.3c2.1-2.6,4.1-5.3,6-8c1.2-1.6,1.8-3.2,1.8-4.7c0-0.8-0.2-1.5-0.7-2
				c-0.4-0.6-1.2-0.9-2.3-1c-0.6-0.2-1.4-0.2-2.2-0.2c-0.8,0-1.6,0-2.4,0h-3.4c-0.5,0-0.9,0-1.3,0c-0.4,0-0.8,0-1.1-0.1
				c-0.3,2-1,4.2-2,6.7c-1,2.5-2.1,5-3.4,7.4c-1.3,2.5-2.5,4.7-3.7,6.7c-0.3,0.5-0.6,0.7-0.8,0.7c-0.2,0-0.4-0.2-0.4-0.7
				c0-0.6,0.1-1,0.4-1.3c1.7-3.3,3.3-6.5,4.9-9.7c1.6-3.2,2.6-6.5,3.2-9.9c-1.8-1-3.1-2.8-3.7-5.4c-0.1-0.4-0.1-0.8-0.2-1.1
				c0-0.4-0.1-0.7-0.1-1c0-1.4,0.3-2.7,0.9-3.7c0.6-1,1.3-1.5,2.1-1.5c1.1,0,2,1.1,2.8,3.2c0.2,0.6,0.3,1.2,0.4,1.9
				c0.1,0.7,0.1,1.3,0.1,2c0,0.7,0,1.4-0.1,2c0,0.6-0.1,1.1-0.2,1.5c0.6,0.2,1.3,0.3,2.2,0.4c0.9,0.1,1.9,0.1,3.1,0.1
				c1.7,0,3.4-0.1,5.3-0.2c1.8-0.1,3.4-0.2,4.7-0.2c1.5,0,2.6,0.3,3.1,1c0.6,0.6,0.8,1.4,0.8,2.4c0,1.2-0.3,2.5-0.9,3.9
				c-0.6,1.4-1.2,2.6-1.7,3.5c-1,1.9-2,3.6-2.9,5.1c-0.9,1.5-1.9,3.1-3.1,4.7c-1.7,2.6-2.9,4.9-3.7,7c-0.8,2.1-1.1,3.9-1.1,5.3
				c0,2.5,0.9,3.7,2.8,3.7c1.5,0,3.5-1.1,5.9-3.2c1.5-1.4,2.9-3,4.3-4.9c1.3-1.9,2.5-3.8,3.6-5.8c1.1-2,2-3.6,2.7-4.9
				c0.2-0.2,0.3-0.4,0.5-0.4c0.3,0,0.5,0.3,0.5,1c0,0.5-0.1,0.9-0.4,1.3c-1.4,2.5-2.9,5.2-4.7,8.2
				C1157.2,185.1,1155,187.7,1152.4,189.8z"/>
		</g>
	</g>
</g>
</svg>
