<?xml version="1.0" encoding="utf-8"?>
<!-- Generator: Adobe Illustrator 28.3.0, SVG Export Plug-In . SVG Version: 6.00 Build 0)  -->
<svg version="1.0" id="Capa_1" xmlns="http://www.w3.org/2000/svg" xmlns:xlink="http://www.w3.org/1999/xlink" x="0px" y="0px"
	 viewBox="0 0 1099.29 346.35" style="enable-background:new 0 0 1099.29 346.35;" xml:space="preserve">
<style type="text/css">
	.st0{fill:#B7BAA7;}
	.st1{fill:#4D4D4D;}
</style>
<g>
	<g>
		<path class="st0" d="M596.07,259.21c-16.07-6.73-34.23,5.14-46.42,14.5c-8.09,6.22-15.87,12.93-24.9,17.78
			c-9.2,4.95-19.36,7.86-29.61,9.68c-14.83,2.64-30.41,3.87-45.72,3.21c-8.83-2.79-16.29-13.17-8.65-21.58
			c3.14-3.45,7.99-4.91,12.49-3.5c2.56,0.81,5.01,2.54,6.43,4.86c2.92,4.78-0.73,14.7-7.34,9.29c-0.63-0.52-1.5,0.31-0.91,0.91
			c4.11,4.21,10.59,0.68,11.14-4.7c0.77-7.52-7.32-12.99-14.13-12.36c-7.25,0.67-12.62,7.3-12.05,14.5
			c0.46,5.85,4.23,10.24,9.22,12.37c-5.33-0.34-10.61-0.91-15.81-1.75c-3.46-0.56-6.91-1.26-10.31-2.11
			c-0.15-0.19-0.29-0.39-0.44-0.59c1.25-11.36-3.2-21.92-7.7-32.11c-0.21-0.46-1.01-0.35-1.1,0.14c-2.04,11.3,0.59,22.75,7.57,31.79
			c0.02,0.11,0.04,0.23,0.05,0.34c-5.34-1.41-10.58-3.18-15.63-5.36c2.99-9.15-0.16-18.2-3.55-26.81c-0.2-0.52-0.85-0.52-1.06,0
			c-3.21,8.26-2.95,17.64,1.41,25.36c-3.9-1.85-7.69-3.94-11.3-6.29c2.31-6.29-0.84-12.73-3.78-18.26c-0.2-0.37-0.76-0.27-0.87,0.11
			c-1.5,5.39-1.11,10.9,1.4,15.91c-4.76-3.42-9.21-7.31-13.22-11.73c0.14-0.51,0.2-0.99,0.24-1.47c2.37-2.86,3.46-6.52,3.13-10.25
			c-0.03-0.37-0.42-0.53-0.7-0.29c-1.68,1.4-3.35,2.82-4.98,4.27c-1.78-1.84-4.22-3.25-6.47-4.26c-0.3-0.14-0.75,0.02-0.72,0.41
			c0.17,2.25,0.81,4.43,1.86,6.36c-2.32-0.09-4.5,0.24-6.72,1.03c-0.2,0.07-0.34,0.31-0.21,0.51c2.57,3.81,7.79,4.36,12.15,3.93
			c0.38,0.23,0.77,0.44,1.18,0.63c0.26,0.12,0.5-0.11,0.46-0.33c0.08,0.06,0.18,0.09,0.28,0.08c3.88,4.39,8.12,8.24,12.65,11.6
			c-5.22-2.35-10.97-2.75-16.64-1.16c-0.36,0.1-0.55,0.63-0.24,0.9c5.87,4.93,13.89,6.56,21.03,3.47c0.1-0.04,0.13-0.12,0.13-0.21
			c3.4,2.23,6.94,4.21,10.59,5.96c-6.85-0.74-13.57,0.49-19.87,3.7c-0.38,0.2-0.32,0.88,0.13,0.96c5.47,0.97,11.09,1.42,16.62,0.7
			c2.87-0.37,5.49-1.09,7.03-3.59c5.01,2.15,10.22,3.9,15.53,5.31c-0.17,0.25-0.35,0.5-0.53,0.75c-0.03-0.19-0.14-0.37-0.36-0.44
			c-6.63-2.01-13.37,0.62-19.63,2.88c-6.96,2.51-13.64,5.66-20.07,9.32c-0.52,0.3-0.27,1.06,0.29,1.09
			c8.92,0.41,17.75-0.59,26.28-3.25c5.89-1.83,11.75-4.56,14.82-10.15c15.25,3.92,31.46,5.02,47.13,4.4
			c1.11-0.04,2.22-0.09,3.33-0.14c-4.19,1.91-7.95,5.31-8.47,10.12c-0.53,4.91,2.7,9.87,7.88,10.06c4.5,0.17,10.94-3.47,11.26-8.41
			c0.43-6.55-7.98-6.14-12.13-4.42c-0.77,0.32-0.46,1.58,0.35,1.28c1.79-0.66,3.59-1.11,5.53-1.01c4.71,0.26,6,4.63,2.79,7.74
			c-3.01,2.91-8.57,4.84-11.97,1.51c-6.43-6.29,0.96-14.17,6.8-16.92c0.03-0.01,0.05-0.04,0.08-0.06
			c16.01-0.87,32.33-2.96,47.17-9.12c16.83-6.99,28.93-20.65,44.39-29.79c9.06-5.36,20.94-9.98,31.49-6.54
			c13.45,4.38,11.44,20.35,1.35,27.25c-0.44,0.3-0.03,1.02,0.42,0.72C606.38,281.1,609.44,264.81,596.07,259.21z M363.89,268.06
			c0.41,0.69,0.88,1.34,1.4,1.95c-2.38-0.44-4.77-0.86-7.16-1.22C358.98,268.02,362.42,268.04,363.89,268.06z M361.27,271.53
			c-0.85-0.29-3.47-1.37-3.35-2.37c2.66,0.58,5.35,1.1,8.03,1.59c0.55,0.57,1.13,1.1,1.77,1.57
			C365.54,272.33,363.37,272.26,361.27,271.53z M369.08,272.32c-0.64-0.46-1.23-0.98-1.79-1.52c0.11-0.16,0.08-0.41-0.16-0.45
			c-0.12-0.02-0.25-0.04-0.37-0.07c-1.98-2.1-3.34-4.69-3.84-7.62c0,0.04,0.01,0.09,0.05,0.13c2.9,2.82,5.07,5.99,6.91,9.53
			C369.62,272.32,369.35,272.32,369.08,272.32z M370.54,271.59c-0.01,0.01-0.02,0.02-0.03,0.04c-1.95-3.37-4.47-6.4-7.26-9.11
			c-0.13-0.13-0.32-0.01-0.33,0.13c-0.03-0.2-0.09-0.4-0.11-0.61C366.72,263.93,371.01,266.93,370.54,271.59z M370.75,267.56
			c0.86-1.46,1.84-2.95,2.41-4.52c0.08-0.23-0.24-0.32-0.37-0.15c-0.94,1.23-1.63,2.74-2.33,4.15c-0.31-0.52-0.67-1.02-1.08-1.48
			c1.51-1.17,2.99-2.38,4.46-3.59c0.09,3.02-0.73,5.82-2.34,8.29C371.43,269.29,371.16,268.4,370.75,267.56z M383.49,271.22
			c1.07,4.99,2.39,9.91,3.27,14.94c-0.63-0.42-1.24-0.86-1.85-1.29c0.18-0.06,0.34-0.27,0.24-0.51
			C383.29,280.08,382.69,275.69,383.49,271.22z M374.45,287.99c-1.28-0.4-5.2-1.52-5.75-2.97c-0.34-0.91,0.84-0.71,2.02-0.87
			c1.25-0.17,2.46-0.28,3.73-0.25c2.06,0.05,4.15,0.35,6.14,0.93c1.09,0.32,3.19,0.78,4.03,1.6c0.2,0.19,0.33,0.28,0.4,0.32
			c-0.11-0.03-0.35-0.04-0.74,0.09c-1.92,0.69-5.93-0.2-7.86-0.52c-2.39-0.4-4.72-1.03-7.02-1.78c-0.35-0.12-0.5,0.43-0.15,0.55
			c5.61,1.99,11.27,2.7,17.2,2.3c0.07-0.01,0.14-0.04,0.19-0.07c0.21,0.14,0.42,0.29,0.64,0.43
			C383.06,289,378.68,289.32,374.45,287.99z M387.3,284.71c-0.95-4.6-1.87-9.23-3.28-13.71c-0.08-0.25-0.36-0.24-0.48-0.09
			c0.05-0.26,0.12-0.52,0.18-0.77C386.1,274.79,388.08,279.52,387.3,284.71z M383.29,296.66c2.51-0.92,5.15-1.53,7.81-1.82
			c2.16-0.23,4.36-0.26,6.53-0.05c1.36,0.13,2.2,0.23,2.66,0.32c0.01,0.02,0.02,0.04,0.04,0.06c0.11,0.15,0.28,0.17,0.4,0.1
			c-0.04,0.24-4.05,0.28-5.2,0.42c-4.37,0.56-8.76,0.97-13.15,1.32C382.66,296.9,382.95,296.79,383.29,296.66z M385.95,298.56
			c-2.29-0.14-7.05,0.23-4.77-1c0,0.22,0.14,0.43,0.43,0.41c6.61-0.45,13.19-1.21,19.74-2.18
			C397.87,299.57,390.48,298.84,385.95,298.56z M401.75,292.18c-1.22-7.18-2.3-14.39-3.27-21.61c-0.07-0.55-0.95-0.57-0.89,0
			c0.89,7.84,2.02,15.63,3.35,23.41c-0.25-0.11-0.49-0.22-0.74-0.33c-1.9-3.76-3.28-7.64-3.64-11.9c-0.1-1.14,0.04-12.31,1.55-12.25
			c1.09,0.04,3.23,9.36,3.43,10.23C402.5,283.96,402.7,288.05,401.75,292.18z M381.85,313.58c-0.76,0-1.51,0-2.24-0.01
			c5.22-2.89,10.59-5.46,16.17-7.58c5.78-2.2,12.54-4.99,18.82-3.96c-10.86,3.53-21.72,7.05-32.57,10.59
			C381.56,312.78,381.57,313.34,381.85,313.58z M382.59,313.58c11.36-3.68,22.71-7.36,34.06-11.05
			C409.26,311.4,394.3,313.44,382.59,313.58z M410.83,273.53c1.06,8.23,5.02,15.78,6.62,23.93
			C412.79,290.27,410.47,282.04,410.83,273.53z M411.54,271.05c3.39,7.76,6.3,15.65,6.51,24.07
			C416.01,287.05,412.16,279.48,411.54,271.05z"/>
		<path class="st0" d="M503.37,287.97c0.45,0.3,0.86-0.42,0.42-0.72c-10.1-6.9-12.1-22.87,1.35-27.25
			c10.56-3.44,22.44,1.18,31.49,6.54c15.46,9.15,27.57,22.81,44.39,29.79c14.85,6.16,31.16,8.25,47.17,9.12
			c0.02,0.02,0.04,0.04,0.08,0.06c5.84,2.75,13.23,10.64,6.8,16.92c-3.41,3.33-8.97,1.4-11.97-1.51c-3.21-3.11-1.92-7.47,2.79-7.74
			c1.94-0.11,3.74,0.34,5.53,1.01c0.81,0.3,1.12-0.96,0.35-1.28c-4.15-1.72-12.56-2.12-12.13,4.42c0.33,4.93,6.77,8.58,11.26,8.41
			c5.17-0.2,8.41-5.15,7.88-10.06c-0.52-4.8-4.28-8.2-8.47-10.12c1.11,0.05,2.22,0.1,3.33,0.14c15.66,0.62,31.87-0.48,47.13-4.4
			c3.07,5.59,8.93,8.32,14.82,10.15c8.54,2.66,17.37,3.65,26.28,3.25c0.56-0.03,0.81-0.79,0.29-1.09
			c-6.43-3.66-13.1-6.82-20.07-9.32c-6.26-2.25-13-4.89-19.63-2.88c-0.23,0.07-0.33,0.25-0.36,0.44c-0.18-0.24-0.36-0.49-0.53-0.75
			c5.32-1.41,10.52-3.15,15.53-5.31c1.54,2.51,4.16,3.22,7.03,3.59c5.53,0.72,11.16,0.26,16.62-0.7c0.44-0.08,0.51-0.76,0.13-0.96
			c-6.3-3.22-13.02-4.44-19.87-3.7c3.65-1.76,7.19-3.73,10.59-5.96c0,0.09,0.03,0.17,0.13,0.21c7.13,3.1,15.15,1.46,21.03-3.47
			c0.32-0.27,0.13-0.79-0.24-0.9c-5.67-1.59-11.42-1.19-16.64,1.16c4.52-3.37,8.76-7.21,12.65-11.6c0.1,0.01,0.19-0.02,0.28-0.08
			c-0.04,0.22,0.2,0.46,0.46,0.33c0.41-0.19,0.8-0.41,1.18-0.63c4.36,0.43,9.58-0.12,12.15-3.93c0.13-0.2-0.01-0.44-0.21-0.51
			c-2.22-0.78-4.4-1.12-6.72-1.03c1.05-1.93,1.69-4.11,1.86-6.36c0.03-0.4-0.42-0.55-0.72-0.41c-2.25,1.01-4.69,2.43-6.47,4.26
			c-1.63-1.46-3.3-2.87-4.98-4.27c-0.28-0.24-0.67-0.08-0.7,0.29c-0.33,3.74,0.77,7.4,3.13,10.25c0.04,0.48,0.1,0.97,0.24,1.47
			c-4.01,4.43-8.45,8.32-13.22,11.73c2.51-5.02,2.9-10.52,1.4-15.91c-0.11-0.38-0.67-0.48-0.87-0.11
			c-2.94,5.52-6.09,11.96-3.78,18.26c-3.61,2.36-7.4,4.44-11.3,6.29c4.36-7.71,4.63-17.1,1.41-25.36c-0.2-0.52-0.85-0.52-1.06,0
			c-3.39,8.61-6.55,17.66-3.55,26.81c-5.05,2.18-10.29,3.95-15.63,5.36c0.01-0.11,0.04-0.23,0.05-0.34
			c6.97-9.03,9.61-20.49,7.57-31.79c-0.09-0.49-0.9-0.61-1.1-0.14c-4.51,10.19-8.96,20.75-7.7,32.11c-0.15,0.2-0.29,0.39-0.44,0.59
			c-3.4,0.85-6.85,1.55-10.31,2.11c-5.2,0.83-10.49,1.41-15.81,1.75c4.99-2.13,8.76-6.52,9.22-12.37c0.57-7.2-4.8-13.82-12.05-14.5
			c-6.81-0.63-14.9,4.83-14.13,12.36c0.55,5.38,7.02,8.91,11.14,4.7c0.59-0.61-0.28-1.43-0.91-0.91c-6.61,5.42-10.26-4.5-7.34-9.29
			c1.42-2.32,3.86-4.06,6.43-4.86c4.5-1.41,9.35,0.04,12.49,3.5c7.64,8.4,0.18,18.79-8.65,21.58c-15.31,0.66-30.89-0.57-45.72-3.21
			c-10.25-1.83-20.41-4.73-29.61-9.68c-9.03-4.86-16.81-11.57-24.9-17.78c-12.19-9.37-30.35-21.23-46.42-14.5
			C489.86,264.81,492.92,281.1,503.37,287.97z M741.18,268.78c-2.39,0.37-4.78,0.78-7.16,1.22c0.51-0.61,0.99-1.26,1.4-1.95
			C736.88,268.04,740.32,268.02,741.18,268.78z M731.58,272.32c0.64-0.47,1.22-1.01,1.77-1.57c2.68-0.49,5.37-1.01,8.03-1.59
			c0.12,1-2.5,2.07-3.35,2.37C735.93,272.26,733.76,272.33,731.58,272.32z M729.41,272.32c1.84-3.55,4.01-6.72,6.91-9.53
			c0.04-0.04,0.05-0.08,0.05-0.13c-0.5,2.93-1.85,5.52-3.84,7.62c-0.12,0.02-0.25,0.04-0.37,0.07c-0.24,0.05-0.27,0.29-0.16,0.45
			c-0.56,0.54-1.15,1.05-1.79,1.52C729.95,272.32,729.68,272.32,729.41,272.32z M736.49,262.03c-0.03,0.21-0.08,0.4-0.11,0.61
			c-0.01-0.14-0.2-0.26-0.33-0.13c-2.79,2.71-5.31,5.74-7.26,9.11c-0.01-0.01-0.02-0.02-0.03-0.04
			C728.29,266.93,732.58,263.93,736.49,262.03z M727.79,270.25c-1.61-2.48-2.42-5.27-2.34-8.29c1.47,1.22,2.96,2.42,4.46,3.59
			c-0.41,0.47-0.77,0.96-1.08,1.48c-0.7-1.41-1.39-2.92-2.33-4.15c-0.13-0.17-0.45-0.08-0.37,0.15c0.57,1.58,1.55,3.07,2.41,4.52
			C728.14,268.4,727.87,269.29,727.79,270.25z M714.16,284.36c-0.1,0.23,0.05,0.45,0.24,0.51c-0.61,0.44-1.23,0.87-1.85,1.29
			c0.87-5.03,2.19-9.95,3.27-14.94C716.61,275.69,716.01,280.08,714.16,284.36z M712.04,287.76c0.21-0.14,0.43-0.29,0.64-0.43
			c0.05,0.04,0.11,0.07,0.19,0.07c5.94,0.4,11.59-0.31,17.2-2.3c0.34-0.12,0.2-0.67-0.15-0.55c-2.3,0.75-4.63,1.38-7.02,1.78
			c-1.92,0.32-5.94,1.21-7.86,0.52c-0.38-0.14-0.63-0.12-0.74-0.09c0.08-0.04,0.21-0.13,0.4-0.32c0.83-0.82,2.93-1.28,4.03-1.6
			c1.98-0.58,4.07-0.89,6.14-0.93c1.26-0.03,2.48,0.08,3.73,0.25c1.17,0.16,2.36-0.04,2.02,0.87c-0.55,1.45-4.46,2.57-5.75,2.97
			C720.62,289.32,716.24,289,712.04,287.76z M715.58,270.14c0.06,0.26,0.13,0.52,0.18,0.77c-0.13-0.15-0.41-0.16-0.48,0.09
			c-1.42,4.48-2.33,9.11-3.28,13.71C711.22,279.52,713.2,274.79,715.58,270.14z M716.91,297.01c-4.39-0.35-8.78-0.76-13.15-1.32
			c-1.15-0.15-5.16-0.19-5.2-0.42c0.12,0.07,0.3,0.06,0.4-0.1c0.01-0.02,0.02-0.04,0.04-0.06c0.46-0.09,1.3-0.19,2.66-0.32
			c2.17-0.21,4.36-0.18,6.53,0.05c2.66,0.29,5.3,0.91,7.81,1.82C716.35,296.79,716.64,296.9,716.91,297.01z M697.96,295.78
			c6.55,0.98,13.13,1.73,19.74,2.18c0.29,0.02,0.43-0.19,0.43-0.41c2.28,1.24-2.48,0.86-4.77,1
			C708.82,298.84,701.43,299.57,697.96,295.78z M697.76,279.72c0.2-0.87,2.34-10.18,3.43-10.23c1.51-0.06,1.64,11.11,1.55,12.25
			c-0.37,4.25-1.74,8.13-3.64,11.9c-0.25,0.11-0.49,0.22-0.74,0.33c1.33-7.77,2.46-15.57,3.35-23.41c0.06-0.57-0.81-0.55-0.89,0
			c-0.97,7.22-2.05,14.43-3.27,21.61C696.6,288.05,696.8,283.96,697.76,279.72z M717.28,312.62c-10.86-3.54-21.71-7.06-32.57-10.59
			c6.28-1.03,13.04,1.76,18.82,3.96c5.58,2.12,10.95,4.69,16.17,7.58c-0.73,0.01-1.48,0.01-2.24,0.01
			C717.73,313.34,717.74,312.78,717.28,312.62z M682.65,302.53c11.35,3.69,22.7,7.37,34.06,11.05
			C705,313.44,690.04,311.4,682.65,302.53z M681.85,297.46c1.6-8.15,5.56-15.69,6.62-23.93
			C688.83,282.04,686.51,290.27,681.85,297.46z M681.24,295.13c0.21-8.43,3.13-16.31,6.51-24.07
			C687.14,279.48,683.29,287.05,681.24,295.13z"/>
	</g>
	<g>
		<path class="st1" d="M226.05,75.57c7.82-10.48,15.72-19.56,23.69-27.24c7.67-7.38,14.53-12.69,20.59-15.94
			c6.05-3.24,11.15-4.87,15.28-4.87c6.34,0,10.18,3.03,11.51,9.08c0.29,0.44,0.96,0.59,1.99,0.44c1.03-0.14,1.55-0.74,1.55-1.77
			c0-0.14-0.04-0.25-0.11-0.33c-0.08-0.07-0.11-0.18-0.11-0.33c-1.48-4.43-4.06-7.86-7.75-10.3c-3.7-2.43-8.05-3.65-13.07-3.65
			c-5.75,0-12.14,1.77-19.15,5.31c-7.01,3.54-14.14,9.23-21.37,17.05c-8.27,8.86-16.25,19.01-23.92,30.45
			c-7.67,11.45-15.02,23-22.03,34.66c-7.01,11.66-13.69,22.37-20.04,32.11c-2.22,3.4-5.06,7.53-8.53,12.4
			c-3.47,4.87-7.12,9.38-10.96,13.51c-3.84,4.14-7.67,6.95-11.51,8.42c5.02-4.57,9.11-9.67,12.29-15.28s5.57-11.59,7.2-17.94
			c2.22-8.12,3.51-16.38,3.88-24.8c0.36-8.42,0.62-16.53,0.77-24.36c0.15-5.61,0.48-11.77,1-18.49c0.51-6.71,2.17-12.58,4.98-17.6
			c2.06-3.83,4.21-7.12,6.42-9.85c2.21-2.73,4.87-4.62,7.97-5.65c1.18-0.59,2.8-0.89,4.87-0.89c1.03,0,1.55-0.44,1.55-1.33
			c0.3-0.74,0.11-1.29-0.55-1.66c-0.66-0.37-1.36-0.63-2.1-0.78h-5.76c-10.49,0-21.04-0.55-31.67-1.66
			c-10.63-1.11-21.26-1.66-31.89-1.66c-13.58,0-26.91,1.77-39.97,5.31c-13.07,3.54-24.55,10.19-34.44,19.93
			c-4.58,4.58-8.46,9.74-11.63,15.5c-3.18,5.76-4.76,11.89-4.76,18.38c0,8.71,2.55,14.98,7.64,18.82c5.1,3.84,11.04,5.76,17.83,5.76
			c5.17,0,10.04-0.89,14.62-2.66c4.28-1.63,8.31-4.02,12.07-7.2c3.76-3.17,6.83-6.86,9.19-11.07c2.36-4.21,3.54-8.6,3.54-13.18
			c0-2.95-0.63-6.09-1.88-9.41c-1.25-3.33-3.5-5.13-6.75-5.43c-0.74,0-1.15,0.22-1.22,0.66c-0.08,0.44,0.18,0.89,0.77,1.33
			c0.74,0.45,1.32,1.33,1.77,2.66c0.45,1.33,0.74,2.66,0.89,3.99c0.59,7.97-1.44,15.17-6.09,21.59c-4.65,6.42-10.6,10.89-17.83,13.4
			c-3.69,1.33-7.38,1.99-11.07,1.99c-4.73,0-8.82-1.37-12.29-4.1c-3.47-2.73-5.2-7.27-5.2-13.62c0-5.61,1.62-11.29,4.87-17.05
			c3.24-5.76,7.38-10.92,12.4-15.5c8.56-7.82,18.86-13.65,30.89-17.49c12.03-3.83,24.1-6.12,36.21-6.86
			c3.39-0.29,7.05-0.47,10.96-0.55c3.91-0.07,7.94-0.11,12.07-0.11c7.53,0,14.17,0.22,19.93,0.66c3.1,0.15,5.31,0.29,6.64,0.44
			c1.33,0.15,2.95,0.22,4.87,0.22c-4.73,2.36-9.3,5.61-13.73,9.74c-4.43,4.13-8.49,8.45-12.18,12.95c-3.69,4.51-6.79,8.53-9.3,12.07
			c-7.68,10.78-14.62,22-20.82,33.66c-6.2,11.67-12.33,23.36-18.38,35.1c-6.05,11.73-12.84,23.14-20.37,34.21
			c-3.25,4.73-6.9,9.41-10.96,14.06c-4.06,4.65-8.6,8.48-13.62,11.51c-5.02,3.02-10.56,4.54-16.61,4.54c-2.66,0-5.17-0.3-7.53-0.89
			c-2.07-0.6-4.1-1.89-6.09-3.88s-2.69-4.1-2.1-6.31c0.15-0.74-0.03-1.08-0.55-1c-0.51,0.07-1.14,0.48-1.88,1.22
			c-0.89,1.33-1.33,2.8-1.33,4.43c0,2.95,1.18,5.16,3.54,6.64c2.36,1.48,5.02,2.4,7.97,2.77c2.95,0.36,5.23,0.55,6.86,0.55
			c3.84,0,7.71-0.37,11.63-1.07c3.9-0.74,7.71-2.07,11.4-3.99c6.2-2.96,12.03-7.05,17.49-12.29c5.46-5.24,10.34-10.74,14.62-16.5
			c7.97-10.63,14.98-21.92,21.04-33.88s12-24.06,17.83-36.32c5.83-12.25,12.29-23.99,19.38-35.21c1.03-1.62,2.77-4.21,5.2-7.75
			c2.43-3.54,5.2-7.2,8.3-10.96c3.1-3.76,6.23-6.83,9.41-9.19c3.18-2.36,6.02-3.25,8.53-2.66c-4.13,1.78-7.9,4.65-11.29,8.64
			c-3.4,3.98-6.05,7.68-7.97,11.07c-2.36,4.13-4.09,8.75-5.2,13.84c-1.11,5.09-2.03,9.93-2.77,14.5c-1.33,9.89-2.4,19.78-3.21,29.67
			s-2.47,19.63-4.98,29.23c-1.92,6.94-4.43,13.37-7.53,19.27c-3.1,5.9-7.16,10.63-12.18,14.17c-0.74,0.44-1.08,0.96-1,1.55
			c0.07,0.59,0.55,0.89,1.44,0.89c4.57,0.29,9.37-1.15,14.39-4.32c5.02-3.17,9.97-7.23,14.84-12.18s9.34-9.93,13.4-14.95
			c4.06-5.01,7.42-9.3,10.08-12.84c7.38-9.74,14.8-20.15,22.26-31.22C210.58,96.83,218.22,86.05,226.05,75.57z"/>
		<path class="st1" d="M524.73,144.64c-0.44,0-0.89,0.3-1.33,0.89c-2.8,5.02-5.61,9.74-8.41,14.17c-2.81,4.43-5.91,8.49-9.3,12.18
			c-1.48,1.77-3.33,3.54-5.54,5.31c-2.21,1.77-4.5,2.66-6.86,2.66c-2.07,0-3.47-0.73-4.21-2.21s-1.11-2.95-1.11-4.43
			c0-3.39,0.96-7.49,2.88-12.29c1.91-4.8,3.68-8.82,5.31-12.07c2.36-4.72,5.17-10,8.42-15.83c3.24-5.83,6.42-10.74,9.52-14.73
			c-1.47-2.8-4.17-4.98-8.08-6.53c-3.91-1.56-8.45-2.33-13.62-2.33c-4.58,0-9.12,0.7-13.62,2.1c-4.5,1.41-8.3,3.22-11.4,5.43
			c-5.31,3.98-10.15,8.74-14.5,14.28c-4.36,5.53-7.86,11.4-10.52,17.6c-0.09,0.21-0.16,0.41-0.25,0.62
			c-2.06,3.56-4.11,6.96-6.16,10.2c-2.81,4.43-5.91,8.49-9.3,12.18c-1.62,1.92-3.91,3.81-6.86,5.65c-2.95,1.85-5.68,2.77-8.19,2.77
			c-2.36,0-4.02-0.73-4.98-2.21c-0.96-1.48-1.44-3.33-1.44-5.54c0-3.39,0.7-7.08,2.1-11.07c1.4-3.98,2.4-6.64,2.99-7.97
			c2.8-6.79,6.01-13.84,9.63-21.15c3.61-7.31,6.75-13.25,9.41-17.83h14.39c0.59,0,1.22-0.37,1.88-1.11c0.67-0.73,1-1.4,1-1.99
			c0-0.29-0.22-0.44-0.66-0.44H431.3c0.44-0.88,1.4-2.58,2.88-5.09c1.47-2.5,3.1-5.23,4.87-8.19c1.77-2.95,3.46-5.68,5.09-8.19
			c1.62-2.5,2.8-4.28,3.54-5.31c-0.74-0.29-2.32,0.08-4.76,1.11c-2.44,1.03-4.47,2.58-6.09,4.65c-2.21,2.37-4.46,5.17-6.75,8.42
			c-2.3,3.25-4.62,5.9-6.98,7.97c-1.47,1.33-3.24,2.36-5.31,3.1c-2.07,0.74-5.17,1.11-9.3,1.11c-0.59,0-1.11,0.34-1.55,1
			c-0.44,0.66-0.66,1.29-0.66,1.88c0,0.74,0.22,1.11,0.66,1.11h10.41c-2.36,3.99-4.54,8.01-6.53,12.07s-3.58,7.27-4.76,9.63
			c-1.21,2.65-2.46,5.5-3.75,8.54c-0.15,0.11-0.3,0.28-0.45,0.5c-1.33,2.36-2.99,5.35-4.98,8.97c-1.99,3.62-4.2,7.16-6.64,10.63
			c-2.43,3.47-5.06,6.46-7.86,8.97c-4.43,3.99-8.05,5.98-10.85,5.98c-3.39,0-5.09-2.28-5.09-6.86c0-2.65,0.7-5.94,2.1-9.85
			c1.4-3.91,3.65-8.22,6.75-12.95c2.07-3.1,3.95-6.02,5.65-8.75c1.7-2.73,3.51-5.87,5.43-9.41c1.03-1.77,2.1-3.95,3.21-6.53
			c1.11-2.58,1.66-4.99,1.66-7.2c0-1.77-0.52-3.25-1.55-4.43c-1.04-1.18-2.96-1.77-5.76-1.77c-2.37,0-5.25,0.11-8.64,0.33
			c-3.39,0.22-6.64,0.33-9.74,0.33c-2.07,0-3.95-0.07-5.65-0.22c-1.7-0.14-3.07-0.36-4.1-0.66c0.14-0.74,0.25-1.66,0.33-2.77
			c0.07-1.1,0.11-2.32,0.11-3.65c0-1.18-0.07-2.39-0.22-3.65c-0.14-1.25-0.37-2.4-0.66-3.43c-1.33-3.99-3.02-5.98-5.09-5.98
			c-1.48,0-2.77,0.93-3.88,2.77c-1.11,1.84-1.66,4.09-1.66,6.75c0,0.59,0.03,1.22,0.11,1.88c0.07,0.66,0.18,1.36,0.33,2.1
			c1.18,4.73,3.46,8.05,6.86,9.97c-1.04,6.35-2.99,12.44-5.87,18.27c-2.61,5.28-5.31,10.66-8.1,16.12
			c-1.92,3.29-3.83,6.46-5.74,9.48c-2.81,4.43-5.91,8.49-9.3,12.18c-1.48,1.77-3.33,3.54-5.54,5.31c-2.21,1.77-4.5,2.66-6.86,2.66
			c-2.07,0-3.47-0.73-4.21-2.21s-1.11-2.95-1.11-4.43c0-3.39,0.96-7.49,2.88-12.29c1.91-4.8,3.68-8.82,5.31-12.07
			c2.36-4.72,5.16-10,8.41-15.83c3.24-5.83,6.42-10.74,9.52-14.73c-1.47-2.8-4.17-4.98-8.08-6.53c-3.91-1.56-8.45-2.33-13.62-2.33
			c-4.58,0-9.12,0.7-13.62,2.1c-4.5,1.41-8.3,3.22-11.4,5.43c-5.31,3.98-10.15,8.74-14.5,14.28c-4.36,5.53-7.86,11.4-10.52,17.6
			c-0.12,0.29-0.23,0.58-0.35,0.87c-1.72,3.23-3.84,6.85-6.4,10.86c-2.73,4.28-5.72,8.34-8.97,12.18
			c-3.69,4.58-7.45,8.46-11.29,11.63c-3.84,3.17-7.46,4.76-10.85,4.76c-3.25,0-5.65-1.07-7.2-3.21c-1.56-2.15-2.33-4.99-2.33-8.53
			c0-1.62,0.14-3.28,0.44-4.98c0.3-1.7,0.67-3.51,1.11-5.43c1.18-4.87,2.88-10.44,5.09-16.72c2.22-6.27,4.54-12.58,6.98-18.93
			c2.44-6.35,4.73-11.99,6.87-16.94c2.14-4.94,3.73-8.53,4.76-10.74c6.34-12.84,12.51-24.83,18.49-35.98
			c5.98-11.14,11.92-20.55,17.83-28.23c0.58-0.74,0.29-1.14-0.89-1.22c-1.19-0.07-2,0.26-2.44,1c-5.46,7.83-12.59,17.49-21.37,29.01
			c-8.78,11.52-17.53,24.73-26.24,39.64c-3.84,6.65-7.56,13.62-11.18,20.93c-3.62,7.3-6.57,14.65-8.86,22.03
			c-2.29,7.38-3.5,14.54-3.65,21.48c0,6.94,1.66,12.18,4.98,15.72s7.79,5.31,13.4,5.31c4.28,0,8.71-1.63,13.27-4.86
			c4.58-3.25,8.94-7.16,13.07-11.74c3.68-4.14,7-8.46,9.96-12.96c0.86-1.3,1.65-2.55,2.41-3.76c-0.41,2.41-0.63,4.81-0.63,7.19
			c0,4.73,1,8.64,2.99,11.74c2,3.1,4.84,4.65,8.53,4.65c3.83,0,8.11-1.92,12.84-5.76c2.95-2.36,5.87-5.24,8.75-8.64
			c2.88-3.39,5.35-6.49,7.42-9.3c-0.29,1.62-0.55,3.36-0.77,5.2c-0.22,1.85-0.33,3.14-0.33,3.88c0,3.7,0.89,7.06,2.66,10.08
			c1.77,3.02,5.01,4.54,9.74,4.54c2.65,0,5.38-0.74,8.2-2.2c2.81-1.48,5.24-3.25,7.31-5.32c4.28-4.28,7.97-8.86,11.07-13.73
			c2.97-4.65,5.64-9.3,8.06-13.94c1.13-2.04,2.27-4.19,3.44-6.45c2.36-4.57,4.46-9.15,6.31-13.73c1.84-4.57,3.06-8.71,3.65-12.4
			c0.59,0.15,1.25,0.22,1.99,0.22s1.55,0,2.44,0h6.2c1.47,0,2.95,0,4.43,0c1.48,0,2.81,0.15,3.99,0.44
			c2.07,0.15,3.51,0.74,4.32,1.77c0.81,1.03,1.22,2.29,1.22,3.76c0,2.81-1.11,5.69-3.32,8.64c-3.54,5.02-7.23,9.97-11.07,14.84
			c-3.84,4.87-6.72,9.97-8.64,15.28c-1.18,3.54-1.77,6.57-1.77,9.08c0,4.29,1.21,7.72,3.65,10.3c2.44,2.59,5.5,3.88,9.19,3.88
			c2.06,0,4.31-0.48,6.75-1.44c2.44-0.96,4.91-2.47,7.42-4.54c4.73-3.98,8.71-8.71,11.98-14.2c0.76-1.27,1.49-2.51,2.2-3.73
			c-0.88,3.43-1.33,6.67-1.33,9.74c0,4.87,1.44,8.38,4.32,10.52c2.87,2.14,6.16,3.21,9.85,3.21c3.1,0,6.27-0.78,9.53-2.36
			c3.25-1.55,5.83-3.28,7.75-5.2c4.28-4.28,7.93-8.86,10.96-13.73c0.46-0.75,0.91-1.49,1.37-2.24c-0.41,2.39-0.62,4.77-0.62,7.14
			c0,4.73,1,8.64,2.99,11.74c2,3.1,4.84,4.65,8.53,4.65c3.83,0,8.11-1.92,12.84-5.76c2.95-2.36,5.87-5.24,8.75-8.64
			c2.88-3.39,5.35-6.49,7.42-9.3c-0.29,1.62-0.55,3.36-0.77,5.2c-0.22,1.85-0.33,3.14-0.33,3.88c0,3.7,0.89,7.06,2.66,10.08
			c1.77,3.02,5.01,4.54,9.74,4.54c2.66,0,5.39-0.74,8.18-2.2c2.81-1.48,5.24-3.25,7.31-5.32c4.28-4.28,7.97-8.86,11.07-13.73
			c3.11-4.88,5.91-9.75,8.42-14.62c0.29-0.44,0.44-1.03,0.44-1.77C525.62,145.08,525.32,144.64,524.73,144.64z M291.01,161.13
			c-3.17,4.35-6.42,8.05-9.74,11.07c-3.32,3.03-6.39,4.54-9.19,4.54c-1.92,0-3.28-0.92-4.1-2.78c-0.82-1.84-1.22-3.95-1.22-6.31
			c0-4.43,1-9.08,2.99-13.95s4.61-9.66,7.86-14.39c3.24-4.72,6.56-9.07,9.96-13.06c3.55-3.83,7.46-7.01,11.74-9.52
			c4.28-2.5,8.71-3.76,13.29-3.76c2.95,0,5.98,0.52,9.08,1.55c3.1,1.03,5.31,2.58,6.64,4.65c-0.29,0-0.55,0.04-0.77,0.11
			c-0.22,0.08-0.48,0.11-0.77,0.11c-5.61,1.77-9.74,4.28-12.4,7.53c-2.66,3.25-5.54,7.31-8.64,12.18c-1.48,2.21-3.51,5.35-6.09,9.41
			C297.06,152.57,294.18,156.78,291.01,161.13z M473.7,161.13c-3.17,4.35-6.42,8.05-9.74,11.07c-3.32,3.03-6.39,4.54-9.19,4.54
			c-1.92,0-3.29-0.92-4.11-2.78c-0.82-1.84-1.22-3.95-1.22-6.31c0-4.43,1-9.08,2.99-13.95s4.61-9.66,7.86-14.39
			c3.25-4.72,6.57-9.07,9.97-13.06c3.55-3.83,7.46-7.01,11.74-9.52c4.28-2.5,8.71-3.76,13.29-3.76c2.95,0,5.98,0.52,9.08,1.55
			c3.1,1.03,5.31,2.58,6.64,4.65c-0.29,0-0.55,0.04-0.77,0.11c-0.22,0.08-0.48,0.11-0.77,0.11c-5.61,1.77-9.74,4.28-12.4,7.53
			c-2.66,3.25-5.54,7.31-8.64,12.18c-1.48,2.21-3.51,5.35-6.09,9.41C479.75,152.57,476.87,156.78,473.7,161.13z"/>
		<path class="st1" d="M1076.56,23.07c-1.63-1.03-3.55-1.55-5.76-1.55c-0.89,0-1.81,0.07-2.77,0.22c-0.96,0.15-1.88,0.29-2.77,0.44
			c-7.68,2.36-15.25,7.08-22.7,14.17c-7.46,7.08-14.61,15.46-21.48,25.13c-6.87,9.67-13.29,19.86-19.27,30.56
			c-5.98,10.7-11.38,21.07-16.17,31.11c-4.57,9.57-8.37,17.92-11.4,25.07c-1.55,2.72-3.57,6.06-6.08,10.03
			c-3.03,4.8-6.39,9.12-10.08,12.96c-2.81,3.1-5.65,5.39-8.53,6.86c-2.88,1.47-5.57,2.21-8.08,2.21c-3.99,0-6.8-1.18-8.42-3.54
			c-1.63-2.36-2.44-5.39-2.44-9.08c0-4.28,0.73-8.97,2.21-14.06c1.47-5.09,3.13-9.92,4.98-14.5s3.21-8.05,4.1-10.41
			c5.02-3.98,10.77-8.78,17.27-14.39c6.49-5.61,13.18-11.66,20.04-18.16c6.87-6.5,13.4-13.1,19.6-19.82
			c6.21-6.72,11.59-13.21,16.17-19.49c4.57-6.27,7.82-11.99,9.74-17.16c1.18-3.55,1.77-6.5,1.77-8.86c0-3.4-0.85-5.8-2.55-7.2
			c-1.7-1.4-3.8-2.1-6.31-2.1c-1.33,0-2.81,0.22-4.43,0.66c-5.91,1.78-11.82,5.1-17.72,9.97c-5.9,4.87-11.62,10.63-17.16,17.27
			c-5.53,6.65-10.74,13.7-15.61,21.15s-9.3,14.72-13.29,21.81c-3.98,7.08-7.3,13.36-9.96,18.82c-1.32,2.81-3.06,6.42-5.2,10.85
			c-2.14,4.43-4.28,9.31-6.42,14.62c-1.76,4.37-3.26,8.76-4.52,13.19c-1.28,2.44-2.98,5.41-5.1,8.91c-2.51,4.13-5.28,8.27-8.3,12.4
			c-3.02,4.14-6.24,7.64-9.63,10.52s-6.64,4.32-9.74,4.32c-2.96,0-4.91-1.18-5.87-3.54s-1.44-4.94-1.44-7.75
			c0-2.07,0.11-4.02,0.33-5.87c0.22-1.85,0.4-3.29,0.55-4.32c1.33-9,3.8-18.89,7.42-29.67c3.62-10.77,8.01-21.66,13.18-32.66
			c5.17-10.99,10.7-21.33,16.61-31c5.91-9.67,11.85-17.9,17.83-24.69c5.98-6.79,11.7-11.37,17.16-13.73
			c1.18-0.45,2.39-0.81,3.65-1.11c1.26-0.29,2.62-0.44,4.1-0.44c3.39,0,6.64,0.82,9.74,2.44c3.1,1.63,5.09,4.43,5.98,8.42
			c0.3,0.74,0.67,0.96,1.11,0.66c0.44-0.29,0.66-0.96,0.66-1.99c0-0.88-0.07-1.55-0.22-1.99c-1.03-4.43-2.84-7.53-5.42-9.3
			c-2.59-1.77-5.5-2.66-8.75-2.66c-2.22,0-4.54,0.34-6.98,1c-2.44,0.67-4.77,1.59-6.98,2.77c-8.27,4.13-16.05,10.26-23.36,18.38
			s-14.22,17.13-20.71,27.02c-7.38,11.22-14.58,22.48-21.59,33.77c-7.01,11.3-14.21,22.48-21.59,33.55
			c-4.87,7.38-10.63,14.47-17.27,21.26c-6.64,6.79-12.84,11.96-18.6,15.5c-3.69,2.22-7.64,4.17-11.85,5.87s-8.23,2.55-12.07,2.55
			c-3.85,0-7.17-1.21-9.97-3.65s-4.43-6.83-4.87-13.18c-0.29-4.88,0.48-10.26,2.33-16.17c1.84-5.9,4.35-12.07,7.53-18.49
			c3.17-6.43,6.65-12.88,10.41-19.38c3.76-6.49,7.34-12.62,10.74-18.38c2.81-4.72,5.65-10.03,8.53-15.94
			c2.88-5.9,5.32-11.99,7.31-18.27c1.99-6.27,2.99-12.14,2.99-17.6c0-5.76-1.33-10.63-3.99-14.62c-2.81-4.13-6.35-7.05-10.63-8.75
			c-4.28-1.7-9-2.55-14.17-2.55c-6.79,0-13.95,1.33-21.48,3.99s-14.58,6.09-21.15,10.3c-6.57,4.21-11.92,8.82-16.05,13.84
			c-9.01,11.07-13.51,21.85-13.51,32.33c0,5.91,1.78,11.07,5.32,15.5c3.54,4.42,9.15,7.23,16.83,8.41c2.65,0.44,5.38,0.66,8.19,0.66
			c6.34,0,10.99-0.73,13.95-2.21c0.58-0.3,0.81-0.74,0.66-1.33s-0.45-0.89-0.89-0.89c-0.29,0-0.51,0.07-0.66,0.22
			c-2.81,1.03-6.42,1.55-10.85,1.55c-1.33,0-2.74-0.07-4.21-0.22c-1.48-0.14-2.88-0.36-4.21-0.66c-5.76-1.48-9.93-3.95-12.51-7.42
			c-2.59-3.47-3.88-7.49-3.88-12.07c0-4.72,1.18-9.78,3.54-15.17s5.46-10.59,9.3-15.61c3.83-5.02,8.63-9.67,14.39-13.95
			c5.76-4.28,11.99-7.75,18.71-10.41c6.72-2.66,13.32-3.99,19.82-3.99c5.31,0,9.93,1.44,13.84,4.32s5.87,8.01,5.87,15.39
			c0,5.47-1.14,11.37-3.43,17.72c-2.29,6.35-4.98,12.4-8.08,18.16c-3.1,5.75-5.83,10.48-8.19,14.17c-4.43,6.94-8.9,13.88-13.4,20.82
			c-4.51,6.94-8.49,14.1-11.96,21.48c-3.47,7.38-5.87,15.2-7.2,23.47c-0.44,2.37-0.66,4.8-0.66,7.31c0,4.14,0.77,8.09,2.32,11.85
			c1.55,3.77,4.17,6.83,7.86,9.19c3.84,2.21,8.49,3.32,13.95,3.32c4.13,0,8.6-0.7,13.4-2.1s9.78-3.58,14.95-6.53
			c6.64-3.84,12.98-8.97,19.04-15.39c6.05-6.42,11.84-13.54,17.38-21.37c5.54-7.82,10.66-15.72,15.39-23.69
			c-3.69,8.71-7.01,17.42-9.96,26.13c-2.96,8.72-4.43,17.13-4.43,25.25c0,5.02,1.03,9.52,3.1,13.51s6.2,5.98,12.4,5.98
			c4.57,0,8.97-1.7,13.19-5.14c4.21-3.4,8.12-7.6,11.74-12.62c3.61-5.02,6.82-10,9.63-14.95c0.23-0.4,0.45-0.79,0.67-1.19
			c-0.45,2.81-0.68,5.48-0.68,7.99c0,4.87,1.18,8.9,3.54,12.07c2.36,3.17,6.49,4.76,12.4,4.76c3.68,0,7.53-0.77,11.52-2.33
			c3.99-1.55,7.38-3.72,10.19-6.53c3.64-3.5,6.97-7.48,10.02-11.91c-1.06,2.86-2.09,5.72-3.06,8.59
			c-2.59,7.67-4.91,14.98-6.98,21.92c-1.91,6.79-3.58,13.98-4.98,21.59c-1.4,7.6-2.1,14.65-2.1,21.15c0,5.76,1.03,10.74,3.1,14.95
			s5.83,6.31,11.29,6.31c2.96,0,5.77-0.87,8.43-2.64c2.66-1.77,5.17-3.84,7.53-6.2c4.28-4.73,8.04-10.67,11.29-17.83
			c3.25-7.16,5.76-14.36,7.53-21.59c0.88-3.69,1.51-7.27,1.88-10.74c0.36-3.47,0.55-6.68,0.55-9.63c0-1.33,0-2.63,0-3.88
			s-0.15-2.4-0.44-3.43c6.93-3.1,12.73-7.53,17.38-13.29c4.65-5.76,8.67-11.81,12.07-18.16c0.44-0.89,0.66-1.92,0.66-3.1
			s-0.22-1.77-0.66-1.77c-0.44,0-0.89,0.52-1.33,1.55c-3.4,6.49-7.42,12.81-12.07,18.93s-10.3,10.44-16.94,12.95v-0.2
			c-0.74-2.65-2.14-4.94-4.21-6.86c-2.07-1.92-4.72-2.88-7.97-2.88c-2.81,0-5.28,1-7.42,2.99c-2.14,2-3.21,4.32-3.21,6.98
			c0,2.81,1.47,5.24,4.43,7.31c-0.3-1.92,0.44-3.62,2.21-5.09c1.18-0.89,2.58-1.33,4.21-1.33c1.77,0,3.25,0.66,4.43,1.99
			c0.88,1.33,1.51,3.02,1.88,5.09c0.36,2.07,0.55,4.13,0.55,6.2c0,2.8-0.18,5.5-0.55,8.08s-0.71,4.68-1,6.31
			c-1.33,6.64-3.32,13.5-5.98,20.59c-2.65,7.08-5.9,12.98-9.74,17.71c-2.22,2.8-4.17,4.8-5.87,5.98c-1.7,1.18-3.36,1.77-4.98,1.77
			c-3.24,0-5.53-1.55-6.86-4.65s-1.99-6.72-1.99-10.85c0-3.84,0.34-7.79,1-11.85c0.67-4.06,1.45-7.86,2.33-11.4s1.62-6.27,2.21-8.19
			c1.92-6.2,4.02-12.4,6.31-18.6s4.24-11.81,5.87-16.83c0.74-1.92,2.22-5.53,4.43-10.85c2.22-5.32,5.1-11.77,8.64-19.38
			c3.55-7.6,7.46-15.76,11.74-24.47c5.17-3.69,11.81-8.82,19.93-15.39c8.12-6.57,16.61-14.14,25.47-22.7
			c7.23-7.09,13.54-14.03,18.93-20.82c5.39-6.78,9.27-13.13,11.63-19.04c1.33-3.4,1.99-6.28,1.99-8.64
			C1079.66,26.76,1078.63,24.4,1076.56,23.07z M958.41,96.8c5.23-9.15,10.59-17.93,16.05-26.35c5.46-8.42,10.66-15.91,15.61-22.48
			s9.27-11.63,12.96-15.17c2.22-2.22,4.65-4.03,7.31-5.43c2.65-1.4,4.94-2.1,6.86-2.1c3.39,0,5.09,1.92,5.09,5.76
			c0,2.07-0.66,5.02-1.99,8.86c-1.48,4.14-4.32,9.01-8.53,14.62c-4.21,5.62-9.16,11.59-14.84,17.94
			c-5.69,6.34-11.7,12.69-18.05,19.04s-12.55,12.29-18.6,17.83c-6.05,5.53-11.37,10.29-15.94,14.28
			C948.47,114.89,953.16,105.96,958.41,96.8z M1073.88,38.55c-1.63,3.98-4.06,8.12-7.31,12.4c-3.25,4.29-6.53,8.27-9.85,11.96
			c-3.32,3.69-6.01,6.65-8.08,8.86c-7.24,7.53-14.28,14.55-21.15,21.04c-6.86,6.5-14.65,13-23.36,19.49
			c5.31-10.33,10.99-20.74,17.04-31.24c6.05-10.48,12.18-20.15,18.38-29.01c6.2-8.86,12.18-16.02,17.94-21.48
			c2.06-2.06,4.28-3.69,6.64-4.87s4.5-1.77,6.42-1.77c3.69,0,5.54,1.99,5.54,5.98C1076.09,32.28,1075.35,35.16,1073.88,38.55z"/>
		<path class="st1" d="M674.5,131.85c-0.37,0-0.6,0.16-0.68,0.49c-0.08,0.33,0.13,0.9,0.62,1.72s0.74,1.78,0.74,2.89
			c0,1.11-0.32,2.16-0.98,3.14c-1.39,1.89-3.61,3.53-6.64,4.92c-6.24,2.88-11.49,4.31-15.75,4.31h-21.78
			c-6.07,0-11.07,0.98-15.01,2.95c-3.94,1.97-6.4,4.39-7.38,7.26c-0.42,0.98-0.62,2.25-0.62,3.81c0,1.56,0.73,3.48,2.21,5.78
			c2.13,3.52,5.78,6.68,10.95,9.47c0.58,0.33,0.93,0.1,1.05-0.68c0.12-0.78-0.23-1.42-1.05-1.91c-5.49-2.87-8.24-6.07-8.24-9.6
			c0-3.53,1.55-6.36,4.67-8.49c2.62-1.8,5.26-2.89,7.93-3.26c2.66-0.37,4.84-0.55,6.52-0.55c1.68,0,3.73,0.14,6.15,0.43
			c2.42,0.29,4.72,1.27,6.89,2.95c2.17,1.69,3.26,3.8,3.26,6.34c0,5.34-2.96,10.71-8.86,16.12s-12.87,8.12-20.91,8.12
			c-9.02,0-14.88-3.94-17.59-11.81c-0.9-2.79-1.35-5.62-1.35-8.49c0-5.17,1.51-10.46,4.55-15.87c4.76-8.37,11.73-13.24,20.92-14.64
			c3.6,3.61,7.75,5.41,12.42,5.41c2.71,0,4.56-0.62,5.54-1.85c0.41-0.49,0.62-1.06,0.62-1.72c0-0.66-0.29-1.31-0.86-1.97
			c-1.15-1.47-3.45-2.21-6.89-2.21l-8.24,0.25c-0.74-1.64-1.11-3.48-1.11-5.51c0-2.05,0.57-4.38,1.72-7.01
			c2.13-4.67,5.04-8.61,8.73-11.81s7.63-5.64,11.81-7.32s7.83-2.52,10.95-2.52c3.11,0,5.45,0.57,7.01,1.72
			c1.47,0.98,2.21,2.38,2.21,4.18c0,0.5-0.04,0.99-0.12,1.48c-0.17-0.57-0.7-1.09-1.6-1.54c-0.9-0.45-1.85-0.68-2.83-0.68
			c-1.48,0-2.77,0.54-3.88,1.6c-1.11,1.07-1.66,2.42-1.66,4.06c0,1.64,0.55,3.01,1.66,4.12c1.11,1.11,2.59,1.66,4.43,1.66
			c1.84,0,3.5-0.92,4.98-2.77c1.47-1.85,2.21-3.96,2.21-6.34c0-3.77-1.5-6.52-4.49-8.24c-3-1.72-6.63-2.58-10.89-2.58
			c-5.17,0-10.48,0.96-15.93,2.89c-5.46,1.93-10.28,5.03-14.46,9.29c-4.18,4.27-6.29,8.82-6.33,13.66
			c-0.05,4.84,1.08,8.86,3.38,12.06c-6.23,0.65-11.85,2.21-16.85,4.67c-8.7,4.26-14.48,10.29-17.35,18.08
			c-1.07,2.96-1.6,6.16-1.6,9.6s1.31,7.01,3.94,10.7c5.24,7.38,14.23,11.07,26.94,11.07c5.25,0,10.25-0.91,15.01-2.71
			s8.65-4.14,11.69-7.01c6.4-5.83,9.6-11.48,9.6-16.98c0-3.94-1.55-7.18-4.67-9.72c0.25,0,0.45,0,0.62,0
			c5.24,0,10.33-0.94,15.25-2.83c4.92-1.88,8.41-4.38,10.46-7.5c1.07-1.48,1.6-3.1,1.6-4.86c0-1.77-0.57-3.63-1.72-5.6
			C675.18,132.06,674.87,131.85,674.5,131.85z M631.51,136.77c6.06,0,9.1,0.73,9.1,2.21c0,1.06-1.66,1.6-4.98,1.6
			s-5.96-1.23-7.93-3.69C629.01,136.81,630.28,136.77,631.51,136.77z"/>
	</g>
</g>
</svg>
