<?xml version="1.0" encoding="utf-8"?>
<!-- Generator: Adobe Illustrator 28.3.0, SVG Export Plug-In . SVG Version: 6.00 Build 0)  -->
<svg version="1.0" id="Capa_1" xmlns="http://www.w3.org/2000/svg" xmlns:xlink="http://www.w3.org/1999/xlink" x="0px" y="0px"
	 viewBox="0 0 1080 1080" style="enable-background:new 0 0 1080 1080;" xml:space="preserve">
<style type="text/css">
	.st0{fill:#B7BAA7;}
</style>
<g>
	<g>
		<g>
			<path class="st0" d="M1020,828.62v-95.23c-0.77-20.06-33.69-41.09-33.69-41.09v-26.74c0-39.29-25.05-72.78-59.89-85.17V367.34
				c0-44.73-36.26-81-81-81H429.84c0,0,4.13-8.07,4.13-12.6c0-7.54-4.11-14.47-10.72-18.09l-35.1-19.2l-19.2-35.1
				c-3.62-6.61-10.55-10.72-18.09-10.72c-7.54,0-14.47,4.11-18.09,10.72l-19.2,35.1l-35.1,19.2c-6.61,3.62-10.72,10.55-10.72,18.09
				c0,4.54,1.51,8.84,4.13,12.6h-36.72c-44.66-0.26-81,36.08-81.76,80.74v50.53c0.76,7.75,7.04,14.04,14.8,14.04
				c7.75,0,15.15-14.04,15.15-14.04v-50.27c0-29.23,23.69-52.92,52.92-52.92h79.99l17.47,31.89c3.62,6.6,10.54,10.7,18.07,10.7
				c7.53,0,14.46-4.1,18.07-10.7l17.47-31.89h458.07c29.23,0,52.92,23.69,52.92,52.92v207.29c-0.63-0.01-1.26-0.05-1.89-0.05h-33.77
				c0.04-0.88,0.1-1.76,0.1-2.65v-97.51c0-31.52-25.55-57.06-57.06-57.06H618.5c-31.52,0-57.06,25.55-57.06,57.06v97.51
				c0,0.89,0.06,1.77,0.1,2.65h-43.25c0.04-0.88,0.1-1.76,0.1-2.65v-97.51c0-31.52-25.55-57.06-57.06-57.06H274.1
				c-31.51,0-57.06,25.55-57.06,57.06v97.51c0,0.89,0.06,1.77,0.1,2.65h-33.77c-0.63,0-1.26,0.04-1.89,0.05v-91.39
				c0-7.18-5.16-13.6-12.28-14.46c-8.54-1.03-15.79,5.6-15.79,13.93v97.72c-34.85,12.3-59.89,45.54-59.89,84.55v26.46
				c-19.25,4.21-33.69,21.03-33.69,41.09v95.23c0,20.06,14.44,36.88,33.69,41.09v65.1H74.96c0,0-14.04,7.13-14.04,14.89
				s6.28,14.04,14.04,13.19h930.23c7.75,0.85,14.04-5.44,14.04-13.19s-6.28-14.04-14.04-14.89h-18.88v-64.25
				c18.82-4.21,32.92-21.03,32.92-41.09H1020z M372.76,287.44c-3.46,1.89-6.3,4.72-8.2,8.2l-13.7,25.06l-13.7-25.05
				c-1.9-3.47-4.73-6.3-8.2-8.2l-25.06-13.7l25.06-13.7c3.47-1.9,6.3-4.73,8.19-8.2l13.7-25.06l13.71,25.07
				c1.9,3.46,4.73,6.3,8.19,8.19l25.05,13.7L372.76,287.44z M274.11,445.44h187.21c16.01,0,28.99,12.98,28.99,28.99v97.51
				c0,0.89-0.04,1.77-0.12,2.65H245.24c-0.08-0.88-0.12-1.76-0.12-2.65l0-97.51C245.12,458.42,258.1,445.44,274.11,445.44z
				 M121.58,646.65c0-24.29,19.69-43.98,43.98-43.98h523.71c7.18,0,13.6-5.15,14.46-12.28c1.04-8.54-5.6-15.8-13.93-15.8H589.64
				c-0.08-0.88-0.13-1.76-0.13-2.65v-97.51c0-16.01,12.98-28.99,28.99-28.99h187.22c16.01,0,28.99,12.98,28.99,28.99v97.5
				c0,0.89-0.05,1.78-0.13,2.66h-79.4c-7.18,0-13.6,5.15-14.46,12.28c-1.04,8.54,5.6,15.8,13.93,15.8h159.61
				c24.29,0,43.98,19.69,43.98,43.98v43.99H121.58L121.58,646.65z M103.8,718.71h874.08c7.75,0,14.04,6.28,14.04,14.04v38.37H89.77
				l0-38.37C89.77,724.99,96.05,718.71,103.8,718.71z M181.48,933.95h-59.89v-63.64h59.89V933.95z M958.23,933.95h-59.89v-63.64
				h59.89V933.95z M977.89,842.24h-594.5c-7.18,0-13.6,5.15-14.46,12.28c-1.04,8.54,5.6,15.8,13.93,15.8h489.28v63.64H209.55v-63.64
				h107.76c7.18,0,13.6-5.15,14.46-12.28c1.04-8.54-5.6-15.8-13.93-15.8H103.8c-7.75,0-14.04-6.28-14.04-14.04v-29.01h902.16v29.1
				C991.92,835.98,985.63,842.24,977.89,842.24L977.89,842.24z"/>
			<path class="st0" d="M443.58,183.4h14.91v14.91c0,7.18,5.16,13.6,12.28,14.46c8.54,1.03,15.79-5.6,15.79-13.93V183.4h14.91
				c7.18,0,13.6-5.15,14.46-12.28c1.04-8.54-5.6-15.8-13.93-15.8h-15.45l0-14.91c0-7.18-5.16-13.6-12.28-14.46
				c-8.54-1.03-15.79,5.6-15.79,13.93v15.45h-15.45c-8.33,0-14.97,7.26-13.93,15.8C429.98,178.25,436.4,183.4,443.58,183.4z"/>
			<path class="st0" d="M572.72,247.04h5.55v5.55c0,7.18,5.16,13.6,12.28,14.46c8.54,1.03,15.79-5.6,15.79-13.93v-6.09h5.55
				c7.18,0,13.6-5.15,14.46-12.28c1.04-8.54-5.6-15.8-13.93-15.8h-6.09v-5.55c0-7.18-5.16-13.6-12.28-14.46
				c-8.54-1.03-15.79,5.6-15.79,13.93v6.09h-6.09c-8.33,0-14.97,7.26-13.93,15.8C559.13,241.89,565.55,247.04,572.72,247.04z"/>
			<path class="st0" d="M673.51,206.14l26.78,14.65l14.65,26.78c3.61,6.61,10.53,10.71,18.05,10.71h0c7.52,0,14.44-4.1,18.05-10.7
				l14.65-26.78l26.45-14.47c4.7-2.57,8.43-6.73,10.04-11.84c3.09-9.79-1.26-19.83-9.71-24.45l-26.79-14.65l-14.65-26.78v0
				c0-5.91-4.79-10.7-10.7-10.7H733c-7.52,0-14.44,4.1-18.05,10.7l-14.65,26.78l-26.45,14.46c-4.69,2.57-8.43,6.73-10.04,11.83
				C660.71,191.47,665.06,201.51,673.51,206.14L673.51,206.14z M715.62,178.69c3.46-1.89,6.29-4.72,8.19-8.19l9.18-16.79l9.19,16.8
				c1.9,3.46,4.73,6.3,8.19,8.18l16.79,9.18l-16.79,9.18c-3.47,1.89-6.3,4.73-8.2,8.2L733,222.05l-9.19-16.8
				c-1.9-3.46-4.73-6.29-8.19-8.19l-16.79-9.18L715.62,178.69z"/>
		</g>
	</g>
</g>
</svg>
