<?xml version="1.0" encoding="utf-8"?>
<!-- Generator: Adobe Illustrator 28.3.0, SVG Export Plug-In . SVG Version: 6.00 Build 0)  -->
<svg version="1.0" id="Capa_1" xmlns="http://www.w3.org/2000/svg" xmlns:xlink="http://www.w3.org/1999/xlink" x="0px" y="0px"
	 viewBox="0 0 1254 314" style="enable-background:new 0 0 1254 314;" xml:space="preserve">
<style type="text/css">
	.st0{fill:#B7BAA7;}
</style>
<g>
	<path class="st0" d="M772.99,55.49C722.45,34.34,665.34,71.64,627,101.1c-25.44,19.55-49.91,40.66-78.3,55.93
		c-28.95,15.57-60.9,24.71-93.14,30.45c-46.64,8.31-95.63,12.18-143.79,10.11c-27.76-8.76-51.22-41.43-27.21-67.86
		c9.87-10.86,25.12-15.45,39.27-11c8.05,2.53,15.75,8,20.21,15.29c9.18,15.04-2.28,46.24-23.08,29.2c-1.98-1.62-4.73,0.96-2.87,2.87
		c12.93,13.23,33.29,2.15,35.02-14.78c2.42-23.67-23.01-40.86-44.43-38.87c-22.81,2.12-39.69,22.96-37.9,45.6
		c1.45,18.4,13.3,32.21,29,38.91c-16.75-1.07-33.38-2.87-49.73-5.5c-10.89-1.75-21.72-3.96-32.42-6.63
		c-0.47-0.61-0.92-1.23-1.38-1.85c3.94-35.73-10.06-68.93-24.23-100.99c-0.65-1.46-3.19-1.09-3.47,0.45
		c-6.42,35.53,1.87,71.55,23.8,99.97c0.05,0.36,0.12,0.71,0.16,1.07c-16.8-4.44-33.27-10.02-49.15-16.87
		c9.41-28.76-0.5-57.24-11.18-84.31c-0.64-1.62-2.69-1.64-3.32,0c-10.1,25.97-9.28,55.49,4.45,79.74
		c-12.28-5.81-24.18-12.38-35.54-19.79c7.28-19.79-2.63-40.05-11.88-57.42c-0.62-1.16-2.4-0.85-2.74,0.36
		c-4.72,16.96-3.49,34.27,4.39,50.05c-14.98-10.75-28.96-22.99-41.56-36.91c0.43-1.6,0.64-3.13,0.75-4.63
		c7.44-8.99,10.88-20.5,9.86-32.25c-0.1-1.16-1.33-1.66-2.21-0.92C69.1,64.97,63.85,69.42,58.71,74
		c-5.61-5.77-13.28-10.22-20.35-13.41c-0.94-0.43-2.36,0.05-2.26,1.3c0.53,7.09,2.54,13.93,5.85,20.01
		c-7.29-0.3-14.16,0.76-21.14,3.23c-0.62,0.22-1.07,0.98-0.65,1.6c8.09,11.99,24.49,13.71,38.21,12.37c1.2,0.71,2.43,1.39,3.72,2
		c0.83,0.39,1.57-0.36,1.46-1.04c0.26,0.18,0.56,0.28,0.87,0.25c12.21,13.81,25.55,25.9,39.77,36.5
		c-16.43-7.39-34.52-8.66-52.34-3.64c-1.14,0.32-1.75,1.98-0.74,2.82c18.47,15.5,43.69,20.63,66.13,10.9
		c0.31-0.13,0.4-0.38,0.41-0.65c10.69,7.01,21.83,13.23,33.31,18.75c-21.56-2.31-42.67,1.53-62.49,11.65
		c-1.21,0.62-1,2.77,0.39,3.02c17.19,3.04,34.89,4.47,52.28,2.22c9.02-1.17,17.27-3.42,22.1-11.31
		c15.77,6.77,32.13,12.27,48.86,16.69c-0.54,0.79-1.09,1.59-1.67,2.35c-0.1-0.59-0.44-1.15-1.15-1.37
		c-20.84-6.32-42.06,1.96-61.74,9.05c-21.9,7.89-42.89,17.81-63.11,29.33c-1.64,0.93-0.84,3.34,0.93,3.42
		c28.04,1.27,55.81-1.87,82.67-10.22c18.53-5.76,36.96-14.33,46.62-31.91c47.98,12.33,98.95,15.78,148.21,13.85
		c3.48-0.14,6.97-0.29,10.46-0.46c-13.18,6.01-25.02,16.71-26.65,31.81c-1.67,15.45,8.5,31.03,24.77,31.65
		c14.14,0.54,34.4-10.92,35.43-26.44c1.36-20.59-25.1-19.31-38.16-13.91c-2.42,1-1.45,4.97,1.11,4.02
		c5.63-2.09,11.3-3.51,17.38-3.17c14.82,0.83,18.88,14.56,8.79,24.33c-9.46,9.15-26.94,15.22-37.66,4.75
		c-20.22-19.77,3.02-44.57,21.38-53.22c0.1-0.05,0.16-0.12,0.24-0.18c50.36-2.73,101.67-9.3,148.36-28.68
		c52.92-21.97,90.99-64.93,139.62-93.7c28.48-16.85,65.84-31.38,99.05-20.56c42.29,13.79,35.99,64.01,4.23,85.71
		c-1.39,0.95-0.1,3.21,1.33,2.28C805.42,124.32,815.06,73.1,772.99,55.49z M42.76,83.31c1.28,2.18,2.77,4.21,4.39,6.14
		c-7.49-1.38-14.99-2.7-22.51-3.85C27.31,83.21,38.14,83.25,42.76,83.31z M34.52,94.23c-2.66-0.93-10.9-4.29-10.52-7.45
		c8.38,1.83,16.82,3.45,25.26,5c1.72,1.78,3.55,3.46,5.56,4.94C47.95,96.74,41.12,96.53,34.52,94.23z M59.11,96.72
		c-2.02-1.46-3.88-3.08-5.64-4.77c0.34-0.51,0.25-1.28-0.51-1.42c-0.38-0.07-0.77-0.14-1.16-0.21C45.56,83.7,41.3,75.56,39.73,66.34
		c0,0.14,0.04,0.28,0.17,0.4c9.13,8.86,15.96,18.83,21.73,29.99C60.79,96.72,59.95,96.71,59.11,96.72z M63.69,94.41
		c-0.03,0.04-0.06,0.07-0.09,0.11c-6.14-10.59-14.07-20.14-22.84-28.65c-0.42-0.4-0.99-0.03-1.04,0.41
		c-0.11-0.64-0.28-1.26-0.36-1.91C51.68,70.34,65.15,79.79,63.69,94.41z M64.34,81.76c2.7-4.58,5.78-9.27,7.58-14.23
		c0.27-0.73-0.76-1.01-1.15-0.49c-2.95,3.88-5.12,8.61-7.32,13.05c-0.97-1.64-2.1-3.2-3.39-4.67c4.74-3.69,9.41-7.47,14.04-11.3
		c0.27,9.5-2.28,18.29-7.36,26.09C66.49,87.2,65.64,84.38,64.34,81.76z M104.41,93.26c3.38,15.68,7.52,31.15,10.27,46.97
		c-1.97-1.32-3.9-2.7-5.83-4.07c0.58-0.18,1.07-0.86,0.75-1.59C103.79,121.12,101.91,107.32,104.41,93.26z M75.97,146
		c-4.04-1.27-16.36-4.79-18.08-9.35c-1.08-2.86,2.65-2.23,6.34-2.74c3.92-0.54,7.75-0.87,11.72-0.78c6.49,0.14,13.06,1.1,19.3,2.93
		c3.44,1.01,10.05,2.44,12.66,5.03c0.61,0.61,1.03,0.89,1.27,1.02c-0.36-0.09-1.12-0.14-2.32,0.29c-6.04,2.18-18.66-0.61-24.71-1.62
		c-7.52-1.25-14.85-3.23-22.09-5.6c-1.11-0.36-1.56,1.35-0.48,1.74c17.66,6.26,35.44,8.49,54.11,7.22c0.24-0.02,0.43-0.11,0.59-0.23
		c0.67,0.45,1.34,0.91,2.01,1.36C103.06,149.17,89.3,150.18,75.97,146z M116.4,135.68c-3-14.46-5.87-29.03-10.33-43.11
		c-0.25-0.78-1.12-0.76-1.53-0.28c0.16-0.81,0.39-1.62,0.57-2.43C112.63,104.49,118.83,119.36,116.4,135.68z M103.79,173.29
		c7.91-2.88,16.21-4.82,24.58-5.73c6.81-0.74,13.72-0.81,20.54-0.17c4.28,0.41,6.92,0.74,8.35,1.01c0.04,0.06,0.08,0.12,0.12,0.18
		c0.34,0.48,0.88,0.52,1.27,0.3c-0.13,0.74-12.74,0.87-16.34,1.33c-13.75,1.75-27.54,3.05-41.35,4.15
		C101.79,174.03,102.72,173.68,103.79,173.29z M112.15,179.24c-7.22-0.45-22.17,0.74-15.01-3.15c0,0.7,0.45,1.36,1.35,1.3
		c20.79-1.42,41.47-3.8,62.08-6.86C149.64,182.43,126.4,180.13,112.15,179.24z M161.84,159.18c-3.82-22.59-7.24-45.25-10.28-67.97
		c-0.23-1.74-3-1.8-2.79,0c2.8,24.65,6.36,49.16,10.55,73.61c-0.77-0.35-1.55-0.68-2.32-1.03c-5.99-11.83-10.31-24.04-11.46-37.41
		c-0.31-3.6,0.12-38.73,4.86-38.54c3.44,0.14,10.17,29.43,10.79,32.16C164.2,133.35,164.84,146.21,161.84,159.18z M99.25,226.5
		c-2.4,0.01-4.75,0-7.04-0.03c16.41-9.08,33.29-17.17,50.85-23.85c18.18-6.91,39.43-15.68,59.19-12.45
		c-34.15,11.09-68.3,22.19-102.45,33.31C98.33,223.96,98.37,225.74,99.25,226.5z M101.57,226.48
		c35.71-11.56,71.42-23.15,107.12-34.75C185.47,219.62,138.42,226.05,101.57,226.48z M190.4,100.52
		c3.35,25.9,15.79,49.64,20.83,75.26C196.56,153.18,189.26,127.29,190.4,100.52z M192.65,92.74c10.65,24.42,19.82,49.21,20.49,75.72
		C206.7,143.06,194.59,119.23,192.65,92.74z"/>
	<path class="st0" d="M481.45,145.94c1.43,0.94,2.72-1.33,1.33-2.28c-31.76-21.7-38.06-71.93,4.23-85.71
		c33.21-10.82,70.57,3.71,99.05,20.56c48.63,28.77,86.7,71.73,139.62,93.7c46.69,19.38,98,25.95,148.36,28.68
		c0.07,0.07,0.14,0.13,0.24,0.18c18.36,8.65,41.6,33.45,21.38,53.22c-10.71,10.47-28.2,4.4-37.66-4.75
		c-10.1-9.77-6.03-23.5,8.79-24.33c6.09-0.34,11.75,1.07,17.38,3.17c2.55,0.95,3.52-3.02,1.11-4.02
		c-13.06-5.4-39.52-6.68-38.16,13.91c1.03,15.51,21.28,26.98,35.43,26.44c16.27-0.62,26.44-16.2,24.77-31.65
		c-1.63-15.1-13.46-25.8-26.64-31.81c3.49,0.17,6.98,0.32,10.46,0.46c49.26,1.94,100.24-1.52,148.21-13.85
		c9.66,17.59,28.1,26.15,46.62,31.91c26.85,8.35,54.62,11.49,82.67,10.22c1.76-0.08,2.56-2.48,0.93-3.42
		c-20.22-11.52-41.21-21.44-63.11-29.33c-19.67-7.09-40.89-15.37-61.74-9.05c-0.71,0.22-1.05,0.77-1.15,1.37
		c-0.58-0.76-1.13-1.56-1.67-2.35c16.73-4.42,33.09-9.92,48.86-16.69c4.83,7.88,13.08,10.14,22.1,11.31
		c17.39,2.25,35.09,0.82,52.28-2.22c1.4-0.25,1.6-2.4,0.39-3.02c-19.82-10.12-40.94-13.96-62.49-11.65
		c11.48-5.52,22.61-11.74,33.31-18.75c0.01,0.27,0.1,0.52,0.41,0.65c22.44,9.73,47.65,4.6,66.13-10.9c1-0.84,0.4-2.5-0.74-2.82
		c-17.82-5.02-35.91-3.74-52.34,3.64c14.22-10.6,27.56-22.69,39.77-36.5c0.32,0.03,0.61-0.06,0.87-0.25
		c-0.11,0.69,0.63,1.43,1.46,1.04c1.29-0.6,2.52-1.28,3.72-2c13.72,1.34,30.12-0.37,38.21-12.37c0.42-0.62-0.03-1.38-0.65-1.6
		c-6.98-2.46-13.85-3.52-21.14-3.23c3.3-6.08,5.32-12.92,5.85-20.01c0.09-1.25-1.32-1.73-2.26-1.3
		c-7.07,3.19-14.74,7.64-20.35,13.41c-5.14-4.58-10.39-9.03-15.67-13.44c-0.89-0.74-2.11-0.24-2.21,0.92
		c-1.03,11.75,2.41,23.26,9.86,32.25c0.11,1.5,0.32,3.04,0.75,4.63c-12.6,13.92-26.58,26.16-41.56,36.91
		c7.88-15.78,9.12-33.09,4.39-50.05c-0.34-1.21-2.12-1.51-2.74-0.36c-9.26,17.37-19.16,37.63-11.88,57.42
		c-11.36,7.41-23.26,13.98-35.54,19.79c13.73-24.25,14.55-53.78,4.45-79.74c-0.64-1.64-2.68-1.62-3.32,0
		c-10.68,27.06-20.59,55.54-11.18,84.31c-15.88,6.86-32.35,12.43-49.15,16.87c0.05-0.36,0.12-0.71,0.16-1.07
		c21.93-28.41,30.22-64.44,23.8-99.97c-0.28-1.55-2.82-1.91-3.47-0.45c-14.17,32.06-28.17,65.25-24.23,100.99
		c-0.46,0.62-0.91,1.24-1.38,1.85c-10.71,2.67-21.53,4.88-32.42,6.63c-16.35,2.62-32.98,4.43-49.73,5.5
		c15.7-6.7,27.55-20.51,29-38.91c1.79-22.64-15.09-43.48-37.9-45.6c-21.41-1.99-46.85,15.2-44.43,38.87
		c1.73,16.93,22.09,28.01,35.02,14.78c1.86-1.91-0.88-4.49-2.87-2.87c-20.8,17.03-32.26-14.16-23.08-29.2
		c4.45-7.29,12.15-12.76,20.21-15.29c14.15-4.45,29.4,0.14,39.27,11c24.01,26.43,0.55,59.1-27.21,67.86
		c-48.16,2.07-97.15-1.8-143.79-10.11c-32.23-5.74-64.19-14.88-93.14-30.45c-28.39-15.27-52.86-36.38-78.3-55.93
		c-38.34-29.46-95.45-66.77-145.99-45.61C438.94,73.1,448.58,124.32,481.45,145.94z M1229.36,85.61
		c-7.52,1.15-15.03,2.47-22.51,3.85c1.62-1.93,3.11-3.97,4.39-6.14C1215.86,83.25,1226.69,83.21,1229.36,85.61z M1199.19,96.73
		c2.02-1.48,3.85-3.16,5.56-4.94c8.44-1.55,16.88-3.17,25.26-5c0.38,3.15-7.86,6.52-10.52,7.45
		C1212.88,96.53,1206.05,96.74,1199.19,96.73z M1192.37,96.72c5.77-11.16,12.6-21.12,21.73-29.99c0.13-0.12,0.16-0.26,0.17-0.4
		c-1.56,9.22-5.83,17.36-12.07,23.97c-0.38,0.07-0.77,0.14-1.16,0.21c-0.76,0.14-0.85,0.91-0.51,1.42c-1.76,1.7-3.62,3.31-5.64,4.77
		C1194.05,96.71,1193.21,96.72,1192.37,96.72z M1214.63,64.37c-0.08,0.65-0.25,1.27-0.36,1.91c-0.04-0.44-0.62-0.81-1.04-0.41
		c-8.77,8.51-16.7,18.06-22.84,28.65c-0.03-0.04-0.06-0.07-0.09-0.11C1188.85,79.79,1202.32,70.34,1214.63,64.37z M1187.27,90.22
		c-5.07-7.8-7.63-16.58-7.36-26.09c4.63,3.83,9.3,7.61,14.04,11.3c-1.29,1.47-2.42,3.03-3.39,4.67c-2.2-4.45-4.38-9.18-7.32-13.05
		c-0.4-0.52-1.42-0.24-1.15,0.49c1.8,4.96,4.88,9.64,7.58,14.23C1188.36,84.38,1187.51,87.2,1187.27,90.22z M1144.4,134.58
		c-0.32,0.74,0.17,1.41,0.75,1.59c-1.93,1.37-3.86,2.75-5.83,4.07c2.75-15.82,6.89-31.29,10.27-46.97
		C1152.09,107.32,1150.21,121.12,1144.4,134.58z M1137.72,145.27c0.67-0.45,1.34-0.9,2.01-1.36c0.16,0.12,0.35,0.22,0.59,0.23
		c18.67,1.27,36.45-0.96,54.11-7.22c1.08-0.39,0.63-2.1-0.48-1.74c-7.24,2.37-14.56,4.35-22.09,5.6c-6.05,1.01-18.67,3.8-24.71,1.62
		c-1.21-0.43-1.97-0.38-2.32-0.29c0.24-0.13,0.66-0.41,1.27-1.02c2.62-2.59,9.23-4.02,12.66-5.03c6.23-1.83,12.81-2.79,19.3-2.93
		c3.96-0.09,7.8,0.24,11.72,0.78c3.69,0.51,7.42-0.13,6.34,2.74c-1.72,4.56-14.04,8.08-18.08,9.35
		C1164.7,150.18,1150.94,149.17,1137.72,145.27z M1148.88,89.86c0.18,0.81,0.42,1.63,0.57,2.43c-0.4-0.48-1.28-0.5-1.52,0.28
		c-4.46,14.08-7.32,28.64-10.33,43.11C1135.17,119.36,1141.37,104.49,1148.88,89.86z M1153.06,174.37
		c-13.81-1.1-27.6-2.4-41.35-4.15c-3.61-0.46-16.22-0.59-16.34-1.33c0.39,0.22,0.93,0.18,1.27-0.3c0.04-0.06,0.08-0.12,0.12-0.18
		c1.43-0.27,4.07-0.6,8.35-1.01c6.82-0.65,13.73-0.57,20.54,0.17c8.37,0.91,16.67,2.85,24.58,5.73
		C1151.28,173.68,1152.21,174.03,1153.06,174.37z M1093.44,170.52c20.6,3.07,41.29,5.45,62.08,6.86c0.9,0.06,1.35-0.6,1.35-1.3
		c7.16,3.89-7.79,2.71-15.01,3.15C1127.6,180.13,1104.36,182.43,1093.44,170.52z M1092.83,120.01c0.62-2.73,7.35-32.02,10.79-32.16
		c4.74-0.19,5.17,34.94,4.86,38.54c-1.15,13.38-5.47,25.58-11.46,37.41c-0.77,0.35-1.55,0.68-2.32,1.03
		c4.19-24.45,7.75-48.96,10.55-73.61c0.2-1.8-2.56-1.74-2.79,0c-3.04,22.71-6.46,45.37-10.28,67.97
		C1089.16,146.21,1089.8,133.35,1092.83,120.01z M1154.2,223.48c-34.14-11.12-68.29-22.22-102.44-33.31
		c19.75-3.24,41.01,5.53,59.19,12.45c17.56,6.68,34.44,14.76,50.85,23.85c-2.29,0.03-4.64,0.04-7.04,0.03
		C1155.63,225.74,1155.67,223.96,1154.2,223.48z M1045.31,191.73c35.7,11.6,71.41,23.19,107.12,34.75
		C1115.58,226.05,1068.53,219.62,1045.31,191.73z M1042.77,175.78c5.04-25.62,17.49-49.36,20.84-75.26
		C1064.74,127.29,1057.44,153.18,1042.77,175.78z M1040.87,168.46c0.66-26.51,9.83-51.3,20.49-75.72
		C1059.41,119.23,1047.3,143.06,1040.87,168.46z"/>
</g>
</svg>
