<?xml version="1.0" encoding="utf-8"?>
<!-- Generator: Adobe Illustrator 28.3.0, SVG Export Plug-In . SVG Version: 6.00 Build 0)  -->
<svg version="1.1" id="Capa_1" xmlns="http://www.w3.org/2000/svg" xmlns:xlink="http://www.w3.org/1999/xlink" x="0px" y="0px"
	 viewBox="0 0 1099.3 346.4" style="enable-background:new 0 0 1099.3 346.4;" xml:space="preserve">
<style type="text/css">
	.st0{fill:#B7BAA7;}
	.st1{fill:#808080;}
</style>
<g>
	<g>
		<path class="st0" d="M430.1,224.2c-16.8-7-35.7,5.4-48.4,15.1c-8.4,6.5-16.5,13.5-26,18.5c-9.6,5.2-20.2,8.2-30.9,10.1
			c-15.5,2.8-31.7,4-47.7,3.4c-9.2-2.9-17-13.7-9-22.5c3.3-3.6,8.3-5.1,13-3.6c2.7,0.8,5.2,2.7,6.7,5.1c3,5-0.8,15.3-7.7,9.7
			c-0.7-0.5-1.6,0.3-1,1c4.3,4.4,11,0.7,11.6-4.9c0.8-7.8-7.6-13.5-14.7-12.9c-7.6,0.7-13.2,7.6-12.6,15.1
			c0.5,6.1,4.4,10.7,9.6,12.9c-5.6-0.4-11.1-1-16.5-1.8c-3.6-0.6-7.2-1.3-10.8-2.2c-0.2-0.2-0.3-0.4-0.5-0.6
			c1.3-11.8-3.3-22.9-8-33.5c-0.2-0.5-1.1-0.4-1.2,0.2c-2.1,11.8,0.6,23.7,7.9,33.1c0,0.1,0,0.2,0.1,0.4c-5.6-1.5-11-3.3-16.3-5.6
			c3.1-9.5-0.2-19-3.7-28c-0.2-0.5-0.9-0.5-1.1,0c-3.3,8.6-3.1,18.4,1.5,26.4c-4.1-1.9-8-4.1-11.8-6.6c2.4-6.6-0.9-13.3-3.9-19
			c-0.2-0.4-0.8-0.3-0.9,0.1c-1.6,5.6-1.2,11.4,1.5,16.6c-5-3.6-9.6-7.6-13.8-12.2c0.1-0.5,0.2-1,0.2-1.5c2.5-3,3.6-6.8,3.3-10.7
			c0-0.4-0.4-0.5-0.7-0.3c-1.8,1.5-3.5,2.9-5.2,4.5c-1.9-1.9-4.4-3.4-6.7-4.4c-0.3-0.1-0.8,0-0.8,0.4c0.2,2.4,0.8,4.6,1.9,6.6
			c-2.4-0.1-4.7,0.3-7,1.1c-0.2,0.1-0.4,0.3-0.2,0.5c2.7,4,8.1,4.5,12.7,4.1c0.4,0.2,0.8,0.5,1.2,0.7c0.3,0.1,0.5-0.1,0.5-0.3
			c0.1,0.1,0.2,0.1,0.3,0.1c4,4.6,8.5,8.6,13.2,12.1c-5.4-2.4-11.4-2.9-17.4-1.2c-0.4,0.1-0.6,0.7-0.2,0.9
			c6.1,5.1,14.5,6.8,21.9,3.6c0.1,0,0.1-0.1,0.1-0.2c3.5,2.3,7.2,4.4,11,6.2c-7.1-0.8-14.2,0.5-20.7,3.9c-0.4,0.2-0.3,0.9,0.1,1
			c5.7,1,11.6,1.5,17.3,0.7c3-0.4,5.7-1.1,7.3-3.7c5.2,2.2,10.7,4.1,16.2,5.5c-0.2,0.3-0.4,0.5-0.6,0.8c0-0.2-0.1-0.4-0.4-0.5
			c-6.9-2.1-13.9,0.6-20.5,3c-7.3,2.6-14.2,5.9-20.9,9.7c-0.5,0.3-0.3,1.1,0.3,1.1c9.3,0.4,18.5-0.6,27.4-3.4
			c6.1-1.9,12.3-4.8,15.5-10.6c15.9,4.1,32.8,5.2,49.1,4.6c1.2,0,2.3-0.1,3.5-0.2c-4.4,2-8.3,5.5-8.8,10.5
			c-0.6,5.1,2.8,10.3,8.2,10.5c4.7,0.2,11.4-3.6,11.7-8.8c0.5-6.8-8.3-6.4-12.7-4.6c-0.8,0.3-0.5,1.6,0.4,1.3c1.9-0.7,3.7-1.2,5.8-1
			c4.9,0.3,6.3,4.8,2.9,8.1c-3.1,3-8.9,5-12.5,1.6c-6.7-6.6,1-14.8,7.1-17.6c0,0,0.1,0,0.1-0.1c16.7-0.9,33.7-3.1,49.2-9.5
			c17.5-7.3,30.2-21.5,46.3-31.1c9.4-5.6,21.8-10.4,32.8-6.8c14,4.6,11.9,21.2,1.4,28.4c-0.5,0.3,0,1.1,0.4,0.8
			C440.8,247.1,444,230.1,430.1,224.2z M187.9,233.5c0.4,0.7,0.9,1.4,1.5,2c-2.5-0.5-5-0.9-7.5-1.3
			C182.8,233.4,186.4,233.5,187.9,233.5z M185.2,237.1c-0.9-0.3-3.6-1.4-3.5-2.5c2.8,0.6,5.6,1.1,8.4,1.7c0.6,0.6,1.2,1.1,1.8,1.6
			C189.6,237.9,187.4,237.9,185.2,237.1z M193.3,237.9c-0.7-0.5-1.3-1-1.9-1.6c0.1-0.2,0.1-0.4-0.2-0.5c-0.1,0-0.3,0-0.4-0.1
			c-2.1-2.2-3.5-4.9-4-7.9c0,0,0,0.1,0.1,0.1c3,2.9,5.3,6.2,7.2,9.9C193.9,237.9,193.6,237.9,193.3,237.9z M194.9,237.2
			C194.9,237.2,194.8,237.2,194.9,237.2c-2.1-3.5-4.7-6.6-7.6-9.5c-0.1-0.1-0.3,0-0.3,0.1c0-0.2-0.1-0.4-0.1-0.6
			C190.9,229.2,195.3,232.3,194.9,237.2z M195.1,233c0.9-1.5,1.9-3.1,2.5-4.7c0.1-0.2-0.3-0.3-0.4-0.2c-1,1.3-1.7,2.9-2.4,4.3
			c-0.3-0.5-0.7-1.1-1.1-1.5c1.6-1.2,3.1-2.5,4.7-3.7c0.1,3.2-0.8,6.1-2.4,8.7C195.8,234.8,195.5,233.8,195.1,233z M208.4,236.8
			c1.1,5.2,2.5,10.3,3.4,15.6c-0.7-0.4-1.3-0.9-1.9-1.3c0.2-0.1,0.4-0.3,0.2-0.5C208.2,246,207.5,241.4,208.4,236.8z M198.9,254.3
			c-1.3-0.4-5.4-1.6-6-3.1c-0.4-0.9,0.9-0.7,2.1-0.9c1.3-0.2,2.6-0.3,3.9-0.3c2.2,0,4.3,0.4,6.4,1c1.1,0.3,3.3,0.8,4.2,1.7
			c0.2,0.2,0.3,0.3,0.4,0.3c-0.1,0-0.4,0-0.8,0.1c-2,0.7-6.2-0.2-8.2-0.5c-2.5-0.4-4.9-1.1-7.3-1.9c-0.4-0.1-0.5,0.4-0.2,0.6
			c5.9,2.1,11.8,2.8,17.9,2.4c0.1,0,0.1,0,0.2-0.1c0.2,0.2,0.4,0.3,0.7,0.4C207.9,255.3,203.4,255.6,198.9,254.3z M212.3,250.8
			c-1-4.8-1.9-9.6-3.4-14.3c-0.1-0.3-0.4-0.3-0.5-0.1c0.1-0.3,0.1-0.5,0.2-0.8C211.1,240.5,213.1,245.4,212.3,250.8z M208.2,263.3
			c2.6-1,5.4-1.6,8.1-1.9c2.3-0.2,4.5-0.3,6.8-0.1c1.4,0.1,2.3,0.2,2.8,0.3c0,0,0,0,0,0.1c0.1,0.2,0.3,0.2,0.4,0.1
			c0,0.2-4.2,0.3-5.4,0.4c-4.6,0.6-9.1,1-13.7,1.4C207.5,263.6,207.8,263.4,208.2,263.3z M210.9,265.3c-2.4-0.1-7.4,0.2-5-1
			c0,0.2,0.1,0.5,0.4,0.4c6.9-0.5,13.8-1.3,20.6-2.3C223.4,266.3,215.7,265.6,210.9,265.3z M227.4,258.6c-1.3-7.5-2.4-15-3.4-22.5
			c-0.1-0.6-1-0.6-0.9,0c0.9,8.2,2.1,16.3,3.5,24.4c-0.3-0.1-0.5-0.2-0.8-0.3c-2-3.9-3.4-8-3.8-12.4c-0.1-1.2,0-12.8,1.6-12.8
			c1.1,0,3.4,9.8,3.6,10.7C228.2,250.1,228.4,254.3,227.4,258.6z M206.7,281c-0.8,0-1.6,0-2.3,0c5.4-3,11-5.7,16.9-7.9
			c6-2.3,13.1-5.2,19.6-4.1c-11.3,3.7-22.6,7.4-34,11C206.3,280.1,206.4,280.7,206.7,281z M207.4,280.9c11.8-3.8,23.7-7.7,35.5-11.5
			C235.2,278.7,219.6,280.8,207.4,280.9z M236.9,239.2c1.1,8.6,5.2,16.5,6.9,25C238.9,256.6,236.5,248.1,236.9,239.2z M237.6,236.6
			c3.5,8.1,6.6,16.3,6.8,25.1C242.3,253.3,238.3,245.4,237.6,236.6z"/>
		<path class="st0" d="M333.4,254.2c0.5,0.3,0.9-0.4,0.4-0.8c-10.5-7.2-12.6-23.9,1.4-28.4c11-3.6,23.4,1.2,32.8,6.8
			c16.1,9.5,28.8,23.8,46.3,31.1c15.5,6.4,32.5,8.6,49.2,9.5c0,0,0,0,0.1,0.1c6.1,2.9,13.8,11.1,7.1,17.6c-3.6,3.5-9.4,1.5-12.5-1.6
			c-3.3-3.2-2-7.8,2.9-8.1c2-0.1,3.9,0.4,5.8,1c0.8,0.3,1.2-1,0.4-1.3c-4.3-1.8-13.1-2.2-12.7,4.6c0.3,5.1,7.1,8.9,11.7,8.8
			c5.4-0.2,8.8-5.4,8.2-10.5c-0.5-5-4.5-8.6-8.8-10.5c1.2,0.1,2.3,0.1,3.5,0.2c16.3,0.6,33.2-0.5,49.1-4.6
			c3.2,5.8,9.3,8.7,15.5,10.6c8.9,2.8,18.1,3.8,27.4,3.4c0.6,0,0.8-0.8,0.3-1.1c-6.7-3.8-13.7-7.1-20.9-9.7
			c-6.5-2.4-13.6-5.1-20.5-3c-0.2,0.1-0.3,0.3-0.4,0.5c-0.2-0.3-0.4-0.5-0.6-0.8c5.5-1.5,11-3.3,16.2-5.5c1.6,2.6,4.3,3.4,7.3,3.7
			c5.8,0.7,11.6,0.3,17.3-0.7c0.5-0.1,0.5-0.8,0.1-1c-6.6-3.4-13.6-4.6-20.7-3.9c3.8-1.8,7.5-3.9,11-6.2c0,0.1,0,0.2,0.1,0.2
			c7.4,3.2,15.8,1.5,21.9-3.6c0.3-0.3,0.1-0.8-0.2-0.9c-5.9-1.7-11.9-1.2-17.4,1.2c4.7-3.5,9.1-7.5,13.2-12.1c0.1,0,0.2,0,0.3-0.1
			c0,0.2,0.2,0.5,0.5,0.3c0.4-0.2,0.8-0.4,1.2-0.7c4.5,0.4,10-0.1,12.7-4.1c0.1-0.2,0-0.5-0.2-0.5c-2.3-0.8-4.6-1.2-7-1.1
			c1.1-2,1.8-4.3,1.9-6.6c0-0.4-0.4-0.6-0.8-0.4c-2.3,1.1-4.9,2.5-6.7,4.4c-1.7-1.5-3.4-3-5.2-4.5c-0.3-0.2-0.7-0.1-0.7,0.3
			c-0.3,3.9,0.8,7.7,3.3,10.7c0,0.5,0.1,1,0.2,1.5c-4.2,4.6-8.8,8.7-13.8,12.2c2.6-5.2,3-11,1.5-16.6c-0.1-0.4-0.7-0.5-0.9-0.1
			c-3.1,5.8-6.4,12.5-3.9,19c-3.8,2.5-7.7,4.6-11.8,6.6c4.6-8,4.8-17.8,1.5-26.4c-0.2-0.5-0.9-0.5-1.1,0c-3.5,9-6.8,18.4-3.7,28
			c-5.3,2.3-10.7,4.1-16.3,5.6c0-0.1,0-0.2,0.1-0.4c7.3-9.4,10-21.4,7.9-33.1c-0.1-0.5-0.9-0.6-1.2-0.2c-4.7,10.6-9.3,21.6-8,33.5
			c-0.2,0.2-0.3,0.4-0.5,0.6c-3.5,0.9-7.1,1.6-10.8,2.2c-5.4,0.9-10.9,1.5-16.5,1.8c5.2-2.2,9.1-6.8,9.6-12.9
			c0.6-7.5-5-14.4-12.6-15.1c-7.1-0.7-15.5,5-14.7,12.9c0.6,5.6,7.3,9.3,11.6,4.9c0.6-0.6-0.3-1.5-1-1c-6.9,5.6-10.7-4.7-7.7-9.7
			c1.5-2.4,4-4.2,6.7-5.1c4.7-1.5,9.7,0,13,3.6c8,8.8,0.2,19.6-9,22.5c-16,0.7-32.2-0.6-47.7-3.4c-10.7-1.9-21.3-4.9-30.9-10.1
			c-9.4-5.1-17.5-12.1-26-18.5c-12.7-9.8-31.7-22.1-48.4-15.1C319.3,230.1,322.5,247.1,333.4,254.2z M581.4,234.2
			c-2.5,0.4-5,0.8-7.5,1.3c0.5-0.6,1-1.3,1.5-2C576.9,233.5,580.5,233.4,581.4,234.2z M571.4,237.9c0.7-0.5,1.3-1,1.8-1.6
			c2.8-0.5,5.6-1.1,8.4-1.7c0.1,1-2.6,2.2-3.5,2.5C575.9,237.9,573.7,237.9,571.4,237.9z M569.1,237.9c1.9-3.7,4.2-7,7.2-9.9
			c0,0,0.1-0.1,0.1-0.1c-0.5,3.1-1.9,5.8-4,7.9c-0.1,0-0.3,0-0.4,0.1c-0.3,0-0.3,0.3-0.2,0.5c-0.6,0.6-1.2,1.1-1.9,1.6
			C569.7,237.9,569.4,237.9,569.1,237.9z M576.5,227.2c0,0.2-0.1,0.4-0.1,0.6c0-0.1-0.2-0.3-0.3-0.1c-2.9,2.8-5.5,6-7.6,9.5
			c0,0,0,0,0,0C568,232.3,572.4,229.2,576.5,227.2z M567.4,235.8c-1.7-2.6-2.5-5.5-2.4-8.7c1.5,1.3,3.1,2.5,4.7,3.7
			c-0.4,0.5-0.8,1-1.1,1.5c-0.7-1.5-1.5-3-2.4-4.3c-0.1-0.2-0.5-0.1-0.4,0.2c0.6,1.6,1.6,3.2,2.5,4.7
			C567.8,233.8,567.5,234.8,567.4,235.8z M553.2,250.5c-0.1,0.2,0.1,0.5,0.2,0.5c-0.6,0.5-1.3,0.9-1.9,1.3
			c0.9-5.2,2.3-10.4,3.4-15.6C555.8,241.4,555.1,246,553.2,250.5z M551,254c0.2-0.1,0.4-0.3,0.7-0.4c0.1,0,0.1,0.1,0.2,0.1
			c6.2,0.4,12.1-0.3,17.9-2.4c0.4-0.1,0.2-0.7-0.2-0.6c-2.4,0.8-4.8,1.4-7.3,1.9c-2,0.3-6.2,1.3-8.2,0.5c-0.4-0.1-0.7-0.1-0.8-0.1
			c0.1,0,0.2-0.1,0.4-0.3c0.9-0.9,3.1-1.3,4.2-1.7c2.1-0.6,4.2-0.9,6.4-1c1.3,0,2.6,0.1,3.9,0.3c1.2,0.2,2.5,0,2.1,0.9
			c-0.6,1.5-4.7,2.7-6,3.1C560,255.6,555.4,255.3,551,254z M554.7,235.6c0.1,0.3,0.1,0.5,0.2,0.8c-0.1-0.2-0.4-0.2-0.5,0.1
			c-1.5,4.7-2.4,9.5-3.4,14.3C550.2,245.4,552.2,240.5,554.7,235.6z M556.1,263.7c-4.6-0.4-9.2-0.8-13.7-1.4
			c-1.2-0.2-5.4-0.2-5.4-0.4c0.1,0.1,0.3,0.1,0.4-0.1c0,0,0,0,0-0.1c0.5-0.1,1.4-0.2,2.8-0.3c2.3-0.2,4.6-0.2,6.8,0.1
			c2.8,0.3,5.5,0.9,8.1,1.9C555.5,263.4,555.8,263.6,556.1,263.7z M536.3,262.4c6.8,1,13.7,1.8,20.6,2.3c0.3,0,0.4-0.2,0.4-0.4
			c2.4,1.3-2.6,0.9-5,1C547.7,265.6,539.9,266.3,536.3,262.4z M536.1,245.6c0.2-0.9,2.4-10.6,3.6-10.7c1.6-0.1,1.7,11.6,1.6,12.8
			c-0.4,4.4-1.8,8.5-3.8,12.4c-0.3,0.1-0.5,0.2-0.8,0.3c1.4-8.1,2.6-16.2,3.5-24.4c0.1-0.6-0.8-0.6-0.9,0c-1,7.5-2.1,15-3.4,22.5
			C534.9,254.3,535.1,250.1,536.1,245.6z M556.5,280c-11.3-3.7-22.6-7.4-34-11c6.6-1.1,13.6,1.8,19.6,4.1c5.8,2.2,11.4,4.9,16.9,7.9
			c-0.8,0-1.5,0-2.3,0C556.9,280.7,557,280.1,556.5,280z M520.4,269.4c11.8,3.8,23.7,7.7,35.5,11.5
			C543.7,280.8,528.1,278.7,520.4,269.4z M519.5,264.1c1.7-8.5,5.8-16.4,6.9-25C526.8,248.1,524.4,256.6,519.5,264.1z M518.9,261.7
			c0.2-8.8,3.3-17,6.8-25.1C525,245.4,521,253.3,518.9,261.7z"/>
	</g>
	<g>
		<g>
			<path class="st1" d="M180.6,58.8h46.3c5,0,9.6,0.5,13.8,1.4c4.2,0.9,7.9,2.3,11.1,4c3.2,1.8,6,3.9,8.4,6.3
				c2.4,2.5,4.4,5.2,5.8,8.4c1.5,3.1,2.6,6.4,3.4,10c0.8,3.5,1.1,7.3,1.1,11.4c0,5.5-0.7,10.4-2.2,14.9c-1.4,4.5-3.5,8.3-6.2,11.5
				c-2.7,3.2-5.9,5.9-9.7,8s-8.1,3.8-12.8,4.8c-4.7,1.1-9.9,1.6-15.4,1.6h-22.1v45.6h-21.7V58.8z M222.3,121.5
				c8.6,0,15.1-1.9,19.4-5.8c4.3-3.9,6.5-9.2,6.5-15.8c0-6.8-2.1-12.1-6.3-15.9s-10.2-5.7-18-5.7h-21.5v43.2H222.3z"/>
			<path class="st1" d="M364,149.8h-64c1.3,6.2,4.2,11.1,8.7,14.7c4.5,3.6,9.9,5.4,16.4,5.4c9.1,0,16.4-3.5,21.9-10.4l14.1,12
				c-4,5.1-9.1,9.1-15.3,12.1c-6.2,3-13.5,4.5-21.7,4.5c-8.5,0-16.1-1.8-22.9-5.5c-6.8-3.7-12.2-9-16.1-16
				c-3.9-6.9-5.9-14.9-5.9-23.9c0-6.6,1.1-12.7,3.3-18.4c2.2-5.6,5.2-10.4,9-14.3c3.8-3.9,8.4-7,13.6-9.2c5.3-2.2,10.9-3.3,17-3.3
				c8.5,0,16,1.9,22.5,5.7c6.5,3.8,11.5,9.1,14.9,15.7c3.5,6.7,5.2,14.3,5.2,22.8C364.6,145.1,364.4,147.7,364,149.8z M308.6,120.5
				c-4,3.1-6.8,7.4-8.2,13.1h44c-0.9-3.6-2.2-6.7-4.1-9.3c-1.8-2.6-4.2-4.7-7.2-6.2c-3-1.5-6.3-2.2-10.1-2.2
				C317.4,115.9,312.6,117.4,308.6,120.5z"/>
			<path class="st1" d="M430.2,97.7v22.4c-2.3-0.2-4.3-0.3-6.1-0.3c-5,0-9.3,1.1-13,3.3c-3.7,2.2-6.4,5.2-8.3,9
				c-1.8,3.8-2.8,8.1-2.8,12.9v41.7H380V98.9h20.1v13.2h0.3c3.5-4.7,7.5-8.3,12.3-10.8c4.7-2.5,9.7-3.7,15.1-3.7
				C428.9,97.6,429.7,97.6,430.2,97.7z"/>
			<path class="st1" d="M444.9,116.1h-9.8V98.9h9.8V82.8c0-9.8,2.3-17.2,6.8-22.4s11.1-7.7,19.7-7.7c8.2,0,15.6,2,22.1,6.1
				l-4.5,17.1c-6.3-3-11.2-4.5-14.7-4.5c-2.1,0-3.8,0.5-5.1,1.4s-2.4,2.4-3.1,4.4s-1.1,4.6-1.1,7.8v13.9h21.6v17.1h-21.6v70.7h-20.1
				V116.1z"/>
			<path class="st1" d="M576,149.8h-64c1.3,6.2,4.2,11.1,8.7,14.7c4.5,3.6,9.9,5.4,16.4,5.4c9.1,0,16.4-3.5,21.9-10.4l14.1,12
				c-4,5.1-9.1,9.1-15.3,12.1c-6.2,3-13.5,4.5-21.7,4.5c-8.5,0-16.1-1.8-22.9-5.5c-6.8-3.7-12.2-9-16.1-16
				c-3.9-6.9-5.9-14.9-5.9-23.9c0-6.6,1.1-12.7,3.3-18.4c2.2-5.6,5.2-10.4,9-14.3c3.8-3.9,8.4-7,13.6-9.2c5.3-2.2,10.9-3.3,17-3.3
				c8.5,0,16,1.9,22.5,5.7c6.5,3.8,11.5,9.1,14.9,15.7c3.5,6.7,5.2,14.3,5.2,22.8C576.5,145.1,576.3,147.7,576,149.8z M520.5,120.5
				c-4,3.1-6.8,7.4-8.2,13.1h44c-0.9-3.6-2.2-6.7-4.1-9.3c-1.8-2.6-4.2-4.7-7.2-6.2c-3-1.5-6.3-2.2-10.1-2.2
				C529.4,115.9,524.6,117.4,520.5,120.5z"/>
			<path class="st1" d="M608.6,182.5c-6.8-3.8-12.1-9.1-16-16c-3.8-6.9-5.8-14.8-5.8-23.6c0-8.9,1.9-16.7,5.8-23.6
				c3.9-6.9,9.2-12.2,16.1-16c6.9-3.8,14.7-5.7,23.5-5.7c7.1,0,14,1.4,20.6,4.2c6.6,2.8,12.1,6.9,16.4,12.1l-13.7,11.9
				c-2.6-3.1-5.8-5.5-9.6-7.3c-3.8-1.8-7.9-2.6-12.6-2.6c-5.2,0-9.7,1.1-13.6,3.4c-3.9,2.3-7,5.4-9.1,9.5c-2.2,4.1-3.3,8.7-3.3,14
				c0,5.3,1.1,10.1,3.3,14.2c2.2,4.1,5.3,7.3,9.2,9.5c4,2.3,8.5,3.4,13.6,3.4c1.9,0,3.7-0.2,5.6-0.5c1.8-0.3,3.6-0.8,5.1-1.4
				c1.6-0.6,3.1-1.3,4.5-2.1c1.4-0.8,2.7-1.7,3.9-2.6s2.2-1.9,3.2-3l13.9,12.3c-4,4.6-9.4,8.3-16,11.2c-6.6,2.9-13.9,4.3-22,4.3
				C623,188.2,615.4,186.3,608.6,182.5z"/>
			<path class="st1" d="M690.5,180.8c-4.3-4.9-6.5-12.2-6.5-21.8v-42.9h-10.7V98.9H684V69.7l20.1-2.2v31.4H730v17.1h-25.8v41.1
				c0,4.4,0.7,7.5,2.1,9.4c1.4,1.9,3.5,2.8,6.4,2.8c3.9,0,8.3-1.3,13-3.8l5.3,17.4c-3.2,1.7-6.4,3-9.6,3.9
				c-3.3,0.9-7.5,1.3-12.7,1.3C700.8,188.2,694.8,185.7,690.5,180.8z"/>
		</g>
	</g>
	<g>
		<g>
			<path class="st1" d="M633.1,273.4h-25.8l5.6-45.5h24.6l-0.4,3.3h-21l-2.2,17.8h17.5l-0.4,3.3h-17.4l-2.2,17.7h22.3L633.1,273.4z"
				/>
			<path class="st1" d="M671.7,226.3l-5.8,47.1h-3.3l1-8.2h-0.1c-1.5,2.6-3.2,4.6-5.4,6.2c-2.1,1.5-4.4,2.3-6.9,2.3
				c-2.3,0-4.2-0.6-5.9-1.7c-1.6-1.1-2.8-2.6-3.6-4.5c-0.8-1.9-1.2-4-1.2-6.3c0-2.5,0.4-5,1.1-7.3c0.8-2.3,1.8-4.4,3.2-6.1
				c1.3-1.8,3-3.2,5-4.2c2-1.1,4.2-1.6,6.5-1.6c1.2,0,2.4,0.1,3.5,0.3c1.1,0.2,2.2,0.6,3.3,1.1c1.1,0.5,2,1.2,2.7,2h0.1l2.3-19.2
				H671.7z M656.4,269.3c1.5-0.9,2.9-2.1,4-3.6c1.1-1.5,2.1-3.3,2.9-5.3c0.8-2,1.3-4.1,1.6-6.3l0.6-5c-0.5-0.8-1.2-1.4-2-1.9
				c-0.8-0.5-1.6-0.9-2.5-1.2c-0.9-0.3-1.7-0.5-2.5-0.6c-0.8-0.1-1.5-0.2-2.3-0.2c-1.5,0-2.9,0.3-4.3,0.9c-1.3,0.6-2.5,1.4-3.5,2.4
				c-1,1-1.9,2.2-2.6,3.6c-0.7,1.4-1.3,2.8-1.7,4.4c-0.4,1.6-0.6,3.3-0.6,4.9c0,2.8,0.7,5,2,6.7c1.4,1.7,3.3,2.6,5.8,2.6
				C653.3,270.7,654.9,270.2,656.4,269.3z"/>
			<path class="st1" d="M708,249.1c0.8,0.4,1.4,0.8,1.8,1c0.4,0.2,1,0.6,1.7,1c0.7,0.4,1.3,0.8,1.7,1.1c0.4,0.3,0.9,0.6,1.5,1.1
				c0.6,0.5,1,0.9,1.3,1.2c0.3,0.4,0.7,0.8,1,1.3c0.4,0.5,0.7,1,0.9,1.5c0.2,0.5,0.3,1,0.5,1.6c0.1,0.6,0.2,1.2,0.2,1.8
				c0,2.6-0.6,5-1.9,6.9c-1.2,2-2.9,3.5-5.1,4.5s-4.6,1.5-7.3,1.5c-2.8,0-5.6-0.6-8.2-1.9c-2.6-1.3-4.7-3.1-6.3-5.5l2.7-2.5
				c1.3,2.1,3,3.8,5.1,4.8c2.1,1.1,4.2,1.6,6.5,1.6c3.1,0,5.7-0.8,7.7-2.5c2-1.7,3-3.9,3-6.6c0-0.6-0.1-1.1-0.2-1.7s-0.4-1-0.6-1.4
				c-0.2-0.4-0.6-0.9-1.1-1.3c-0.5-0.5-0.9-0.8-1.3-1.1s-0.9-0.7-1.6-1.1c-0.7-0.4-1.3-0.8-1.8-1c-0.4-0.2-1.1-0.6-2-1.1
				c-0.5-0.3-0.9-0.5-1.2-0.7c-0.1-0.1-0.3-0.2-0.5-0.3c-0.7-0.4-1.2-0.7-1.5-0.9c-0.3-0.2-0.8-0.5-1.5-0.9c-0.6-0.4-1.1-0.7-1.5-1
				s-0.8-0.6-1.3-1c-0.5-0.4-1-0.8-1.3-1.1c-0.3-0.3-0.7-0.7-1.1-1.2c-0.4-0.4-0.7-0.9-1-1.3c-0.2-0.4-0.5-0.9-0.7-1.4
				c-0.2-0.5-0.4-1-0.5-1.6c-0.1-0.6-0.1-1.1-0.1-1.7c0-1.8,0.3-3.4,1-4.8c0.7-1.5,1.6-2.7,2.8-3.8c1.2-1,2.6-1.8,4.3-2.4
				c1.7-0.6,3.5-0.9,5.5-0.9c2.3,0,4.6,0.5,6.8,1.5s4,2.4,5.5,4.1l-2.7,2.4c-1.3-1.6-2.8-2.7-4.5-3.5c-1.7-0.8-3.5-1.1-5.4-1.1
				c-2.8,0-5.1,0.7-7,2.2c-1.8,1.5-2.7,3.4-2.7,5.8c0,0.6,0.1,1.2,0.3,1.8c0.2,0.6,0.4,1.1,0.6,1.5c0.2,0.4,0.6,0.9,1.1,1.4
				c0.5,0.5,0.9,0.9,1.3,1.2c0.4,0.3,0.9,0.7,1.6,1.1c0.7,0.4,1.3,0.8,1.7,1c0.4,0.3,1.1,0.6,2,1.1c0.1,0.1,0.2,0.1,0.3,0.2
				C707,248.6,707.4,248.8,708,249.1z"/>
			<path class="st1" d="M752.3,245.1c1.3,2.1,1.7,5.3,1.1,9.6l-2.5,18.7h-3.3l2.4-18.5c0.2-1.9,0.3-3.4,0.2-4.7
				c-0.1-1.3-0.4-2.3-0.9-3c-0.5-0.8-1.1-1.3-1.8-1.6c-0.7-0.3-1.6-0.5-2.6-0.5c-1.4,0-2.9,0.4-4.4,1.2s-2.9,1.9-4.2,3.2
				c-1.3,1.3-2.4,3-3.3,4.9c-0.9,1.9-1.5,3.9-1.8,5.9l-1.6,13h-3.3l5.8-47.1h3.3l-2.9,23.6h0.1c1.7-2.5,3.8-4.4,6.1-5.8
				c2.3-1.4,4.7-2.1,7.1-2.1C748.8,242.1,751,243.1,752.3,245.1z"/>
			<path class="st1" d="M782,266.2l2.6,1.9c-1.1,1.2-2.2,2.2-3.3,3s-2.4,1.4-3.8,1.9c-1.4,0.4-2.9,0.7-4.5,0.7
				c-3.7,0-6.6-1.2-8.9-3.5c-2.2-2.3-3.3-5.4-3.3-9.4c0-2.5,0.4-4.9,1.2-7.2c0.8-2.3,1.9-4.3,3.2-6c1.4-1.7,3.1-3.1,5.1-4.1
				c2-1,4.2-1.5,6.6-1.5c0.6,0,1.3,0.1,2,0.2c0.7,0.1,1.4,0.3,2.1,0.5c0.7,0.2,1.4,0.5,2,1c0.6,0.4,1.2,0.9,1.7,1.4
				c0.5,0.5,0.9,1.2,1.2,2c0.3,0.8,0.4,1.6,0.4,2.5c0,1.1-0.2,2.2-0.7,3.2s-1.1,1.9-1.9,2.7c-0.8,0.8-1.8,1.5-2.9,2.1
				c-1.2,0.6-2.4,1.2-3.7,1.7c-1.3,0.5-2.7,0.9-4.2,1.2c-1.5,0.4-3,0.7-4.4,0.9c-1.4,0.2-2.9,0.4-4.4,0.6c0.2,2.7,1.1,4.9,2.8,6.4
				c1.6,1.5,3.7,2.3,6.2,2.3C776.4,270.6,779.4,269.1,782,266.2z M772.2,246.2c-1.4,0.7-2.7,1.6-3.8,2.8c-1.1,1.2-2,2.6-2.8,4.3
				c-0.7,1.7-1.2,3.6-1.4,5.6c1.8-0.2,3.4-0.4,5.1-0.7c1.6-0.3,3.3-0.7,5-1.2s3.1-1.1,4.4-1.7c1.2-0.7,2.3-1.5,3-2.4
				c0.8-0.9,1.2-2,1.2-3.1c0-0.9-0.2-1.6-0.6-2.2c-0.4-0.6-0.9-1.1-1.6-1.4c-0.7-0.3-1.3-0.5-2-0.7s-1.3-0.2-2-0.2
				C775.2,245.2,773.7,245.5,772.2,246.2z"/>
			<path class="st1" d="M812.3,266.2l2.6,1.9c-1.1,1.2-2.2,2.2-3.3,3s-2.4,1.4-3.8,1.9c-1.4,0.4-2.9,0.7-4.5,0.7
				c-3.7,0-6.6-1.2-8.9-3.5c-2.2-2.3-3.3-5.4-3.3-9.4c0-2.5,0.4-4.9,1.2-7.2c0.8-2.3,1.9-4.3,3.2-6c1.4-1.7,3.1-3.1,5.1-4.1
				c2-1,4.2-1.5,6.6-1.5c0.6,0,1.3,0.1,2,0.2c0.7,0.1,1.4,0.3,2.1,0.5c0.7,0.2,1.4,0.5,2,1c0.6,0.4,1.2,0.9,1.7,1.4
				c0.5,0.5,0.9,1.2,1.2,2c0.3,0.8,0.4,1.6,0.4,2.5c0,1.1-0.2,2.2-0.7,3.2c-0.5,1-1.1,1.9-1.9,2.7c-0.8,0.8-1.8,1.5-2.9,2.1
				c-1.2,0.6-2.4,1.2-3.7,1.7c-1.3,0.5-2.7,0.9-4.2,1.2c-1.5,0.4-3,0.7-4.4,0.9c-1.4,0.2-2.9,0.4-4.4,0.6c0.2,2.7,1.1,4.9,2.8,6.4
				c1.6,1.5,3.7,2.3,6.2,2.3C806.7,270.6,809.7,269.1,812.3,266.2z M802.5,246.2c-1.4,0.7-2.7,1.6-3.8,2.8c-1.1,1.2-2,2.6-2.8,4.3
				c-0.7,1.7-1.2,3.6-1.4,5.6c1.8-0.2,3.4-0.4,5.1-0.7c1.6-0.3,3.3-0.7,5-1.2s3.1-1.1,4.4-1.7c1.2-0.7,2.3-1.5,3-2.4
				c0.8-0.9,1.2-2,1.2-3.1c0-0.9-0.2-1.6-0.6-2.2c-0.4-0.6-0.9-1.1-1.6-1.4c-0.7-0.3-1.3-0.5-2-0.7c-0.6-0.1-1.3-0.2-2-0.2
				C805.5,245.2,803.9,245.5,802.5,246.2z"/>
			<path class="st1" d="M832.9,244.5c1.8-1.3,3.8-2.1,6-2.5l-0.5,4c-3.1,0.3-5.7,1.7-7.8,4.3c-2.1,2.6-3.4,6-3.9,10l-1.6,13.1h-3.3
				l3.8-31.1h3.3l-0.9,7.2h0.1C829.5,247.5,831.1,245.8,832.9,244.5z"/>
			<path class="st1" d="M869.1,242.4l-3.8,31.1H862l1-8.1h-0.1c-1.4,2.5-3.2,4.5-5.3,6.1s-4.4,2.3-6.8,2.3c-2.3,0-4.2-0.6-5.9-1.7
				c-1.6-1.1-2.8-2.6-3.6-4.5c-0.8-1.9-1.2-4-1.2-6.3c0-2.5,0.4-5,1.1-7.3c0.8-2.3,1.8-4.4,3.2-6.1c1.3-1.8,3-3.2,5-4.2
				c2-1.1,4.2-1.6,6.5-1.6c1.9,0,3.6,0.3,5.3,0.9c1.7,0.6,3,1.5,4.1,2.7h0.1l0.4-3.3H869.1z M853.7,270.3c0.8-0.2,1.5-0.6,2.3-1
				c0.7-0.4,1.4-1,2.1-1.6c0.7-0.6,1.3-1.3,1.9-2.1c0.6-0.8,1.1-1.6,1.6-2.5c0.5-0.9,0.9-1.8,1.3-2.8c0.4-1,0.7-2,1-3.1
				c0.3-1.1,0.5-2.2,0.6-3.3v0l0.6-5c-0.7-0.9-1.6-1.7-2.8-2.3s-2.2-1-3.3-1.3c-1-0.2-2-0.3-2.9-0.3c-1.9,0-3.6,0.4-5.2,1.3
				c-1.6,0.9-2.9,2.1-4,3.6s-1.9,3.2-2.5,5.2c-0.6,1.9-0.9,4-0.9,6.1c0,1.8,0.3,3.4,0.9,4.8c0.6,1.4,1.5,2.5,2.6,3.3
				c1.2,0.8,2.6,1.2,4.3,1.2C852.1,270.7,852.9,270.6,853.7,270.3z"/>
			<path class="st1" d="M901.6,245.1c1.3,2.1,1.7,5.3,1.1,9.6l-2.5,18.7h-3.3l2.4-18.5c0.2-1.9,0.3-3.4,0.2-4.7
				c-0.1-1.3-0.4-2.3-0.9-3c-0.5-0.8-1.1-1.3-1.8-1.6c-0.7-0.3-1.6-0.5-2.6-0.5c-1.4,0-2.9,0.4-4.4,1.2c-1.5,0.8-2.9,1.9-4.2,3.2
				c-1.3,1.3-2.4,3-3.3,4.9c-0.9,1.9-1.5,3.9-1.8,5.9l-1.6,13h-3.3l3.8-31.1h3.3l-0.9,7.6h0.1c1.7-2.5,3.8-4.4,6.1-5.8
				s4.7-2.1,7.1-2.1C898.1,242.1,900.3,243.1,901.6,245.1z"/>
		</g>
	</g>
	<g>
		<g>
			<path class="st0" d="M840.1,55.1c-36.9,0-66.9,29.9-66.9,66.9c0,36.9,29.9,66.9,66.9,66.9c36.9,0,66.9-29.9,66.9-66.9
				C907,85,877.1,55.1,840.1,55.1z M840.1,182c-33.1,0-60-26.9-60-60c0-33.1,26.9-60,60-60c33.1,0,60,26.9,60,60
				C900.1,155.1,873.2,182,840.1,182z"/>
			<g>
				<path class="st0" d="M828.2,152.4h-6.9c-2.3,0-4.2-1.9-4.2-4.2V95.8c0-2.3,1.9-4.2,4.2-4.2h6.9c2.3,0,4.2,1.9,4.2,4.2v52.4
					C832.3,150.6,830.5,152.4,828.2,152.4z"/>
				<path class="st0" d="M858.9,152.4H852c-2.3,0-4.2-1.9-4.2-4.2V95.8c0-2.3,1.9-4.2,4.2-4.2h6.9c2.3,0,4.2,1.9,4.2,4.2v52.4
					C863.1,150.6,861.2,152.4,858.9,152.4z"/>
			</g>
		</g>
	</g>
</g>
</svg>
