<?xml version="1.0" encoding="utf-8"?>
<!-- Generator: Adobe Illustrator 28.3.0, SVG Export Plug-In . SVG Version: 6.00 Build 0)  -->
<svg version="1.0" id="Capa_1" xmlns="http://www.w3.org/2000/svg" xmlns:xlink="http://www.w3.org/1999/xlink" x="0px" y="0px"
	 viewBox="0 0 1080 1080" style="enable-background:new 0 0 1080 1080;" xml:space="preserve">
<style type="text/css">
	.st0{fill:#B7BAA7;stroke:#B7BAA7;stroke-width:3;stroke-linecap:round;stroke-linejoin:round;stroke-miterlimit:10;}
</style>
<g>
	<g>
		<path class="st0" d="M565.5,313.5c-5.7,5.69-14.95,5.69-20.65,0l-70.12-69.91c-5.28-5.27-6.22-13.79-1.6-19.65
			c5.52-7,15.73-7.45,21.85-1.35l60.2,60.02l41.47-41.34c17.08-17.03,44.88-17.03,61.96,0l115.75,115.41
			c8.22-1.73,16.68-2.62,25.28-2.62c19.26,0,37.83,4.46,54.52,12.88c-13.21-34.26-46.54-58.65-85.48-58.73
			c-7.26-0.02-13.71-5.36-14.67-12.56c-1.19-8.93,5.74-16.56,14.47-16.56c45.87,0,85.85,25.58,106.35,63.19
			c20.47-37.54,60.35-63.1,106.12-63.19c6.89-0.01,13.13,4.73,14.52,11.47c1.94,9.39-5.21,17.65-14.29,17.65
			c-39.08,0-72.53,24.49-85.73,58.88c16.3-8.13,34.4-12.43,53.16-12.43c31.55,0,61.22,12.16,83.63,34.26
			c5.02,4.95,6.33,12.83,2.42,18.7c-5.31,7.96-16.19,8.75-22.59,2.36c-16.95-16.9-39.48-26.2-63.45-26.2c-22,0-42.8,7.84-59.17,22.2
			v65.45l134.71,134.31c8.27,8.25,12.83,19.22,12.83,30.89c0,0,0.01,215.24,0.01,215.57c0,8.06-6.68,14.57-14.56,14.57h-43.69
			l0,38.83h43.68c8.04,0,14.56,6.52,14.56,14.56v60.18c0,24.12-19.56,43.68-43.68,43.68H52.81c-5.42,0-9.81-4.39-9.81-9.81V660.73
			c0-0.86,0.32-1.72,0.91-2.34c12.68-13.2,28.21-4.41,28.21,7.99v325.23c0,1.81,1.46,3.27,3.27,3.27h495.97
			c-7.12-48.92-49.43-87.86-98.7-87.86c-8.86,0-17.72,1.18-26.28,3.51c-0.36,0.1-0.73,0.15-1.1,0.13
			c-10.37-0.51-16.19-9.14-14.67-17.43c1.36-7.36,2.04-14.78,2.04-22.04c0-66.74-54.29-121.03-121.03-121.03
			c-18.8,0-36.87,4.22-53.67,12.54c-0.32,0.16-0.67,0.28-1.02,0.33c-10.14,1.62-17.57-5.52-17.88-13.87
			c-0.87-23.65-23.68-44.59-46.74-41.14c-0.38,0.06-0.78,0.06-1.16-0.01c-9.99-1.83-14.65-10.84-12.35-18.76
			c6.44-22.17,1.52-46.45-15.2-67.59c-0.75-0.95-1.62-1.82-2.56-2.57c-31.94-25.29-71.25-21.98-95.77,1.76
			c-0.36,0.35-0.79,0.63-1.25,0.79c-11.7,4.07-21-3.99-21-13.52V370.15c0-0.25,0-0.5,0.01-0.75c0.01-0.15,0.02-0.3,0.03-0.45
			l2.49-35.85c0.26-3.67,1.83-7.13,4.43-9.74l100.76-100.76c0,0,0.01-0.01,0.02-0.02L312.87,60.47c5.96-5.96,15.63-5.96,21.59,0
			l126.75,126.75c1.03,1.03,1.59,2.45,1.57,3.9c-0.3,17.43-17,21.85-25.6,13.25L333.96,101.15c-5.93-5.93-15.01-5.59-20.59,0
			L196.18,218.33h189.88c4.23,0,8.28,1.73,11.25,4.75c36.94,37.47,10.73,82.61-25.82,82.61H292c-6.88,0-13.17,4.57-14.65,11.28
			c-2.08,9.45,5.12,17.84,14.24,17.84h419.52l-73.17-72.95c-5.7-5.68-14.96-5.67-20.65,0L565.5,313.5z M601.34,994.88h391.97
			c8.04,0,14.56-6.52,14.56-14.56V934.7H578.9C591.26,952.66,598.95,973.24,601.34,994.88L601.34,994.88z M670.06,905.58h279.56
			l0-38.83h-43.6H670.07L670.06,905.58z M549.74,905.58H639l0-38.83H526.64c-7.44,0-14.1-5.35-15-12.74
			c-1.08-8.86,5.81-16.38,14.45-16.38h55.38c0.01-9.23,0.01-19.77-0.01-21.62c-0.11-15.18,4.35-29.79,12.77-42.32
			c-14.67-12.46-31.37-23.42-38.69-23.42H399.7c11.26,8.28,21.32,18.09,29.89,29.12h84.97c7.44,0,14.1,5.35,15,12.74
			c1.08,8.86-5.81,16.38-14.45,16.38h-68.48c8.83,19.11,13.76,40.38,13.76,62.78c0,2.38-0.06,4.78-0.18,7.18
			c3.68-0.32,7.38-0.48,11.08-0.48C499.94,878,527.24,887.69,549.74,905.58L549.74,905.58z M978.74,837.63h29.11
			c0-9.1-0.01-19.5,0.01-21.77v-0.82c-0.08-8.74-2.63-21.24-13.97-32.57L865.05,653.62c-0.02-0.02-0.04-0.04-0.05-0.05l-45.13-45.13
			c-2.75-2.75-6.41-4.27-10.3-4.27s-7.55,1.51-10.3,4.27L625.24,782.46c-0.01,0.01-0.02,0.02-0.03,0.03
			c-11.65,11.66-14.02,24.54-13.95,33.3c0.02,1.95,0.01,12.56,0.01,21.84H639v-21.18c0-7.45,5.35-14.11,12.74-15
			c8.86-1.07,16.38,5.81,16.38,14.45v21.74h223.26v-20.98c-0.69-8.04,5.83-14.56,13.87-14.56c8.04,0,14.56,6.52,15.25,14.56v22.92
			h29.12v-22.93c-0.69-8.04,5.83-14.56,13.87-14.56c8.04,0,14.56,6.52,15.25,14.56V837.63z M889.44,638.03l118.42,118.42
			l-0.01-119.69c0-3.9-1.52-7.57-4.28-10.34L889.44,512.29L889.44,638.03z M450.69,721.15h105.1c19.1,0,43.43,18.1,58.25,30.89
			l163.57-163.56c7.12-7.12,16.34-11.99,26.35-13.13c13.56-1.55,26.6,3.04,36.06,12.5l20.3,20.3V483.48l-48.36-48.36
			c-5.26-5.26-6.19-13.75-1.6-19.61c5.5-7.02,15.69-7.48,21.81-1.37l28.16,28.16v-36.33c-35.88-31.61-90.82-30.27-125.1,4
			c-6.4,6.39-17.26,5.6-22.54-2.39c-3.89-5.88-2.57-13.73,2.44-18.69c8.76-8.66,18.61-15.82,29.25-21.35l-3.6-3.6H294.41
			c-22.73,0-42.44-16.97-44.51-39.61c-2.36-25.91,18.06-47.76,43.5-47.76h76.95c6.88,0,13.18-4.58,14.65-11.3
			c2.06-9.44-5.11-17.82-14.2-17.82H166.69l-88.86,88.86c-2.48,2.48-3.98,5.78-4.22,9.27l-0.76,10.97
			c38.61,6.34,69.63,35.94,77.67,74.27c29.42,0.83,56.33,15.01,73.6,38.2l45.8-45.8c17.06-17.06,44.71-17.06,61.77,0l75.78,75.78
			c25.16-33.55,65.01-53.81,107.48-53.81c74.02,0,134.23,60.22,134.23,134.23c0,0.51,0,1.02-0.01,1.53
			c6.44-1.41,13.03-2.12,19.64-2.12c12.82,0,25.22,2.58,36.88,7.68c6.44,2.82,10.41,9.73,8.86,16.58
			c-2.1,9.29-11.91,13.89-20.14,10.23c-8.06-3.59-16.68-5.41-25.6-5.41c-10.39,0-20.3,2.45-29.44,7.29
			c-3.48,1.84-7.59,2.35-11.33,1.13c-7.32-2.39-11.28-9.63-9.91-16.67c1.3-6.7,1.97-13.51,1.97-20.24
			c0-57.98-47.17-105.15-105.15-105.15c-34.68,0-67.13,17.26-86.65,45.56l57.76,57.76c14.64,14.64,22.61,33.83,22.47,54.05
			c-0.03,3.72,0,35.8,0,36.13c0,8.33-5.9,14.55-14.54,14.55h-43.29L450.69,721.15L450.69,721.15z M218.18,682.32
			c21.85,7.11,39.07,24.32,46.12,46.3c15.05-4.97,30.76-7.47,46.89-7.47h110.37v-38.83H218.18z M450.69,653.2h29.11
			c0-9.19-0.01-19.71,0.01-21.84c0.06-8.77-2.31-21.66-13.97-33.32L311.46,443.66c-1.98-1.98-4.41-3.51-7.14-4.13
			c-5.11-1.15-10.15,0.34-13.69,3.88L152.69,581.35c28.69,13.18,50.29,39.95,56.01,71.85h154.62v-21.18c0-7.44,5.35-14.1,12.74-15
			c8.86-1.08,16.38,5.81,16.38,14.45v21.74h29.12v-21.18c0-7.44,5.35-14.1,12.74-15c8.86-1.08,16.38,5.81,16.38,14.45L450.69,653.2
			L450.69,653.2z M72.12,386.32v195.9c13.56-6.24,28.5-9.32,43.77-8.87c1.52,0.04,3.04,0.13,4.55,0.24l83.2-83.2
			c-12.16-18.71-32.87-30.08-55.51-30.08c-2.63,0-13.07,3.43-19.26-2.76c-2.85-2.85-4.97-6.33-5.2-10.36
			C122,417.14,100.4,392.68,72.12,386.32L72.12,386.32z"/>
	</g>
</g>
</svg>
