<?xml version="1.0" encoding="utf-8"?>
<!-- Generator: Adobe Illustrator 28.3.0, SVG Export Plug-In . SVG Version: 6.00 Build 0)  -->
<svg version="1.0" id="Capa_1" xmlns="http://www.w3.org/2000/svg" xmlns:xlink="http://www.w3.org/1999/xlink" x="0px" y="0px"
	 viewBox="0 0 1080 1080" style="enable-background:new 0 0 1080 1080;" xml:space="preserve">
<style type="text/css">
	.st0{fill:#B7BAA7;stroke:#B7BAA7;stroke-width:2;stroke-linecap:round;stroke-linejoin:round;stroke-miterlimit:10;}
</style>
<g>
	<g>
		<g>
			<path class="st0" d="M793.59,583.89h-25c-7.44,0-14.11,5.35-15,12.74c-1.06,8.84,5.81,16.36,14.44,16.36h25
				c7.44,0,14.11-5.35,15-12.74C809.09,591.4,802.22,583.89,793.59,583.89z"/>
		</g>
	</g>
	<g>
		<g>
			<path class="st0" d="M1036.55,500.85c-0.1-2.45-0.37-4.89-0.85-7.29l-32.62-164.88c0-0.01,0-0.01,0-0.02L996.41,295
				c-4.25-21.51-23.12-37-45.04-37H90.66c-26.06,0-47.26,21.17-47.26,47.2v388.57c0,26.1,21.16,47.26,47.26,47.26h46.05
				c7.03,45.8,46.7,80.98,94.43,80.98s87.4-35.19,94.43-80.98h36.91c7.44,0,14.11-5.35,15-12.74c1.07-8.84-5.81-16.36-14.44-16.36
				h-37.47c-7.03-45.79-46.7-80.98-94.43-80.98s-87.4,35.19-94.43,80.98H90.64c-10.02,0-18.14-8.12-18.14-18.14V295.9
				c0-4.86,3.94-8.81,8.81-8.81h868.06c8.56,0,15.98,5.94,17.64,14.11l3.04,14.98H765.88c-6.9,0-12.5,5.6-12.5,12.5v170.69
				c0,14.76,7.1,28.77,18.98,37.46c28.61,20.93,92.57,46.8,235.14,53.21v97.61c0,13.4-10.86,24.26-24.26,24.26h-40.2
				c-7.06-45.79-46.88-80.98-94.8-80.98c-47.92,0-87.74,35.19-94.8,80.98H429.7c-7.44,0-14.1,5.34-15,12.73
				c-1.08,8.85,5.83,16.37,14.5,16.37h325.02c7.03,45.77,46.73,80.94,94.5,80.94c47.77,0,87.47-35.17,94.5-80.94h41.36
				c28.73,0,52.01-23.29,52.01-52.01V502.69v0C1036.59,502.07,1036.57,501.46,1036.55,500.85z M230.57,659.93
				c36.66,0,66.49,29.82,66.49,66.49s-29.82,66.49-66.49,66.49s-66.49-29.83-66.49-66.49S193.9,659.93,230.57,659.93z
				 M848.01,792.91c-36.66,0-66.49-29.83-66.49-66.49s29.82-66.49,66.49-66.49s66.49,29.82,66.49,66.49
				C914.49,763.08,884.67,792.91,848.01,792.91z M782.48,498.95V345.29h194.26l30.42,153.36c0.05,0.27,0.08,0.55,0.12,0.83
				c0.12,0.81,0.2,1.63,0.21,2.44c0,0.07,0.01,0.14,0.01,0.21v58.39c-141.56-6.5-197.2-32.38-217.95-47.57
				C785.12,509.73,782.48,504.49,782.48,498.95z"/>
		</g>
	</g>
	<g>
		<g>
			<path class="st0" d="M375.17,316.19H130.64c-12.82,0-23.22,10.4-23.22,23.22v163.06c0,12.82,10.4,23.22,23.22,23.22h244.53
				c12.82,0,23.22-10.4,23.22-23.22V339.42C398.39,326.59,388,316.19,375.17,316.19z M237.39,496.6H136.52V345.29h100.87V496.6z
				 M367.36,496.6H266.48V345.29h100.87V496.6z"/>
		</g>
	</g>
	<g>
		<g>
			<path class="st0" d="M693.3,316.19H448.77c-12.82,0-23.22,10.4-23.22,23.22v163.06c0,12.82,10.4,23.22,23.22,23.22H693.3
				c12.82,0,23.22-10.4,23.22-23.22V339.42C716.52,326.59,706.13,316.19,693.3,316.19z M687.43,496.6H586.56v-54.63
				c0-7.44-5.35-14.11-12.74-15c-8.85-1.07-16.36,5.81-16.36,14.45v55.18H456.59V345.29h100.87v28.56c0,7.44,5.35,14.11,12.74,15
				c8.85,1.07,16.36-5.81,16.36-14.45v-29.11h100.87V496.6z"/>
		</g>
	</g>
</g>
</svg>
