<?xml version="1.0" encoding="utf-8"?>
<!-- Generator: Adobe Illustrator 28.3.0, SVG Export Plug-In . SVG Version: 6.00 Build 0)  -->
<svg version="1.0" id="Capa_1" xmlns="http://www.w3.org/2000/svg" xmlns:xlink="http://www.w3.org/1999/xlink" x="0px" y="0px"
	 viewBox="0 0 1080 1080" style="enable-background:new 0 0 1080 1080;" xml:space="preserve">
<style type="text/css">
	.st0{fill:#B7BAA7;}
</style>
<g>
	<path class="st0" d="M774.1,215.09c-8.17-0.71-15.38,5.38-16.08,13.54c-0.34,3.96,0.88,7.81,3.44,10.84
		c2.56,3.04,6.15,4.9,10.1,5.23c35.72,3.06,57.08,24.42,60.14,60.14c0.3,3.49,1.83,6.77,4.3,9.24c2.81,2.81,6.58,4.36,10.51,4.36
		c0.42,0,0.85-0.02,1.27-0.05c8.17-0.7,14.24-7.91,13.54-16.08C857.02,252,824.41,219.39,774.1,215.09z"/>
	<path class="st0" d="M202.42,248.16l275.67,205.77l-90.97,105.03c-5.37,6.19-4.69,15.6,1.5,20.97c2.7,2.34,6.16,3.63,9.73,3.63
		c4.32,0,8.41-1.87,11.24-5.13L511,461.34c0.01-0.01,0.02-0.02,0.03-0.03L689.72,255c43.99-50.79,105.08-82.14,172-88.28l19.19-1.76
		c8.34-0.77,16.52,2.19,22.43,8.11c5.92,5.92,8.88,14.1,8.11,22.43l-1.76,19.18c-4.04,44.03-19.41,86.56-44.45,122.99
		c-4.64,6.75-2.93,16.03,3.83,20.67c6.75,4.64,16.02,2.93,20.67-3.83c27.92-40.62,45.06-88.03,49.56-137.11l1.76-19.19
		c1.57-17.16-4.51-33.98-16.69-46.17c-12.18-12.18-29.02-18.26-46.17-16.69L859,137.12c-74.61,6.84-142.7,41.79-191.75,98.42
		l-28.34,32.72l-62.98-26.1l1-1c11.82-11.82,11.82-31.06,0-42.88l-20.64-20.65c-11.82-11.82-31.06-11.82-42.88,0l-27.29,27.29
		l-27.74-11.5l5.56-5.56c11.82-11.82,11.82-31.06,0-42.88l-20.64-20.64c-11.82-11.82-31.06-11.82-42.88,0l-31.85,31.85l-54.12-22.43
		c-27.32-11.32-58.49-5.13-79.41,15.79l-37.05,37.05c-8.38,8.38-12.69,19.96-11.84,31.78C186.99,230.23,192.93,241.07,202.42,248.16
		z M421.44,145.39C421.44,145.39,421.44,145.38,421.44,145.39c0.29-0.29,0.55-0.29,0.83,0l20.64,20.64c0.14,0.14,0.17,0.3,0.17,0.42
		c0,0.11-0.03,0.27-0.17,0.42l-14.26,14.26l-30.37-12.58L421.44,145.39z M534.43,198.67C534.43,198.67,534.43,198.67,534.43,198.67
		c0.28-0.29,0.55-0.28,0.84,0l20.64,20.64c0.14,0.14,0.17,0.3,0.17,0.42c0,0.11-0.03,0.28-0.17,0.42l-9.7,9.7l-30.37-12.59
		L534.43,198.67z M219,207.65C219,207.65,219,207.65,219,207.65l37.05-37.05c8.16-8.16,18.98-12.66,30.45-12.66
		c5.69,0,11.26,1.11,16.56,3.31L618.4,291.94L497.61,431.4L220.2,224.34c-2.61-1.95-4.18-4.81-4.42-8.07
		C215.55,213.02,216.69,209.95,219,207.65z"/>
	<path class="st0" d="M959.22,640.29l-20.64-20.64c-11.82-11.82-31.06-11.82-42.88,0l-7.57,7.57l-13.6-32.81l24.24-24.24
		c5.72-5.72,8.87-13.33,8.87-21.44s-3.15-15.72-8.87-21.44l-20.64-20.64c-11.14-11.14-28.87-11.78-40.76-1.92l-28.22-68.09
		l31.73-27.48c2.46-2.13,4.92-4.34,7.3-6.54c2.91-2.7,4.6-6.37,4.75-10.34s-1.25-7.76-3.95-10.67c-2.7-2.91-6.37-4.6-10.33-4.75
		c-3.99-0.15-7.76,1.25-10.67,3.95c-2.15,1.99-4.36,3.97-6.56,5.88L460.18,699.58c-18.65,16.15-38.4,31.62-58.7,45.99
		c-28,19.81-57.6,37.88-87.98,53.7v0c-0.02,0.01-0.04,0.02-0.06,0.03c-7.92,4.13-15.9,8.11-23.71,11.83
		c-8.62,4.11-16.43,0.85-20.86-3.58c-4.43-4.43-7.7-12.24-3.58-20.86c3.87-8.12,8.14-16.63,12.67-25.29
		c1.82-3.47,3.45-6.53,4.98-9.37c0.21-0.38,0.42-0.76,0.62-1.14l0.53-0.96c1.91-3.5,3.52-6.4,5.06-9.13l1.08-1.9
		c1.91-3.36,3.65-6.39,5.33-9.26l1.01-1.71c1.94-3.29,3.77-6.34,5.58-9.31l1.03-1.68c1.87-3.06,3.79-6.14,5.69-9.15l1.18-1.85
		c1.84-2.89,3.75-5.85,5.67-8.78l1.42-2.16c1.76-2.67,3.64-5.47,5.57-8.32c0.56-0.82,1.11-1.63,1.67-2.45
		c1.83-2.67,3.67-5.32,5.53-7.96c13.28-18.85,27.45-37.17,42.13-54.45c5.3-6.25,4.54-15.65-1.71-20.95
		c-6.25-5.3-15.65-4.53-20.95,1.71c-12.23,14.4-24.2,29.59-35.59,45.17l-109.88-49.74c-22.02-9.97-48.29-5.18-65.38,11.91
		l-19.02,19.02c-5.32,5.33-8.07,12.69-7.55,20.2c0.53,7.51,4.29,14.42,10.3,18.94l122.78,92.34c-2.53,5.04-4.65,9.35-6.61,13.46
		c-8.89,18.63-5.2,40.09,9.39,54.68c9.14,9.14,21.14,14.18,33.8,14.18c7.2,0,14.22-1.61,20.88-4.78c4.12-1.97,8.44-4.08,13.46-6.6
		l92.34,122.78c4.53,6.02,11.43,9.77,18.94,10.3c0.61,0.04,1.22,0.06,1.83,0.06c6.94,0,13.46-2.7,18.37-7.61l19.02-19.02
		c17.09-17.09,21.88-43.36,11.91-65.38l-49.73-109.86c17.5-12.8,34.65-26.45,50.97-40.59l143.19-124.03L830.56,876.3
		c7.09,9.5,17.94,15.43,29.76,16.29c0.98,0.07,1.97,0.11,2.95,0.11c10.89,0,21.13-4.24,28.84-11.95l37.05-37.05
		c20.92-20.92,27.11-52.08,15.79-79.41l-19.58-47.25l33.87-33.87C971.04,671.35,971.04,652.11,959.22,640.29z M856.27,527.68
		C856.27,527.68,856.27,527.68,856.27,527.68c0.28-0.28,0.55-0.28,0.83,0l20.64,20.64c0.14,0.14,0.17,0.3,0.17,0.42
		c0,0.11-0.03,0.28-0.17,0.42l-15.53,15.53l-12.58-30.37L856.27,527.68z M918.34,640.67l20.64,20.64c0.14,0.14,0.17,0.31,0.17,0.42
		c0,0.11-0.03,0.28-0.17,0.42c0,0,0,0,0,0l-25.17,25.17l-12.59-30.37l16.28-16.28C917.79,640.38,918.06,640.39,918.34,640.67z
		 M908.12,822.67C908.12,822.67,908.12,822.67,908.12,822.67l-37.05,37.05c-2.29,2.29-5.36,3.43-8.62,3.21
		c-3.25-0.23-6.12-1.8-8.07-4.42L645.37,578.5l140.1-121.35l132.01,318.51C924.18,791.84,920.51,810.29,908.12,822.67z
		 M445.47,916.85l-15.97,15.97l-86.84-115.46c0.92-0.51,1.83-1.02,2.75-1.52l0.55-0.31c2.77-1.54,5.54-3.1,8.29-4.68l0.44-0.25
		c1.15-0.66,2.31-1.32,3.46-1.98c2.07-1.2,4.14-2.41,6.2-3.63c0.75-0.45,1.51-0.89,2.26-1.34l0.84-0.5
		c7.06-4.22,14.16-8.61,21.12-13.07l2.73-1.75c2.15-1.39,4.3-2.79,6.44-4.21c0.52-0.35,1.05-0.69,1.57-1.04l2.71-1.8
		c0.63-0.42,1.26-0.84,1.9-1.26l47.41,104.74C456.21,895.56,453.86,908.46,445.47,916.85z M267.26,719.16
		c-0.37,0.63-0.73,1.27-1.09,1.9l-0.72,1.26c-1.96,3.42-3.92,6.92-5.83,10.39l-0.58,1.04l-115.46-86.84l15.98-15.98
		c8.39-8.39,21.29-10.74,32.1-5.84l104.75,47.42c-1.02,1.51-2.03,3.03-3.04,4.55c-0.64,0.96-1.27,1.92-1.93,2.93
		c-4.5,6.85-8.96,13.86-13.24,20.83l-1.61,2.62c-1.27,2.09-2.53,4.19-3.78,6.29c-0.62,1.03-1.23,2.07-1.84,3.1l-0.1,0.17
		C269.66,715.05,268.45,717.1,267.26,719.16z"/>
</g>
</svg>
